<svg xmlns="http://www.w3.org/2000/svg" width="63" height="72" viewBox="0 0 63 72" fill="none">
  <path fill-rule="evenodd" clip-rule="evenodd" d="M31.5 4.5C28.5163 4.5 25.6548 5.68526 23.545 7.79505C21.4353 9.90483 20.25 12.7663 20.25 15.75V18H42.75V15.75C42.75 12.7663 41.5647 9.90483 39.455 7.79505C37.3452 5.68526 34.4837 4.5 31.5 4.5ZM47.25 18V15.75C47.25 11.5728 45.5906 7.56677 42.6369 4.61307C39.6832 1.65937 35.6772 0 31.5 0C27.3228 0 23.3168 1.65937 20.3631 4.61307C17.4094 7.56677 15.75 11.5728 15.75 15.75V18H0V63C0 65.3869 0.948212 67.6761 2.63604 69.364C4.32387 71.0518 6.61305 72 9 72H54C56.3869 72 58.6761 71.0518 60.364 69.364C62.0518 67.6761 63 65.3869 63 63V18H47.25Z" fill="#BDBDBD"/>
</svg>