<svg width="36" height="36" viewBox="0 0 36 36" fill="none" xmlns="http://www.w3.org/2000/svg"><path fill-rule="evenodd" clip-rule="evenodd" d="M19.0334 12.9998C19.0334 12.6132 18.72 12.2998 18.3334 12.2998C17.9468 12.2998 17.6334 12.6132 17.6334 12.9998V17.6331H13C12.6134 17.6331 12.3 17.9465 12.3 18.3331C12.3 18.7197 12.6134 19.0331 13 19.0331H17.6334V23.6665C17.6334 24.0531 17.9468 24.3665 18.3334 24.3665C18.72 24.3665 19.0334 24.0531 19.0334 23.6665V19.0331H23.6667C24.0533 19.0331 24.3667 18.7197 24.3667 18.3331C24.3667 17.9465 24.0533 17.6331 23.6667 17.6331H19.0334V12.9998Z" fill="#4D4E59"></path></svg>