<svg width="26" height="25" viewBox="0 0 26 25" fill="none" xmlns="http://www.w3.org/2000/svg">
<mask id="mask0_410_3" style="mask-type:alpha" maskUnits="userSpaceOnUse" x="2" y="1" width="24" height="24">
<rect x="2" y="1" width="24" height="24" fill="#D9D9D9"/>
</mask>
<g mask="url(#mask0_410_3)">
<path d="M14 17C15.25 17 16.3125 16.5625 17.1875 15.6875C18.0625 14.8125 18.5 13.75 18.5 12.5C18.5 11.25 18.0625 10.1875 17.1875 9.3125C16.3125 8.4375 15.25 8 14 8C12.75 8 11.6875 8.4375 10.8125 9.3125C9.9375 10.1875 9.5 11.25 9.5 12.5C9.5 13.75 9.9375 14.8125 10.8125 15.6875C11.6875 16.5625 12.75 17 14 17ZM14 15.2C13.25 15.2 12.6125 14.9375 12.0875 14.4125C11.5625 13.8875 11.3 13.25 11.3 12.5C11.3 11.75 11.5625 11.1125 12.0875 10.5875C12.6125 10.0625 13.25 9.8 14 9.8C14.75 9.8 15.3875 10.0625 15.9125 10.5875C16.4375 11.1125 16.7 11.75 16.7 12.5C16.7 13.25 16.4375 13.8875 15.9125 14.4125C15.3875 14.9375 14.75 15.2 14 15.2ZM14 20C11.5667 20 9.35 19.3208 7.35 17.9625C5.35 16.6042 3.9 14.7833 3 12.5C3.9 10.2167 5.35 8.39583 7.35 7.0375C9.35 5.67917 11.5667 5 14 5C16.4333 5 18.65 5.67917 20.65 7.0375C22.65 8.39583 24.1 10.2167 25 12.5C24.1 14.7833 22.65 16.6042 20.65 17.9625C18.65 19.3208 16.4333 20 14 20Z" fill="black"/>
</g>
<mask id="mask1_410_3" style="mask-type:alpha" maskUnits="userSpaceOnUse" x="0" y="0" width="24" height="24">
<rect width="24" height="24" fill="#D9D9D9"/>
</mask>
<g mask="url(#mask1_410_3)">
<path d="M12 17C13.25 17 14.3125 16.5625 15.1875 15.6875C16.0625 14.8125 16.5 13.75 16.5 12.5C16.5 11.25 16.0625 10.1875 15.1875 9.3125C14.3125 8.4375 13.25 8 12 8C10.75 8 9.6875 8.4375 8.8125 9.3125C7.9375 10.1875 7.5 11.25 7.5 12.5C7.5 13.75 7.9375 14.8125 8.8125 15.6875C9.6875 16.5625 10.75 17 12 17ZM12 15.2C11.25 15.2 10.6125 14.9375 10.0875 14.4125C9.5625 13.8875 9.3 13.25 9.3 12.5C9.3 11.75 9.5625 11.1125 10.0875 10.5875C10.6125 10.0625 11.25 9.8 12 9.8C12.75 9.8 13.3875 10.0625 13.9125 10.5875C14.4375 11.1125 14.7 11.75 14.7 12.5C14.7 13.25 14.4375 13.8875 13.9125 14.4125C13.3875 14.9375 12.75 15.2 12 15.2ZM12 20C9.56667 20 7.35 19.3208 5.35 17.9625C3.35 16.6042 1.9 14.7833 1 12.5C1.9 10.2167 3.35 8.39583 5.35 7.0375C7.35 5.67917 9.56667 5 12 5C14.4333 5 16.65 5.67917 18.65 7.0375C20.65 8.39583 22.1 10.2167 23 12.5C22.1 14.7833 20.65 16.6042 18.65 17.9625C16.65 19.3208 14.4333 20 12 20Z" fill="#FF916F"/>
</g>
</svg>
