<svg width="25" height="22" viewBox="0 0 25 22" fill="none" xmlns="http://www.w3.org/2000/svg">
<mask id="mask0_409_2" style="mask-type:alpha" maskUnits="userSpaceOnUse" x="3" y="0" width="22" height="22">
<rect x="3" width="22" height="22" fill="#D9D9D9"/>
</mask>
<g mask="url(#mask0_409_2)">
<path d="M7.58333 21.725C7.07917 21.725 6.64757 21.5455 6.28854 21.1864C5.92951 20.8274 5.75 20.3958 5.75 19.8917V7.05832C5.75 6.55415 5.92951 6.12255 6.28854 5.76353C6.64757 5.4045 7.07917 5.22498 7.58333 5.22498H15.7646L9.41667 11.5729V18.0583H15.9021L22.25 11.6875V19.8917C22.25 20.3958 22.0705 20.8274 21.7115 21.1864C21.3524 21.5455 20.9208 21.725 20.4167 21.725H7.58333ZM11.25 16.225V12.3292L17.8271 5.75207L21.7458 9.60207L15.1458 16.225H11.25ZM23.0521 8.29582L19.1333 4.44582L20.1187 3.4604C20.4854 3.09373 20.9247 2.9104 21.4365 2.9104C21.9483 2.9104 22.3799 3.09373 22.7312 3.4604L24.0146 4.76665C24.366 5.11804 24.5417 5.54582 24.5417 6.04998C24.5417 6.55415 24.366 6.98193 24.0146 7.33332L23.0521 8.29582Z" fill="black"/>
</g>
<mask id="mask1_409_2" style="mask-type:alpha" maskUnits="userSpaceOnUse" x="0" y="0" width="22" height="22">
<rect width="22" height="22" fill="#D9D9D9"/>
</mask>
<g mask="url(#mask1_409_2)">
<path d="M4.58333 21.725C4.07917 21.725 3.64757 21.5455 3.28854 21.1864C2.92951 20.8274 2.75 20.3958 2.75 19.8917V7.05832C2.75 6.55415 2.92951 6.12255 3.28854 5.76353C3.64757 5.4045 4.07917 5.22498 4.58333 5.22498H12.7646L6.41667 11.5729V18.0583H12.9021L19.25 11.6875V19.8917C19.25 20.3958 19.0705 20.8274 18.7115 21.1864C18.3524 21.5455 17.9208 21.725 17.4167 21.725H4.58333ZM8.25 16.225V12.3292L14.8271 5.75207L18.7458 9.60207L12.1458 16.225H8.25ZM20.0521 8.29582L16.1333 4.44582L17.1187 3.4604C17.4854 3.09373 17.9247 2.9104 18.4365 2.9104C18.9483 2.9104 19.3799 3.09373 19.7312 3.4604L21.0146 4.76665C21.366 5.11804 21.5417 5.54582 21.5417 6.04998C21.5417 6.55415 21.366 6.98193 21.0146 7.33332L20.0521 8.29582Z" fill="#FF916F"/>
</g>
</svg>
