<svg xmlns="http://www.w3.org/2000/svg" width="390" height="90" viewBox="0 0 390 90" fill="none">
  <g opacity="0.5">
    <path d="M0 0H390V90H0V0Z" fill="white"/>
    <path d="M24.9 35.696L24.432 34.7C26.712 34.388 28.2 33.152 28.272 31.7H24.876V30.692H28.284V29.288H29.52V30.692H32.916V31.7H29.532C29.604 33.152 31.092 34.388 33.372 34.7L32.904 35.696C31.08 35.408 29.616 34.568 28.908 33.344C28.188 34.568 26.724 35.408 24.9 35.696ZM29.52 37.616H33.816V38.624H24V37.616H28.284V35.312H29.52V37.616Z" fill="black"/>
    <path d="M36.6111 31.388V36.332C37.8591 36.32 38.8431 36.26 39.9591 36.032L40.0671 37.052C38.7591 37.304 37.6431 37.352 36.1191 37.352H35.3991V30.38H39.4071V31.388H36.6111ZM43.1031 29.084H44.2791V39.92H43.1031V34.376H41.8191V39.392H40.6551V29.312H41.8191V33.368H43.1031V29.084Z" fill="black"/>
    <path d="M46.9061 32.948L53.5421 32.696C53.5661 32.108 53.5661 31.568 53.5661 31.076H47.2181V30.08H54.7901V31.076C54.7901 32.396 54.8021 33.896 54.3221 36.188L53.0981 36.044C53.2901 35.144 53.4101 34.352 53.4701 33.644L47.0741 33.992L46.9061 32.948ZM50.9741 37.556H55.8701V38.576H46.0661V37.556H49.7261V34.832H50.9741V37.556Z" fill="black"/>
    <path d="M65.8292 34.208V35.204H58.3172V30.044H65.7452V31.052H59.5532V34.208H65.8292ZM57.1172 37.52H66.9452V38.54H57.1172V37.52Z" fill="black"/>
    <path d="M73.6642 37.64H77.9723V38.66H68.1562V37.64H72.4283V35.792H69.3443V32.3H75.5843V30.848H69.3203V29.852H76.8083V33.284H70.5563V34.796H77.0482V35.792H73.6642V37.64Z" fill="black"/>
    <path d="M87.3986 37.64H91.7066V38.66H81.8906V37.64H86.1626V35.792H83.0786V32.3H89.3186V30.848H83.0546V29.852H90.5426V33.284H84.2906V34.796H90.7826V35.792H87.3986V37.64Z" fill="black"/>
    <path d="M100.238 31.34V31.172H93.9737V30.176H101.474V31.34C101.474 32.792 101.474 34.316 101.066 36.608L99.8177 36.476C100.238 34.34 100.238 32.744 100.238 31.34ZM92.9297 37.4H102.734V38.42H92.9297V37.4Z" fill="black"/>
    <path d="M112.897 29.096V36.968H111.661V29.096H112.897ZM105.385 32.528C105.385 33.512 106.093 34.172 107.053 34.172C108.001 34.172 108.721 33.512 108.721 32.528C108.721 31.532 108.001 30.884 107.053 30.884C106.093 30.884 105.385 31.532 105.385 32.528ZM109.921 32.528C109.921 34.1 108.685 35.24 107.053 35.24C105.421 35.24 104.173 34.1 104.173 32.528C104.173 30.944 105.421 29.816 107.053 29.816C108.685 29.816 109.921 30.944 109.921 32.528ZM107.065 38.72H113.209V39.728H105.817V36.176H107.065V38.72Z" fill="black"/>
    <path d="M121.416 30.332V31.316H115.02V30.332H117.6V29.096H118.836V30.332H121.416ZM116.772 33.872C116.772 34.556 117.36 34.964 118.212 34.964C119.076 34.964 119.664 34.556 119.664 33.872C119.664 33.188 119.076 32.78 118.212 32.78C117.36 32.78 116.772 33.188 116.772 33.872ZM120.84 33.872C120.84 35.108 119.772 35.924 118.212 35.924C116.664 35.924 115.584 35.108 115.584 33.872C115.584 32.648 116.664 31.82 118.212 31.82C119.772 31.82 120.84 32.648 120.84 33.872ZM117.852 36.596V38.72H123.9V39.728H116.604V36.596H117.852ZM123.468 32.552H125.004V33.572H123.468V37.22H122.232V29.096H123.468V32.552Z" fill="black"/>
    <path d="M136.482 31.964H133.962C133.29 33.692 131.694 34.904 129.354 35.588L128.862 34.604C131.406 33.896 132.81 32.564 133.026 30.872H129.426V29.876H134.346C134.346 30.26 134.31 30.62 134.25 30.956H136.482V29.096H137.718V35.468H136.482V34.22H133.854V33.212H136.482V31.964ZM134.166 38.912C135.642 38.912 136.566 38.492 136.566 37.736C136.566 36.992 135.642 36.572 134.166 36.572C132.702 36.572 131.778 36.992 131.778 37.736C131.778 38.492 132.702 38.912 134.166 38.912ZM134.166 35.6C136.362 35.6 137.79 36.416 137.79 37.736C137.79 39.068 136.362 39.884 134.166 39.884C131.97 39.884 130.554 39.068 130.554 37.736C130.554 36.416 131.97 35.6 134.166 35.6Z" fill="black"/>
    <path d="M144.665 30.488C143.105 30.488 142.085 31.016 142.085 31.892C142.085 32.78 143.105 33.308 144.665 33.308C146.213 33.308 147.233 32.78 147.233 31.892C147.233 31.016 146.213 30.488 144.665 30.488ZM144.665 34.304C142.373 34.304 140.813 33.368 140.813 31.892C140.813 30.428 142.373 29.492 144.665 29.492C146.945 29.492 148.505 30.428 148.505 31.892C148.505 33.368 146.945 34.304 144.665 34.304ZM149.597 35.228V36.248H145.265V39.932H144.029V36.248H139.769V35.228H149.597Z" fill="black"/>
    <path d="M153.256 36.464C154 36.464 154.456 35.492 154.456 33.776C154.456 32.06 154 31.1 153.256 31.1C152.512 31.1 152.056 32.06 152.056 33.776C152.056 35.492 152.512 36.464 153.256 36.464ZM156.724 33.2V29.3H157.876V39.416H156.724V34.22H155.572C155.464 36.332 154.576 37.628 153.256 37.628C151.852 37.628 150.928 36.152 150.928 33.776C150.928 31.4 151.852 29.936 153.256 29.936C154.552 29.936 155.428 31.172 155.56 33.2H156.724ZM158.896 29.096H160.072V39.92H158.896V29.096Z" fill="black"/>
    <path d="M170.559 32.204V33.212H163.119V29.48H164.355V32.204H170.559ZM164.283 36.5V38.696H170.619V39.692H163.047V36.5H164.283ZM161.847 34.508H171.687V35.504H161.847V34.508Z" fill="black"/>
    <path d="M181.894 34.052L181.246 35.024C180.082 34.604 179.218 33.776 178.762 32.756C178.282 33.932 177.394 34.868 176.146 35.324L175.486 34.34C177.19 33.752 178.114 32.276 178.114 30.716V29.648H179.362V30.812C179.362 32.204 180.286 33.524 181.894 34.052ZM180.562 38.96C182.074 38.96 182.95 38.588 182.95 37.892C182.95 37.22 182.074 36.836 180.562 36.836C179.05 36.836 178.174 37.22 178.174 37.892C178.174 38.588 179.05 38.96 180.562 38.96ZM180.562 35.864C182.806 35.864 184.174 36.62 184.174 37.892C184.174 39.176 182.806 39.932 180.562 39.932C178.33 39.932 176.95 39.176 176.95 37.892C176.95 36.62 178.33 35.864 180.562 35.864ZM184.054 31.772H185.59V32.792H184.054V35.6H182.818V29.084H184.054V31.772Z" fill="black"/>
    <path d="M192.765 32.396V30.404H190.269V32.396H192.765ZM189.033 32.396V30.404H187.497V29.408H195.525V30.404H194.001V32.396H195.465V33.392H187.557V32.396H189.033ZM194.025 38.816V37.34H189.021V38.816H194.025ZM196.425 35.252H192.141V36.356H195.237V39.8H187.797V36.356H190.905V35.252H186.621V34.256H196.425V35.252Z" fill="black"/>
    <path d="M210.171 34.388V35.408H205.851V39.932H204.603V35.408H200.367V34.388H207.411C207.723 32.876 207.723 31.748 207.723 30.752H201.543V29.756H208.935V30.704C208.935 31.724 208.935 32.852 208.659 34.388H210.171Z" fill="black"/>
    <path d="M212.918 31.268V36.128H214.79V31.268H212.918ZM211.766 37.112V30.284H215.942V37.112H211.766ZM219.482 29.096H220.658V39.92H219.482V34.328H218.246V39.416H217.082V29.3H218.246V33.32H219.482V29.096Z" fill="black"/>
    <path d="M223.957 32.372C223.957 33.32 224.677 33.908 225.661 33.908C226.645 33.908 227.353 33.32 227.353 32.372C227.353 31.424 226.645 30.824 225.661 30.824C224.677 30.824 223.957 31.424 223.957 32.372ZM226.285 34.916V36.584C227.209 36.548 228.133 36.476 228.997 36.356L229.105 37.268C226.837 37.664 224.353 37.676 222.493 37.676L222.325 36.656C223.141 36.656 224.077 36.656 225.049 36.632V34.928C223.705 34.688 222.757 33.704 222.757 32.372C222.757 30.836 223.993 29.768 225.661 29.768C227.329 29.768 228.553 30.836 228.553 32.372C228.553 33.704 227.629 34.676 226.285 34.916ZM232.453 33.464V34.496H230.869V39.92H229.633V29.096H230.869V33.464H232.453Z" fill="black"/>
    <path d="M237.164 34.4L236.72 33.428C238.784 33.152 240.308 31.964 240.38 30.704H237.08V29.708H245.06V30.704H241.784C241.856 31.964 243.38 33.152 245.444 33.428L245 34.4C243.212 34.136 241.736 33.248 241.076 32.048C240.416 33.248 238.952 34.136 237.164 34.4ZM245.984 35.192L245.972 36.188H241.664V39.944H240.428V36.188H236.18V35.192H245.984Z" fill="black"/>
    <path d="M254.551 32.504V30.56H249.667V32.504H254.551ZM255.763 29.576V33.488H248.455V29.576H255.763ZM249.643 36.596V38.72H255.943V39.728H248.407V36.596H249.643ZM247.207 34.556H257.035V35.552H252.835V37.58H251.599V35.552H247.207V34.556Z" fill="black"/>
    <path d="M259.974 30.344V36.14C260.934 36.116 261.978 36.032 263.154 35.816L263.286 36.872C261.834 37.136 260.586 37.196 259.458 37.196H258.738V30.344H259.974ZM266.298 29.096H267.474V39.932H266.298V34.424H265.014V39.392H263.85V29.312H265.014V33.404H266.298V29.096Z" fill="black"/>
    <path d="M270.965 37.04V36.044H278.273V39.944H277.037V37.04H270.965ZM274.985 33.02H277.037V31.628H274.997C275.045 31.844 275.081 32.072 275.081 32.324C275.081 32.564 275.045 32.804 274.985 33.02ZM272.261 33.908C273.197 33.908 273.905 33.272 273.905 32.324C273.905 31.376 273.197 30.728 272.261 30.728C271.325 30.728 270.617 31.376 270.617 32.324C270.617 33.272 271.325 33.908 272.261 33.908ZM277.037 29.096L278.273 29.084V35.504H277.037V34.028H274.469C273.965 34.616 273.173 34.976 272.261 34.964C270.653 34.964 269.441 33.86 269.441 32.324C269.441 30.776 270.653 29.684 272.261 29.684C273.173 29.684 273.965 30.044 274.469 30.62H277.037V29.096Z" fill="black"/>
    <path d="M289.403 30.008V30.908H283.211V30.008H285.695V29H286.943V30.008H289.403ZM284.891 32.864C284.891 33.344 285.443 33.632 286.307 33.632C287.171 33.632 287.723 33.344 287.723 32.864C287.723 32.372 287.171 32.072 286.307 32.072C285.443 32.072 284.891 32.372 284.891 32.864ZM289.703 34.856L289.799 35.72C287.507 36.128 284.975 36.14 283.079 36.152L282.935 35.168C283.751 35.168 284.699 35.168 285.695 35.144V34.424C284.471 34.292 283.727 33.716 283.727 32.864C283.727 31.856 284.747 31.244 286.307 31.244C287.867 31.244 288.887 31.856 288.887 32.864C288.887 33.716 288.143 34.28 286.943 34.424V35.096C287.879 35.048 288.827 34.988 289.703 34.856ZM284.279 37.892V36.908H291.515V39.944H290.279V37.892H284.279ZM293.003 32.3V33.32H291.515V36.428H290.279V29.108H291.515V32.3H293.003Z" fill="black"/>
    <path d="M302.998 29.096V36.968H301.762V29.096H302.998ZM295.486 32.528C295.486 33.512 296.194 34.172 297.154 34.172C298.102 34.172 298.822 33.512 298.822 32.528C298.822 31.532 298.102 30.884 297.154 30.884C296.194 30.884 295.486 31.532 295.486 32.528ZM300.022 32.528C300.022 34.1 298.786 35.24 297.154 35.24C295.522 35.24 294.274 34.1 294.274 32.528C294.274 30.944 295.522 29.816 297.154 29.816C298.786 29.816 300.022 30.944 300.022 32.528ZM297.166 38.72H303.31V39.728H295.918V36.176H297.166V38.72Z" fill="black"/>
    <path d="M309.345 34.148V31.016H306.705V34.148H309.345ZM310.557 30.02V35.144H305.481V30.02H310.557ZM307.953 36.26V38.72H314.001V39.728H306.705V36.26H307.953ZM313.569 32.312H315.105V33.332H313.569V37.028H312.333V29.084H313.569V32.312Z" fill="black"/>
    <path d="M319.372 30.236H324.4C324.4 33.38 323.056 36.164 319.516 37.952L318.832 37.004C321.484 35.648 322.912 33.74 323.164 31.244H319.372V30.236ZM328.876 33.368V34.4H327.232V39.92H325.996V29.084H327.232V33.368H328.876Z" fill="black"/>
    <path d="M338.571 31.976V32.972H331.167V29.3H332.403V31.976H338.571ZM334.755 38.948C336.339 38.948 337.239 38.576 337.239 37.916C337.239 37.232 336.339 36.884 334.755 36.884C333.171 36.884 332.283 37.232 332.283 37.916C332.283 38.576 333.171 38.948 334.755 38.948ZM334.755 35.912C337.083 35.912 338.487 36.644 338.487 37.916C338.487 39.176 337.083 39.908 334.755 39.908C332.439 39.908 331.023 39.176 331.023 37.916C331.023 36.644 332.439 35.912 334.755 35.912ZM329.883 34.064H339.687V35.072H329.883V34.064Z" fill="black"/>
    <path d="M343.562 36.476C344.294 36.476 344.81 35.888 344.81 34.988C344.81 34.088 344.294 33.488 343.562 33.488C342.83 33.488 342.314 34.088 342.314 34.988C342.314 35.888 342.83 36.476 343.562 36.476ZM343.562 32.468C344.93 32.468 345.914 33.488 345.914 34.988C345.914 36.476 344.93 37.508 343.562 37.508C342.194 37.508 341.21 36.476 341.21 34.988C341.21 33.488 342.194 32.468 343.562 32.468ZM344.174 29.408V30.86H346.202V31.856H340.898V30.86H342.95V29.408H344.174ZM348.974 29.096H350.15V39.932H348.974V34.604H347.822V39.428H346.67V29.324H347.822V33.584H348.974V29.096Z" fill="black"/>
    <path d="M355.489 35.24V37.592H358.225V35.228C357.805 35.336 357.337 35.384 356.857 35.384C356.377 35.384 355.909 35.336 355.489 35.24ZM356.857 30.692C355.213 30.692 354.073 31.412 354.073 32.552C354.073 33.704 355.213 34.424 356.857 34.424C358.489 34.424 359.629 33.704 359.629 32.552C359.629 31.412 358.489 30.692 356.857 30.692ZM359.461 37.592H361.777V38.6H351.961V37.592H354.253V34.772C353.389 34.292 352.873 33.512 352.873 32.552C352.873 30.824 354.541 29.72 356.857 29.72C359.161 29.72 360.841 30.824 360.841 32.552C360.841 33.512 360.325 34.28 359.461 34.772V37.592Z" fill="black"/>
    <path d="M364.176 39.164C363.66 39.164 363.252 38.768 363.252 38.204C363.252 37.628 363.66 37.22 364.176 37.22C364.692 37.22 365.1 37.628 365.1 38.204C365.1 38.768 364.692 39.164 364.176 39.164Z" fill="black"/>
    <path d="M54.4528 48.82H56.3728V46.096H57.6088V52.552H56.3728V49.828H54.4528V48.82ZM55.0768 51.232L54.4648 52.204C53.2648 51.784 52.4008 50.932 51.9448 49.888C51.4648 51.076 50.5528 52.036 49.2688 52.492L48.6328 51.508C50.3128 50.908 51.2848 49.468 51.2848 47.98V47.824H48.9928V46.828H54.7888V47.824H52.5328V47.968C52.5328 49.324 53.4568 50.668 55.0768 51.232ZM54.0088 55.984C55.5328 55.984 56.4208 55.6 56.4208 54.892C56.4208 54.184 55.5328 53.8 54.0088 53.8C52.4608 53.8 51.5848 54.184 51.5848 54.892C51.5848 55.6 52.4608 55.984 54.0088 55.984ZM54.0088 52.84C56.2648 52.84 57.6568 53.608 57.6568 54.892C57.6568 56.188 56.2648 56.944 54.0088 56.944C51.7408 56.944 50.3488 56.188 50.3488 54.892C50.3488 53.608 51.7408 52.84 54.0088 52.84Z" fill="black"/>
    <path d="M66.2479 51.016L65.6359 51.988C64.3879 51.556 63.4879 50.704 63.0079 49.624C62.5159 50.8 61.5919 51.736 60.3079 52.18L59.6959 51.208C61.3999 50.62 62.3599 49.156 62.3599 47.644V46.588H63.6199V47.644C63.6199 49.108 64.5799 50.464 66.2479 51.016ZM61.2919 54.1V53.104H68.5999V56.932H67.3639V54.1H61.2919ZM67.3639 46.084H68.5999V52.588H67.3639V46.084Z" fill="black"/>
    <path d="M79.2982 49.024V46.36H80.4502V56.404H79.2982V52.756H77.5222V51.748H79.2982V50.032H77.7142C77.2102 51.856 76.0703 53.428 74.0423 54.64L73.3343 53.764C75.5663 52.408 76.6462 50.644 76.8262 48.424H73.8623V47.428H78.0502C78.0502 47.98 78.0143 48.52 77.9303 49.024H79.2982ZM81.4823 46.096H82.6702V56.932H81.4823V46.096Z" fill="black"/>
    <path d="M90.2653 48.82H92.1853V46.096H93.4213V52.552H92.1853V49.828H90.2653V48.82ZM90.8893 51.232L90.2773 52.204C89.0773 51.784 88.2133 50.932 87.7573 49.888C87.2773 51.076 86.3653 52.036 85.0813 52.492L84.4453 51.508C86.1253 50.908 87.0973 49.468 87.0973 47.98V47.824H84.8053V46.828H90.6013V47.824H88.3453V47.968C88.3453 49.324 89.2693 50.668 90.8893 51.232ZM89.8213 55.984C91.3453 55.984 92.2333 55.6 92.2333 54.892C92.2333 54.184 91.3453 53.8 89.8213 53.8C88.2733 53.8 87.3973 54.184 87.3973 54.892C87.3973 55.6 88.2733 55.984 89.8213 55.984ZM89.8213 52.84C92.0773 52.84 93.4693 53.608 93.4693 54.892C93.4693 56.188 92.0773 56.944 89.8213 56.944C87.5533 56.944 86.1613 56.188 86.1613 54.892C86.1613 53.608 87.5533 52.84 89.8213 52.84Z" fill="black"/>
    <path d="M100.38 47.188C98.7004 47.188 97.8004 47.512 97.8004 48.136C97.8004 48.748 98.7004 49.072 100.38 49.072C102.06 49.072 102.96 48.748 102.96 48.136C102.96 47.512 102.06 47.188 100.38 47.188ZM100.38 49.996C97.9444 49.996 96.5164 49.336 96.5164 48.136C96.5164 46.924 97.9444 46.264 100.38 46.264C102.804 46.264 104.244 46.924 104.244 48.136C104.244 49.336 102.804 49.996 100.38 49.996ZM97.8844 54.988V55.888H104.364V56.836H96.6604V54.112H102.84V53.332H96.6364V52.396H104.052V54.988H97.8844ZM95.4724 50.632H105.288V51.616H95.4724V50.632Z" fill="black"/>
    <path d="M117.895 49.264V50.26H110.443V46.468H117.823V47.464H111.667V49.264H117.895ZM114.091 55.972C115.675 55.972 116.575 55.624 116.575 54.952C116.575 54.292 115.675 53.932 114.091 53.932C112.507 53.932 111.619 54.292 111.619 54.952C111.619 55.624 112.507 55.972 114.091 55.972ZM114.091 52.984C116.419 52.984 117.823 53.704 117.823 54.952C117.823 56.212 116.419 56.932 114.091 56.932C111.775 56.932 110.359 56.212 110.359 54.952C110.359 53.704 111.775 52.984 114.091 52.984ZM109.231 51.16H119.023V52.18H109.231V51.16Z" fill="black"/>
    <path d="M121.35 54.712V53.716H128.898V56.872H127.662V54.712H121.35ZM125.778 51.988H130.074V52.984H120.246V51.988H124.542V51.004H121.506V48.208H127.614V47.296H121.482V46.348H128.838V49.096H122.718V50.056H129.054V51.004H125.778V51.988Z" fill="black"/>
    <path d="M134.453 53.584C135.329 53.584 135.965 52.984 135.965 52.072C135.965 51.16 135.329 50.56 134.453 50.56C133.577 50.56 132.941 51.16 132.941 52.072C132.941 52.984 133.577 53.584 134.453 53.584ZM134.453 49.54C136.001 49.54 137.141 50.596 137.141 52.072C137.141 53.56 136.001 54.604 134.453 54.604C132.893 54.604 131.765 53.56 131.765 52.072C131.765 50.596 132.893 49.54 134.453 49.54ZM135.053 46.264V47.764H137.585V48.772H131.237V47.764H133.817V46.264H135.053ZM141.377 50.452V51.484H139.709V56.944H138.461V46.096H139.709V50.452H141.377Z" fill="black"/>
    <path d="M146.62 51.196V47.98H144.016V51.196H146.62ZM150.076 48.916H147.82V50.236H150.076V48.916ZM147.82 51.232V52.18H142.804V46.996H147.82V47.908H150.076V46.096H151.312V54.004H150.076V51.232H147.82ZM145.504 55.72H151.564V56.728H144.256V53.284H145.504V55.72Z" fill="black"/>
    <path d="M157.834 48.1V53.272C159.598 53.26 160.786 53.2 162.166 52.948L162.286 53.944C160.786 54.232 159.466 54.304 157.45 54.304H156.598V47.092H161.518V48.1H157.834ZM163.834 46.084H165.07V56.956H163.834V50.956H160.93V49.936H163.834V46.084Z" fill="black"/>
    <path d="M174.041 50.272V47.764H171.401V50.272H174.041ZM175.253 46.78V51.256H170.177V46.78H175.253ZM172.049 52.528V55.636C172.673 55.6 173.357 55.504 174.005 55.288L174.209 56.272C173.225 56.608 172.289 56.656 171.413 56.656H170.849V52.528H172.049ZM176.537 56.08C177.077 56.08 177.485 55.828 177.485 55.408C177.485 54.976 177.077 54.736 176.537 54.736C175.985 54.736 175.577 54.976 175.577 55.408C175.577 55.828 175.985 56.08 176.537 56.08ZM176.537 53.872C177.725 53.872 178.577 54.472 178.577 55.408C178.577 56.344 177.725 56.932 176.537 56.932C175.337 56.932 174.485 56.344 174.485 55.408C174.485 54.472 175.337 53.872 176.537 53.872ZM177.137 51.76V52.624H179.249V53.536H173.813V52.624H175.937V51.76H177.137ZM178.265 48.46H179.801V49.48H178.265V51.568H177.029V46.084L178.265 46.096V48.46Z" fill="black"/>
    <path d="M185.74 47.428C184.144 47.428 183.148 47.872 183.148 48.628C183.148 49.396 184.144 49.84 185.74 49.84C187.324 49.84 188.32 49.396 188.32 48.628C188.32 47.872 187.324 47.428 185.74 47.428ZM185.74 50.836C183.4 50.836 181.876 50.008 181.876 48.628C181.876 47.26 183.4 46.432 185.74 46.432C188.08 46.432 189.604 47.26 189.604 48.628C189.604 50.008 188.08 50.836 185.74 50.836ZM183.316 53.572V55.72H189.544V56.728H182.068V53.572H183.316ZM180.832 51.712H190.636V52.72H180.832V51.712Z" fill="black"/>
    <path d="M200.398 48.82H202.318V46.096H203.554V52.552H202.318V49.828H200.398V48.82ZM201.022 51.232L200.41 52.204C199.21 51.784 198.346 50.932 197.89 49.888C197.41 51.076 196.498 52.036 195.214 52.492L194.578 51.508C196.258 50.908 197.23 49.468 197.23 47.98V47.824H194.938V46.828H200.734V47.824H198.478V47.968C198.478 49.324 199.402 50.668 201.022 51.232ZM199.954 55.984C201.478 55.984 202.366 55.6 202.366 54.892C202.366 54.184 201.478 53.8 199.954 53.8C198.406 53.8 197.53 54.184 197.53 54.892C197.53 55.6 198.406 55.984 199.954 55.984ZM199.954 52.84C202.21 52.84 203.602 53.608 203.602 54.892C203.602 56.188 202.21 56.944 199.954 56.944C197.686 56.944 196.294 56.188 196.294 54.892C196.294 53.608 197.686 52.84 199.954 52.84Z" fill="black"/>
    <path d="M207.945 49.636V51.412H213.081V49.636H207.945ZM211.125 54.592H215.433V55.612H205.617V54.592H209.889V52.408H206.721V46.816H207.945V48.64H213.081V46.816H214.305V52.408H211.125V54.592Z" fill="black"/>
    <path d="M218.168 49.372C218.168 50.32 218.888 50.908 219.872 50.908C220.856 50.908 221.564 50.32 221.564 49.372C221.564 48.424 220.856 47.824 219.872 47.824C218.888 47.824 218.168 48.424 218.168 49.372ZM220.496 51.916V53.584C221.42 53.548 222.344 53.476 223.208 53.356L223.316 54.268C221.048 54.664 218.564 54.676 216.704 54.676L216.536 53.656C217.352 53.656 218.288 53.656 219.26 53.632V51.928C217.916 51.688 216.968 50.704 216.968 49.372C216.968 47.836 218.204 46.768 219.872 46.768C221.54 46.768 222.764 47.836 222.764 49.372C222.764 50.704 221.84 51.676 220.496 51.916ZM226.664 50.464V51.496H225.08V56.92H223.844V46.096H225.08V50.464H226.664Z" fill="black"/>
    <path d="M235.611 47.86V48.856H230.367V47.86H232.371V46.384H233.595V47.86H235.611ZM232.971 53.536C233.679 53.536 234.171 52.948 234.171 52.036C234.171 51.112 233.679 50.512 232.971 50.512C232.263 50.512 231.771 51.112 231.771 52.036C231.771 52.948 232.263 53.536 232.971 53.536ZM236.427 49.684V46.312H237.591V56.428H236.427V53.2H235.047C234.675 54.052 233.919 54.58 232.971 54.568C231.639 54.568 230.691 53.524 230.691 52.036C230.691 50.512 231.639 49.468 232.971 49.468C234.303 49.468 235.263 50.512 235.263 52.036C235.263 52.084 235.263 52.144 235.263 52.204H236.427V50.68H235.083V49.684H236.427ZM238.467 46.096H239.643V56.944H238.467V46.096Z" fill="black"/>
    <path d="M246.398 50.908L246.53 51.916C245.282 52.144 244.25 52.18 242.57 52.18H241.838V46.864H246.062V47.86H243.038V49H245.942V49.96H243.038V51.172C244.406 51.16 245.33 51.112 246.398 50.908ZM243.242 54.208V53.212H250.598V56.944H249.362V54.208H243.242ZM249.422 46.096H250.598V52.684H249.422V49.852H248.222V52.612H247.07V46.3H248.222V48.844H249.422V46.096Z" fill="black"/>
    <path d="M257.365 47.188C255.685 47.188 254.785 47.512 254.785 48.136C254.785 48.748 255.685 49.072 257.365 49.072C259.045 49.072 259.945 48.748 259.945 48.136C259.945 47.512 259.045 47.188 257.365 47.188ZM257.365 49.996C254.929 49.996 253.501 49.336 253.501 48.136C253.501 46.924 254.929 46.264 257.365 46.264C259.789 46.264 261.229 46.924 261.229 48.136C261.229 49.336 259.789 49.996 257.365 49.996ZM254.869 54.988V55.888H261.349V56.836H253.645V54.112H259.825V53.332H253.621V52.396H261.037V54.988H254.869ZM252.457 50.632H262.273V51.616H252.457V50.632Z" fill="black"/>
    <path d="M274.927 49.612V50.608H267.439V46.6H268.675V49.612H274.927ZM276.019 52.06V53.08H271.687V56.944H270.439V53.08H266.191V52.06H276.019Z" fill="black"/>
    <path d="M286.17 46.096V51.772H284.934V46.096H286.17ZM283.806 50.188L283.926 51.148C282.306 51.4 280.938 51.448 278.682 51.448H277.77V48.52H281.538V47.548H277.758V46.6H282.762V49.408H278.994V50.488C281.034 50.488 282.306 50.428 283.806 50.188ZM280.338 55.876H286.494V56.836H279.09V54.028H284.91V53.164H279.066V52.228H286.17V54.916H280.338V55.876Z" fill="black"/>
    <path d="M300.349 50.092L299.869 51.088C298.069 50.8 296.593 49.888 295.885 48.64C295.189 49.9 293.689 50.8 291.889 51.088L291.409 50.092C293.617 49.78 295.225 48.448 295.225 47.02V46.444H296.533V47.02C296.533 48.424 298.165 49.78 300.349 50.092ZM300.769 52.108V53.116H296.461V56.944H295.225V53.116H290.977V52.108H300.769Z" fill="black"/>
    <path d="M313.639 46.108V52.264H312.403V46.108H313.639ZM307.795 47.716C306.835 47.716 306.127 48.328 306.127 49.252C306.127 50.188 306.835 50.788 307.795 50.788C308.755 50.788 309.463 50.188 309.463 49.252C309.463 48.328 308.755 47.716 307.795 47.716ZM307.795 51.808C306.139 51.808 304.915 50.764 304.915 49.252C304.915 47.74 306.139 46.696 307.795 46.696C309.451 46.696 310.663 47.74 310.663 49.252C310.663 50.764 309.451 51.808 307.795 51.808ZM312.487 52.732V53.212C312.487 54.328 313.195 55.42 314.599 55.876L313.987 56.788C312.943 56.416 312.235 55.72 311.863 54.844C311.515 55.696 310.867 56.476 309.883 56.884C308.863 56.488 308.227 55.744 307.891 54.868C307.495 55.72 306.799 56.416 305.791 56.788L305.191 55.876C306.571 55.384 307.291 54.268 307.291 53.212V52.732H308.491V53.212C308.491 54.124 308.911 55.096 309.859 55.696C310.819 55.048 311.275 54.028 311.275 53.212V52.732H312.487Z" fill="black"/>
    <path d="M318.666 53.428C319.602 53.428 320.238 52.42 320.238 50.704C320.238 49.024 319.602 48.004 318.666 48.004C317.742 48.004 317.106 49.024 317.106 50.704C317.106 52.42 317.742 53.428 318.666 53.428ZM323.502 46.084H324.75V56.956H323.502V51.136H321.402C321.258 53.236 320.154 54.532 318.666 54.532C317.07 54.532 315.93 53.056 315.93 50.704C315.93 48.376 317.07 46.888 318.666 46.888C320.118 46.888 321.222 48.136 321.39 50.128H323.502V46.084Z" fill="black"/>
    <path d="M330.317 52.24V54.592H333.053V52.228C332.633 52.336 332.165 52.384 331.685 52.384C331.205 52.384 330.737 52.336 330.317 52.24ZM331.685 47.692C330.041 47.692 328.901 48.412 328.901 49.552C328.901 50.704 330.041 51.424 331.685 51.424C333.317 51.424 334.457 50.704 334.457 49.552C334.457 48.412 333.317 47.692 331.685 47.692ZM334.289 54.592H336.605V55.6H326.789V54.592H329.081V51.772C328.217 51.292 327.701 50.512 327.701 49.552C327.701 47.824 329.369 46.72 331.685 46.72C333.989 46.72 335.669 47.824 335.669 49.552C335.669 50.512 335.153 51.28 334.289 51.772V54.592Z" fill="black"/>
    <path d="M338.812 53.188L338.62 48.388L338.584 46.96H339.976L339.928 48.388L339.736 53.188H338.812ZM339.268 56.164C338.752 56.164 338.356 55.768 338.356 55.204C338.356 54.628 338.752 54.22 339.268 54.22C339.796 54.22 340.204 54.628 340.204 55.204C340.204 55.768 339.796 56.164 339.268 56.164Z" fill="black"/>
  </g>
</svg>