<svg width="297" height="108" viewBox="0 0 297 108" fill="none" xmlns="http://www.w3.org/2000/svg">
<path opacity="0.5" d="M6.94205 97.788H9.23405V98.82H6.94205V97.788ZM8.87405 95.028H10.134V101.556H8.87405V95.028ZM6.47405 101.844C8.76605 101.844 10.17 102.624 10.17 103.92C10.17 105.24 8.76605 105.996 6.47405 105.996C4.18205 105.996 2.77805 105.24 2.77805 103.92C2.77805 102.624 4.18205 101.844 6.47405 101.844ZM6.47405 102.816C4.92605 102.816 4.02605 103.2 4.02605 103.92C4.02605 104.64 4.92605 105.024 6.47405 105.024C8.03405 105.024 8.92205 104.64 8.92205 103.92C8.92205 103.2 8.03405 102.816 6.47405 102.816ZM3.72605 96.132H4.74605V96.936C4.74605 98.988 3.63005 100.8 1.68605 101.496L1.03805 100.5C2.75405 99.9 3.72605 98.436 3.72605 96.936V96.132ZM3.97805 96.132H4.98605V96.924C4.98605 98.292 5.92205 99.648 7.56605 100.212L6.94205 101.208C5.04605 100.548 3.97805 98.82 3.97805 96.924V96.132ZM1.39805 95.772H7.27805V96.78H1.39805V95.772ZM14.8131 95.544H15.8571V96.6C15.8571 98.676 14.7171 100.5 12.7371 101.196L12.1131 100.2C13.8531 99.6 14.8131 98.124 14.8131 96.6V95.544ZM15.0531 95.544H16.0851V96.6C16.0851 98.076 17.0451 99.456 18.7491 100.008L18.1251 101.004C16.1691 100.332 15.0531 98.628 15.0531 96.6V95.544ZM13.7331 102.12H21.1251V105.996H19.8651V103.14H13.7331V102.12ZM19.8651 95.028H21.1251V101.604H19.8651V95.028ZM30.0595 98.004H32.3995V99.012H30.0595V98.004ZM29.9875 100.752H32.3635V101.76H29.9875V100.752ZM33.9835 95.028H35.1955V105.996H33.9835V95.028ZM31.7635 95.292H32.9395V105.468H31.7635V95.292ZM29.3035 96.372H30.5155C30.5155 99.348 29.4595 101.892 26.4595 103.668L25.7395 102.78C28.2715 101.256 29.3035 99.228 29.3035 96.612V96.372ZM26.2915 96.372H29.7595V97.392H26.2915V96.372ZM42.7545 97.788H45.0465V98.82H42.7545V97.788ZM44.6865 95.028H45.9465V101.556H44.6865V95.028ZM42.2865 101.844C44.5785 101.844 45.9825 102.624 45.9825 103.92C45.9825 105.24 44.5785 105.996 42.2865 105.996C39.9945 105.996 38.5905 105.24 38.5905 103.92C38.5905 102.624 39.9945 101.844 42.2865 101.844ZM42.2865 102.816C40.7385 102.816 39.8385 103.2 39.8385 103.92C39.8385 104.64 40.7385 105.024 42.2865 105.024C43.8465 105.024 44.7345 104.64 44.7345 103.92C44.7345 103.2 43.8465 102.816 42.2865 102.816ZM39.5385 96.132H40.5585V96.936C40.5585 98.988 39.4425 100.8 37.4985 101.496L36.8505 100.5C38.5665 99.9 39.5385 98.436 39.5385 96.936V96.132ZM39.7905 96.132H40.7985V96.924C40.7985 98.292 41.7345 99.648 43.3785 100.212L42.7545 101.208C40.8585 100.548 39.7905 98.82 39.7905 96.924V96.132ZM37.2105 95.772H43.0905V96.78H37.2105V95.772ZM52.8456 95.196C55.3056 95.196 56.7576 95.868 56.7576 97.092C56.7576 98.304 55.3056 98.976 52.8456 98.976C50.3856 98.976 48.9456 98.304 48.9456 97.092C48.9456 95.868 50.3856 95.196 52.8456 95.196ZM52.8456 96.132C51.1536 96.132 50.2416 96.468 50.2416 97.092C50.2416 97.716 51.1536 98.04 52.8456 98.04C54.5496 98.04 55.4496 97.716 55.4496 97.092C55.4496 96.468 54.5496 96.132 52.8456 96.132ZM47.8896 99.612H57.8016V100.608H47.8896V99.612ZM49.0656 101.412H56.5656V104.028H50.3256V105.204H49.0776V103.14H55.3296V102.348H49.0656V101.412ZM49.0776 104.928H56.8776V105.9H49.0776V104.928ZM61.636 100.152H71.548V101.184H61.636V100.152ZM62.86 98.232H70.408V99.24H62.86V98.232ZM62.86 95.4H70.336V96.42H64.108V98.724H62.86V95.4ZM66.568 102C68.92 102 70.348 102.72 70.348 103.992C70.348 105.264 68.92 105.984 66.568 105.984C64.216 105.984 62.788 105.264 62.788 103.992C62.788 102.72 64.216 102 66.568 102ZM66.568 102.96C64.96 102.96 64.06 103.32 64.06 103.992C64.06 104.664 64.96 105.012 66.568 105.012C68.176 105.012 69.076 104.664 69.076 103.992C69.076 103.32 68.176 102.96 66.568 102.96ZM72.663 100.992H82.599V102H72.663V100.992ZM73.911 95.28H81.351V98.076H75.171V99.42H73.923V97.164H80.115V96.24H73.911V95.28ZM73.923 99.036H81.579V100.008H73.923V99.036ZM77.007 99.516H78.255V101.52H77.007V99.516ZM73.767 102.744H81.423V105.924H80.163V103.752H73.767V102.744ZM90.9621 95.028H92.2101V105.996H90.9621V95.028ZM91.9221 99.432H93.9141V100.476H91.9221V99.432ZM83.6541 96.72H90.0861V97.728H83.6541V96.72ZM86.9061 98.52C88.4661 98.52 89.6181 99.576 89.6181 101.076C89.6181 102.588 88.4661 103.644 86.9061 103.644C85.3341 103.644 84.1821 102.588 84.1821 101.076C84.1821 99.576 85.3341 98.52 86.9061 98.52ZM86.9061 99.552C86.0181 99.552 85.3821 100.152 85.3821 101.076C85.3821 102 86.0181 102.612 86.9061 102.612C87.7821 102.612 88.4181 102 88.4181 101.076C88.4181 100.152 87.7821 99.552 86.9061 99.552ZM86.2581 95.184H87.5181V97.14H86.2581V95.184ZM100.021 96.864H102.949V97.884H100.021V96.864ZM100.021 99.216H102.985V100.236H100.021V99.216ZM95.2212 95.952H100.309V101.184H95.2212V95.952ZM99.0732 96.948H96.4572V100.188H99.0732V96.948ZM102.577 95.04H103.837V103.032H102.577V95.04ZM96.6972 104.76H104.089V105.78H96.6972V104.76ZM96.6972 102.3H97.9572V105.264H96.6972V102.3ZM109.016 102.288H109.88C111.872 102.288 113.168 102.24 114.644 101.964L114.776 102.984C113.24 103.272 111.92 103.332 109.88 103.332H109.016V102.288ZM109.016 96.036H113.996V97.056H110.276V102.684H109.016V96.036ZM116.336 95.028H117.596V106.02H116.336V95.028ZM113.396 98.916H116.864V99.948H113.396V98.916ZM129.518 95.028H130.778V100.56H129.518V95.028ZM130.262 97.416H132.326V98.448H130.262V97.416ZM122.606 95.724H127.73V100.248H122.606V95.724ZM126.494 96.72H123.842V99.252H126.494V96.72ZM123.278 104.688H123.842C124.634 104.688 125.594 104.628 126.47 104.328L126.662 105.324C125.678 105.66 124.73 105.708 123.842 105.708H123.278V104.688ZM123.278 101.532H124.502V104.952H123.278V101.532ZM126.278 101.64H131.762V102.552H126.278V101.64ZM129.026 102.9C130.238 102.9 131.09 103.5 131.09 104.436C131.09 105.396 130.238 105.984 129.026 105.984C127.802 105.984 126.95 105.396 126.95 104.436C126.95 103.5 127.802 102.9 129.026 102.9ZM129.026 103.776C128.462 103.776 128.066 104.016 128.066 104.436C128.066 104.868 128.462 105.12 129.026 105.12C129.566 105.12 129.974 104.868 129.974 104.436C129.974 104.016 129.566 103.776 129.026 103.776ZM128.414 100.764H129.638V102.3H128.414V100.764ZM133.249 100.716H143.161V101.724H133.249V100.716ZM134.497 104.76H142.057V105.78H134.497V104.76ZM134.497 102.588H135.757V105.072H134.497V102.588ZM138.205 95.376C140.569 95.376 142.117 96.216 142.117 97.596C142.117 98.976 140.569 99.816 138.205 99.816C135.841 99.816 134.305 98.976 134.305 97.596C134.305 96.216 135.841 95.376 138.205 95.376ZM138.205 96.384C136.597 96.384 135.601 96.828 135.601 97.596C135.601 98.376 136.597 98.808 138.205 98.808C139.825 98.808 140.821 98.376 140.821 97.596C140.821 96.828 139.825 96.384 138.205 96.384ZM152.887 97.788H155.179V98.82H152.887V97.788ZM154.819 95.028H156.079V101.556H154.819V95.028ZM152.419 101.844C154.711 101.844 156.115 102.624 156.115 103.92C156.115 105.24 154.711 105.996 152.419 105.996C150.127 105.996 148.723 105.24 148.723 103.92C148.723 102.624 150.127 101.844 152.419 101.844ZM152.419 102.816C150.871 102.816 149.971 103.2 149.971 103.92C149.971 104.64 150.871 105.024 152.419 105.024C153.979 105.024 154.867 104.64 154.867 103.92C154.867 103.2 153.979 102.816 152.419 102.816ZM149.671 96.132H150.691V96.936C150.691 98.988 149.575 100.8 147.631 101.496L146.983 100.5C148.699 99.9 149.671 98.436 149.671 96.936V96.132ZM149.923 96.132H150.931V96.924C150.931 98.292 151.867 99.648 153.511 100.212L152.887 101.208C150.991 100.548 149.923 98.82 149.923 96.924V96.132ZM147.343 95.772H153.223V96.78H147.343V95.772ZM158.034 103.62H167.97V104.652H158.034V103.62ZM162.354 101.124H163.602V103.896H162.354V101.124ZM159.138 95.772H160.398V97.608H165.57V95.772H166.818V101.424H159.138V95.772ZM160.398 98.604V100.404H165.57V98.604H160.398ZM171.701 100.572H172.961V103.176H171.701V100.572ZM172.325 95.712C174.005 95.712 175.253 96.792 175.253 98.34C175.253 99.888 174.005 100.968 172.325 100.968C170.621 100.968 169.385 99.888 169.385 98.34C169.385 96.792 170.621 95.712 172.325 95.712ZM172.325 96.78C171.329 96.78 170.609 97.392 170.609 98.34C170.609 99.288 171.329 99.9 172.325 99.9C173.309 99.9 174.029 99.288 174.029 98.34C174.029 97.392 173.309 96.78 172.325 96.78ZM176.333 95.028H177.593V105.996H176.333V95.028ZM177.221 99.444H179.201V100.488H177.221V99.444ZM169.109 103.704L168.941 102.684C170.885 102.672 173.489 102.672 175.697 102.372L175.793 103.296C173.501 103.704 170.993 103.716 169.109 103.704ZM190.968 95.028H192.168V105.996H190.968V95.028ZM188.904 95.244H190.08V105.48H188.904V95.244ZM187.548 98.664H189.444V99.672H187.548V98.664ZM187.464 101.196H189.372V102.204H187.464V101.196ZM182.784 96.804H188.076V97.812H182.784V96.804ZM185.412 98.448C186.756 98.448 187.728 99.504 187.728 101.028C187.728 102.552 186.756 103.62 185.412 103.62C184.08 103.62 183.096 102.552 183.096 101.028C183.096 99.504 184.08 98.448 185.412 98.448ZM185.412 99.516C184.704 99.516 184.2 100.104 184.2 101.028C184.2 101.952 184.704 102.552 185.412 102.552C186.12 102.552 186.624 101.952 186.624 101.028C186.624 100.104 186.12 99.516 185.412 99.516ZM184.812 95.304H186.048V97.404H184.812V95.304ZM194.267 100.164H194.987C196.655 100.164 197.675 100.128 198.887 99.9L199.007 100.92C197.747 101.148 196.691 101.196 194.987 101.196H194.267V100.164ZM194.267 95.796H198.539V96.816H195.479V100.728H194.267V95.796ZM195.107 97.968H198.419V98.928H195.107V97.968ZM201.935 95.028H203.123V101.7H201.935V95.028ZM200.363 97.812H202.283V98.832H200.363V97.812ZM199.547 95.232H200.723V101.628H199.547V95.232ZM195.695 102.228H203.123V105.996H201.875V103.248H195.695V102.228ZM209.83 95.196C212.29 95.196 213.742 95.868 213.742 97.092C213.742 98.304 212.29 98.976 209.83 98.976C207.37 98.976 205.93 98.304 205.93 97.092C205.93 95.868 207.37 95.196 209.83 95.196ZM209.83 96.132C208.138 96.132 207.226 96.468 207.226 97.092C207.226 97.716 208.138 98.04 209.83 98.04C211.534 98.04 212.434 97.716 212.434 97.092C212.434 96.468 211.534 96.132 209.83 96.132ZM204.874 99.612H214.786V100.608H204.874V99.612ZM206.05 101.412H213.55V104.028H207.31V105.204H206.062V103.14H212.314V102.348H206.05V101.412ZM206.062 104.928H213.862V105.9H206.062V104.928ZM219.868 98.592H227.452V99.6H219.868V98.592ZM218.62 101.076H228.556V102.096H218.62V101.076ZM222.916 101.652H224.164V105.996H222.916V101.652ZM219.868 95.556H221.128V99.072H219.868V95.556ZM230.199 99.456H231.111C233.367 99.456 234.699 99.42 236.295 99.168L236.415 100.128C234.783 100.392 233.403 100.44 231.111 100.44H230.199V99.456ZM230.175 95.544H235.239V98.388H231.435V99.924H230.199V97.488H234.003V96.504H230.175V95.544ZM231.507 101.22H238.695V103.956H232.791V105.336H231.531V103.056H237.411V102.18H231.507V101.22ZM231.531 104.928H239.019V105.9H231.531V104.928ZM237.435 95.028H238.695V100.764H237.435V95.028ZM247.69 95.388H248.794V95.952C248.794 98.052 246.862 99.684 244.33 100.092L243.838 99.072C246.058 98.76 247.69 97.392 247.69 95.952V95.388ZM247.918 95.388H249.01V95.952C249.01 97.368 250.654 98.76 252.874 99.072L252.382 100.092C249.85 99.684 247.918 98.04 247.918 95.952V95.388ZM247.69 101.892H248.938V105.996H247.69V101.892ZM243.394 101.1H253.306V102.132H243.394V101.1ZM259.732 101.736H260.692V102.228C260.692 103.764 259.864 105.24 258.22 105.84L257.608 104.916C259.012 104.424 259.732 103.284 259.732 102.228V101.736ZM260.032 101.736H260.944V102.228C260.944 103.308 261.556 104.46 262.876 105L262.36 105.948C260.704 105.312 260.032 103.752 260.032 102.228V101.736ZM263.764 101.736H264.676V102.228C264.676 103.62 263.98 105.276 262.36 105.948L261.844 105C263.152 104.412 263.764 103.188 263.764 102.228V101.736ZM264.04 101.736H265V102.228C265 103.356 265.708 104.46 267.124 104.916L266.512 105.84C264.844 105.264 264.04 103.836 264.04 102.228V101.736ZM264.904 95.04H266.164V101.268H264.904V95.04ZM260.248 95.64C261.928 95.64 263.152 96.696 263.152 98.232C263.152 99.744 261.928 100.812 260.248 100.812C258.568 100.812 257.332 99.744 257.332 98.232C257.332 96.696 258.568 95.64 260.248 95.64ZM260.248 96.684C259.276 96.684 258.556 97.296 258.556 98.232C258.556 99.168 259.276 99.768 260.248 99.768C261.22 99.768 261.928 99.168 261.928 98.232C261.928 97.296 261.22 96.684 260.248 96.684ZM271.119 95.832C272.739 95.832 273.891 97.332 273.891 99.696C273.891 102.06 272.739 103.572 271.119 103.572C269.499 103.572 268.347 102.06 268.347 99.696C268.347 97.332 269.499 95.832 271.119 95.832ZM271.119 96.972C270.183 96.972 269.547 97.992 269.547 99.696C269.547 101.412 270.183 102.444 271.119 102.444C272.067 102.444 272.703 101.412 272.703 99.696C272.703 97.992 272.067 96.972 271.119 96.972ZM276.015 95.016H277.263V106.008H276.015V95.016ZM273.507 99.108H276.555V100.116H273.507V99.108ZM281.522 100.644H282.77V103.824H281.522V100.644ZM285.542 100.644H286.802V103.824H285.542V100.644ZM279.206 103.62H289.142V104.652H279.206V103.62ZM284.15 95.652C286.49 95.652 288.182 96.78 288.182 98.532C288.182 100.272 286.49 101.4 284.15 101.4C281.81 101.4 280.118 100.272 280.118 98.532C280.118 96.78 281.81 95.652 284.15 95.652ZM284.15 96.636C282.494 96.636 281.342 97.368 281.342 98.532C281.342 99.684 282.494 100.416 284.15 100.416C285.806 100.416 286.958 99.684 286.958 98.532C286.958 97.368 285.806 96.636 284.15 96.636ZM293.985 102.192L293.781 97.392L293.745 95.952H295.137L295.101 97.392L294.909 102.192H293.985ZM294.441 105.168C293.925 105.168 293.517 104.76 293.517 104.196C293.517 103.62 293.925 103.224 294.441 103.224C294.969 103.224 295.365 103.62 295.365 104.196C295.365 104.76 294.969 105.168 294.441 105.168Z" fill="black"/>
<mask id="mask0_348_3" style="mask-type:alpha" maskUnits="userSpaceOnUse" x="104" y="0" width="89" height="91">
<rect x="104" width="89" height="91" fill="#D9D9D9"/>
</mask>
<g mask="url(#mask0_348_3)">
<path d="M148.5 66.3542C152.703 66.3542 156.519 65.1377 159.949 62.7047C163.38 60.2717 165.867 57.0646 167.412 53.0833H129.587C131.133 57.0646 133.62 60.2717 137.05 62.7047C140.481 65.1377 144.297 66.3542 148.5 66.3542ZM132.925 41.7083L137.004 37.7271L140.898 41.7083L144.792 37.7271L137.004 29.575L129.031 37.7271L132.925 41.7083ZM156.102 41.7083L159.996 37.7271L164.075 41.7083L167.969 37.7271L159.996 29.575L152.208 37.7271L156.102 41.7083ZM148.5 83.4167C143.37 83.4167 138.549 82.4213 134.037 80.4307C129.526 78.4401 125.601 75.7385 122.264 72.326C118.926 68.9135 116.284 64.9007 114.337 60.2875C112.39 55.6743 111.417 50.7451 111.417 45.5C111.417 40.2549 112.39 35.3257 114.337 30.7125C116.284 26.0993 118.926 22.0865 122.264 18.674C125.601 15.2615 129.526 12.5599 134.037 10.5693C138.549 8.57864 143.37 7.58333 148.5 7.58333C153.63 7.58333 158.451 8.57864 162.962 10.5693C167.474 12.5599 171.399 15.2615 174.736 18.674C178.074 22.0865 180.716 26.0993 182.663 30.7125C184.61 35.3257 185.583 40.2549 185.583 45.5C185.583 50.7451 184.61 55.6743 182.663 60.2875C180.716 64.9007 178.074 68.9135 174.736 72.326C171.399 75.7385 167.474 78.4401 162.962 80.4307C158.451 82.4213 153.63 83.4167 148.5 83.4167Z" fill="#FF916F" fill-opacity="0.45"/>
</g>
</svg>
