<svg width="26" height="24" viewBox="0 0 26 24" fill="none" xmlns="http://www.w3.org/2000/svg">
<mask id="mask0_340_2" style="mask-type:alpha" maskUnits="userSpaceOnUse" x="2" y="0" width="24" height="24">
<rect x="2" width="24" height="24" fill="#D9D9D9"/>
</mask>
<g mask="url(#mask0_340_2)">
<path d="M18 21L17.7 19.5C17.5 19.4167 17.3125 19.3292 17.1375 19.2375C16.9625 19.1458 16.7833 19.0333 16.6 18.9L15.15 19.35L14.15 17.65L15.3 16.65C15.2667 16.4167 15.25 16.2 15.25 16C15.25 15.8 15.2667 15.5833 15.3 15.35L14.15 14.35L15.15 12.65L16.6 13.1C16.7833 12.9667 16.9625 12.8542 17.1375 12.7625C17.3125 12.6708 17.5 12.5833 17.7 12.5L18 11H20L20.3 12.5C20.5 12.5833 20.6875 12.675 20.8625 12.775C21.0375 12.875 21.2167 13 21.4 13.15L22.85 12.65L23.85 14.4L22.7 15.4C22.7333 15.6 22.75 15.8083 22.75 16.025C22.75 16.2417 22.7333 16.45 22.7 16.65L23.85 17.65L22.85 19.35L21.4 18.9C21.2167 19.0333 21.0375 19.1458 20.8625 19.2375C20.6875 19.3292 20.5 19.4167 20.3 19.5L20 21H18ZM4 20V17.2C4 16.65 4.14167 16.1333 4.425 15.65C4.70833 15.1667 5.1 14.8 5.6 14.55C6.45 14.1167 7.40833 13.75 8.475 13.45C9.54167 13.15 10.7167 13 12 13H12.35C12.45 13 12.55 13.0167 12.65 13.05C12.1667 14.25 11.9667 15.4417 12.05 16.625C12.1333 17.8083 12.5333 18.9333 13.25 20H4ZM19 18C19.55 18 20.0208 17.8042 20.4125 17.4125C20.8042 17.0208 21 16.55 21 16C21 15.45 20.8042 14.9792 20.4125 14.5875C20.0208 14.1958 19.55 14 19 14C18.45 14 17.9792 14.1958 17.5875 14.5875C17.1958 14.9792 17 15.45 17 16C17 16.55 17.1958 17.0208 17.5875 17.4125C17.9792 17.8042 18.45 18 19 18ZM12 12C10.9 12 9.95833 11.6083 9.175 10.825C8.39167 10.0417 8 9.1 8 8C8 6.9 8.39167 5.95833 9.175 5.175C9.95833 4.39167 10.9 4 12 4C13.1 4 14.0417 4.39167 14.825 5.175C15.6083 5.95833 16 6.9 16 8C16 9.1 15.6083 10.0417 14.825 10.825C14.0417 11.6083 13.1 12 12 12Z" fill="#1C1B1F"/>
</g>
<mask id="mask1_340_2" style="mask-type:alpha" maskUnits="userSpaceOnUse" x="0" y="0" width="24" height="24">
<rect width="24" height="24" fill="#D9D9D9"/>
</mask>
<g mask="url(#mask1_340_2)">
<path d="M16 21L15.7 19.5C15.5 19.4167 15.3125 19.3292 15.1375 19.2375C14.9625 19.1458 14.7833 19.0333 14.6 18.9L13.15 19.35L12.15 17.65L13.3 16.65C13.2667 16.4167 13.25 16.2 13.25 16C13.25 15.8 13.2667 15.5833 13.3 15.35L12.15 14.35L13.15 12.65L14.6 13.1C14.7833 12.9667 14.9625 12.8542 15.1375 12.7625C15.3125 12.6708 15.5 12.5833 15.7 12.5L16 11H18L18.3 12.5C18.5 12.5833 18.6875 12.675 18.8625 12.775C19.0375 12.875 19.2167 13 19.4 13.15L20.85 12.65L21.85 14.4L20.7 15.4C20.7333 15.6 20.75 15.8083 20.75 16.025C20.75 16.2417 20.7333 16.45 20.7 16.65L21.85 17.65L20.85 19.35L19.4 18.9C19.2167 19.0333 19.0375 19.1458 18.8625 19.2375C18.6875 19.3292 18.5 19.4167 18.3 19.5L18 21H16ZM2 20V17.2C2 16.65 2.14167 16.1333 2.425 15.65C2.70833 15.1667 3.1 14.8 3.6 14.55C4.45 14.1167 5.40833 13.75 6.475 13.45C7.54167 13.15 8.71667 13 10 13H10.35C10.45 13 10.55 13.0167 10.65 13.05C10.1667 14.25 9.96667 15.4417 10.05 16.625C10.1333 17.8083 10.5333 18.9333 11.25 20H2ZM17 18C17.55 18 18.0208 17.8042 18.4125 17.4125C18.8042 17.0208 19 16.55 19 16C19 15.45 18.8042 14.9792 18.4125 14.5875C18.0208 14.1958 17.55 14 17 14C16.45 14 15.9792 14.1958 15.5875 14.5875C15.1958 14.9792 15 15.45 15 16C15 16.55 15.1958 17.0208 15.5875 17.4125C15.9792 17.8042 16.45 18 17 18ZM10 12C8.9 12 7.95833 11.6083 7.175 10.825C6.39167 10.0417 6 9.1 6 8C6 6.9 6.39167 5.95833 7.175 5.175C7.95833 4.39167 8.9 4 10 4C11.1 4 12.0417 4.39167 12.825 5.175C13.6083 5.95833 14 6.9 14 8C14 9.1 13.6083 10.0417 12.825 10.825C12.0417 11.6083 11.1 12 10 12Z" fill="#FF916F"/>
</g>
</svg>
