<svg width="366" height="359" viewBox="0 0 366 359" fill="none" xmlns="http://www.w3.org/2000/svg">
<path d="M0 10C0 4.47716 4.47715 0 10 0H356C361.523 0 366 4.47715 366 10V230C366 235.523 361.523 240 356 240H10C4.47716 240 0 235.523 0 230V10Z" fill="#F5F5F5"/>
<line x1="9.99844" y1="35.5" x2="353.998" y2="34.4284" stroke="black"/>
<line x1="9.99844" y1="35.5" x2="353.998" y2="34.4284" stroke="#FF916F"/>
<path d="M24.6244 19.875H27.0994V21.18H24.6244V19.875ZM23.4694 14.52H25.0444V28.23H23.4694V14.52ZM14.9044 15.855H16.4644V24.36H14.9044V15.855ZM14.9044 23.505H16.0294C18.0244 23.505 20.1244 23.37 22.3594 22.92L22.5394 24.21C20.2294 24.69 18.0844 24.825 16.0294 24.825H14.9044V23.505ZM32.6482 15.495C34.7932 15.495 36.3532 16.845 36.3532 18.78C36.3532 20.73 34.7932 22.08 32.6482 22.08C30.5032 22.08 28.9132 20.73 28.9132 18.78C28.9132 16.845 30.5032 15.495 32.6482 15.495ZM32.6482 16.845C31.3882 16.845 30.4582 17.595 30.4582 18.78C30.4582 19.965 31.3882 20.73 32.6482 20.73C33.8932 20.73 34.8232 19.965 34.8232 18.78C34.8232 17.595 33.8932 16.845 32.6482 16.845ZM37.9282 14.52H39.5032V28.26H37.9282V14.52ZM28.4782 25.365L28.2832 24.075C30.7432 24.075 34.1482 24.045 37.1032 23.61L37.2232 24.75C34.1932 25.335 30.8932 25.365 28.4782 25.365ZM48.6162 22.35H50.1762V25.98H48.6162V22.35ZM53.0112 22.35H54.5712V25.98H53.0112V22.35ZM45.3912 25.275H57.8112V26.565H45.3912V25.275ZM50.7012 15.36H52.0662V16.38C52.0662 19.245 49.5612 21.555 46.3962 22.125L45.7512 20.835C48.4962 20.385 50.7012 18.435 50.7012 16.38V15.36ZM50.9862 15.36H52.3662V16.38C52.3662 18.45 54.5562 20.4 57.3162 20.835L56.6712 22.125C53.5062 21.54 50.9862 19.26 50.9862 16.38V15.36ZM59.79 15.645H67.155V16.92H59.79V15.645ZM59.595 22.095L59.415 20.79C61.74 20.79 65.025 20.76 67.74 20.4L67.86 21.555C65.085 22.035 61.875 22.095 59.595 22.095ZM61.02 16.605H62.52V21.39H61.02V16.605ZM64.395 16.605H65.925V21.39H64.395V16.605ZM68.91 14.55H70.485V22.875H68.91V14.55ZM65.925 23.16C68.805 23.16 70.575 24.09 70.575 25.68C70.575 27.3 68.805 28.23 65.925 28.23C63.045 28.23 61.29 27.3 61.29 25.68C61.29 24.09 63.045 23.16 65.925 23.16ZM65.925 24.375C63.96 24.375 62.85 24.84 62.85 25.68C62.85 26.55 63.96 27.015 65.925 27.015C67.89 27.015 69 26.55 69 25.68C69 24.84 67.89 24.375 65.925 24.375ZM83.723 17.985H86.588V19.275H83.723V17.985ZM86.138 14.535H87.713V22.695H86.138V14.535ZM83.138 23.055C86.003 23.055 87.758 24.03 87.758 25.65C87.758 27.3 86.003 28.245 83.138 28.245C80.273 28.245 78.518 27.3 78.518 25.65C78.518 24.03 80.273 23.055 83.138 23.055ZM83.138 24.27C81.203 24.27 80.078 24.75 80.078 25.65C80.078 26.55 81.203 27.03 83.138 27.03C85.088 27.03 86.198 26.55 86.198 25.65C86.198 24.75 85.088 24.27 83.138 24.27ZM79.703 15.915H80.978V16.92C80.978 19.485 79.583 21.75 77.153 22.62L76.343 21.375C78.488 20.625 79.703 18.795 79.703 16.92V15.915ZM80.018 15.915H81.278V16.905C81.278 18.615 82.448 20.31 84.503 21.015L83.723 22.26C81.353 21.435 80.018 19.275 80.018 16.905V15.915ZM76.793 15.465H84.143V16.725H76.793V15.465ZM90.1568 25.275H102.577V26.565H90.1568V25.275ZM95.5568 22.155H97.1168V25.62H95.5568V22.155ZM91.5368 15.465H93.1118V17.76H99.5768V15.465H101.137V22.53H91.5368V15.465ZM93.1118 19.005V21.255H99.5768V19.005H93.1118Z" fill="black"/>
<path d="M0 271C0 265.477 4.47715 261 10 261H356C361.523 261 366 265.477 366 271V349C366 354.523 361.523 359 356 359H10C4.47716 359 0 354.523 0 349V271Z" fill="#F5F5F5"/>
<line x1="9.99844" y1="296.5" x2="353.998" y2="295.428" stroke="#FF916F"/>
<path d="M18.0084 285.32H30.4284V286.61H18.0084V285.32ZM23.3934 281.975H24.9534V285.905H23.3934V281.975ZM19.0284 275.765H29.3184V277.04H19.0284V275.765ZM19.0734 281.255H29.2884V282.5H19.0734V281.255ZM21.0384 276.8H22.6134V281.435H21.0384V276.8ZM25.7484 276.8H27.3084V281.435H25.7484V276.8ZM41.5272 274.55H43.1022V284.48H41.5272V274.55ZM34.1472 286.7H43.4922V287.975H34.1472V286.7ZM34.1472 283.475H35.7222V287.18H34.1472V283.475ZM35.7072 275.465C37.7772 275.465 39.3372 276.875 39.3372 278.885C39.3372 280.865 37.7772 282.305 35.7072 282.305C33.6372 282.305 32.0622 280.865 32.0622 278.885C32.0622 276.875 33.6372 275.465 35.7072 275.465ZM35.7072 276.815C34.5072 276.815 33.5922 277.625 33.5922 278.885C33.5922 280.115 34.5072 280.925 35.7072 280.925C36.9072 280.925 37.8072 280.115 37.8072 278.885C37.8072 277.625 36.9072 276.815 35.7072 276.815ZM47.136 281.78H56.646V283.025H47.136V281.78ZM45.606 285.275H58.026V286.565H45.606V285.275ZM47.136 275.63H56.511V276.905H48.726V282.14H47.136V275.63ZM48.231 278.675H56.211V279.905H48.231V278.675ZM68.174 282.035H69.719V284.06H68.174V282.035ZM62.759 281.225H75.149V282.47H62.759V281.225ZM68.174 274.535H69.734V276.41H68.174V274.535ZM68.084 276.56H69.464V276.8C69.464 278.96 67.184 280.34 63.869 280.625L63.389 279.425C66.329 279.215 68.084 278.135 68.084 276.8V276.56ZM68.444 276.56H69.824V276.8C69.824 278.135 71.579 279.215 74.504 279.425L74.039 280.625C70.709 280.34 68.444 278.96 68.444 276.8V276.56ZM63.989 275.825H73.919V277.055H63.989V275.825ZM68.939 283.64C71.909 283.64 73.664 284.45 73.664 285.935C73.664 287.42 71.909 288.23 68.939 288.23C65.969 288.23 64.214 287.42 64.214 285.935C64.214 284.45 65.969 283.64 68.939 283.64ZM68.939 284.81C66.914 284.81 65.804 285.185 65.804 285.935C65.804 286.67 66.914 287.06 68.939 287.06C70.964 287.06 72.074 286.67 72.074 285.935C72.074 285.185 70.964 284.81 68.939 284.81ZM83.8628 278.21H87.2078V279.485H83.8628V278.21ZM86.3528 274.55H87.9278V284.57H86.3528V274.55ZM79.0478 286.7H88.2728V287.975H79.0478V286.7ZM79.0478 283.7H80.6078V287.405H79.0478V283.7ZM79.9178 276.29H81.1928V277.28C81.1928 279.815 79.7978 282.065 77.3528 282.935L76.5578 281.675C78.6878 280.94 79.9178 279.14 79.9178 277.28V276.29ZM80.2328 276.29H81.4928V277.28C81.4928 278.975 82.6628 280.685 84.7178 281.405L83.9378 282.635C81.5678 281.81 80.2328 279.65 80.2328 277.28V276.29ZM77.0078 275.57H84.3578V276.83H77.0078V275.57Z" fill="black"/>
<path d="M18.768 65.682H19.776V66.214C19.776 68.482 17.368 70.148 14.82 70.582L14.372 69.658C16.598 69.336 18.768 67.88 18.768 66.214V65.682ZM19.062 65.682H20.056V66.214C20.056 67.88 22.24 69.336 24.452 69.658L24.018 70.582C21.456 70.148 19.062 68.482 19.062 66.214V65.682ZM18.81 72.262H19.958V77.092H18.81V72.262ZM13.7 71.646H25.138V72.598H13.7V71.646ZM14.764 65.22H24.032V66.158H14.764V65.22ZM26.5649 70.904H38.0309V71.856H26.5649V70.904ZM31.8009 71.492H32.9629V74.404H31.8009V71.492ZM28.0349 65.024H36.5469V69.476H28.0349V65.024ZM35.3989 65.962H29.1689V68.538H35.3989V65.962ZM28.0209 75.86H36.7569V76.812H28.0209V75.86ZM28.0209 73.186H29.1689V76.196H28.0209V73.186ZM49.0618 64.436H50.1818V77.092H49.0618V64.436ZM46.9338 69.588H49.3698V70.54H46.9338V69.588ZM46.1918 64.716H47.2838V76.448H46.1918V64.716ZM40.0598 65.962H41.2218V73.27H40.0598V65.962ZM40.0598 72.808H40.8718C42.1738 72.808 43.6298 72.724 45.2818 72.402L45.4078 73.41C43.6858 73.746 42.2298 73.816 40.8718 73.816H40.0598V72.808ZM58.0907 66.298H61.9547V67.25H58.0907V66.298ZM58.0907 69.126H61.9547V70.092H58.0907V69.126ZM54.2967 72.598H62.7387V77.092H61.5767V73.536H54.2967V72.598ZM61.5767 64.436H62.7387V71.898H61.5767V64.436ZM55.7807 65.136C57.6427 65.136 59.0427 66.396 59.0427 68.188C59.0427 69.98 57.6427 71.226 55.7807 71.226C53.9047 71.226 52.5187 69.98 52.5187 68.188C52.5187 66.396 53.9047 65.136 55.7807 65.136ZM55.7807 66.13C54.5487 66.13 53.6387 66.984 53.6387 68.188C53.6387 69.392 54.5487 70.232 55.7807 70.232C57.0127 70.232 57.9367 69.392 57.9367 68.188C57.9367 66.984 57.0127 66.13 55.7807 66.13Z" fill="black"/>
<path d="M14.148 110.626H15.254V113.72H17.9V110.626H18.978V118.928H14.148V110.626ZM15.254 114.658V117.976H17.9V114.658H15.254ZM23.332 109.436H24.452V122.092H23.332V109.436ZM21.302 114.448H23.738V115.4H21.302V114.448ZM20.532 109.702H21.638V121.462H20.532V109.702ZM31.7029 113.86H32.8509V116.226H31.7029V113.86ZM31.6889 109.632H32.6969V110.192C32.6969 112.474 30.2749 114.098 27.6989 114.518L27.2509 113.594C29.5189 113.286 31.6889 111.886 31.6889 110.192V109.632ZM31.8709 109.632H32.8649V110.192C32.8649 111.886 35.0489 113.286 37.3029 113.594L36.8689 114.518C34.3069 114.084 31.8709 112.474 31.8709 110.192V109.632ZM26.5649 115.722H38.0029V116.646H26.5649V115.722ZM32.2769 117.696C34.9929 117.696 36.6169 118.48 36.6169 119.88C36.6169 121.294 34.9929 122.064 32.2769 122.064C29.5609 122.064 27.9369 121.294 27.9369 119.88C27.9369 118.48 29.5609 117.696 32.2769 117.696ZM32.2769 118.592C30.2889 118.592 29.1129 119.054 29.1129 119.88C29.1129 120.706 30.2889 121.168 32.2769 121.168C34.2789 121.168 35.4409 120.706 35.4409 119.88C35.4409 119.054 34.2789 118.592 32.2769 118.592ZM42.8038 111.242H43.7418V113.3C43.7418 115.974 42.1318 118.662 40.1158 119.656L39.4438 118.732C41.2778 117.864 42.8038 115.484 42.8038 113.3V111.242ZM43.0278 111.242H43.9658V113.3C43.9658 115.442 45.4918 117.626 47.3538 118.424L46.6958 119.348C44.6518 118.396 43.0278 115.932 43.0278 113.3V111.242ZM39.8638 110.724H46.9338V111.704H39.8638V110.724ZM48.6418 109.436H49.8038V122.092H48.6418V109.436ZM56.1396 110.416H61.7396V111.368H56.1396V110.416ZM58.0436 113.244H59.1916V116.408H58.0436V113.244ZM61.2776 110.416H62.4256V111.088C62.4256 111.914 62.4256 113.174 62.0896 114.84L60.9556 114.714C61.2776 113.048 61.2776 111.9 61.2776 111.088V110.416ZM64.1476 109.436H65.3096V118.97H64.1476V109.436ZM64.7776 113.552H67.1156V114.518H64.7776V113.552ZM57.3156 120.86H65.7156V121.812H57.3156V120.86ZM57.3156 118.088H58.4636V121.154H57.3156V118.088ZM55.4956 116.954L55.3696 116.002C57.6236 116.002 60.7316 115.946 63.2936 115.596L63.3776 116.436C60.7456 116.898 57.7216 116.954 55.4956 116.954ZM77.5585 109.422H78.7205V122.106H77.5585V109.422ZM69.0745 118.088H70.1245C72.2385 118.088 74.1285 118.004 76.3685 117.64L76.4945 118.592C74.1985 118.97 72.2945 119.054 70.1245 119.054H69.0745V118.088ZM69.0465 110.612H74.8985V115.134H70.2365V118.452H69.0745V114.182H73.7225V111.564H69.0465V110.612Z" fill="black"/>
<path d="M13.932 155.78H22.08V156.718H13.932V155.78ZM12.7 164.278H24.138V165.244H12.7V164.278ZM21.464 155.78H22.598V157.04C22.598 158.664 22.598 160.47 22.122 163.2L20.96 163.088C21.464 160.498 21.464 158.608 21.464 157.04V155.78ZM25.5649 160.694H37.0449V161.632H25.5649V160.694ZM30.7169 161.03H31.8649V163.2H30.7169V161.03ZM27.0909 162.444H28.2389V163.83H34.4129V162.444H35.5609V166.924H27.0909V162.444ZM28.2389 164.712V166.014H34.4129V164.712H28.2389ZM27.0209 154.702H35.5609V157.6H28.1969V159.28H27.0489V156.732H34.4269V155.598H27.0209V154.702ZM27.0489 158.79H35.8409V159.686H27.0489V158.79ZM42.2607 155.416H47.8607V156.368H42.2607V155.416ZM44.1647 158.244H45.3127V161.408H44.1647V158.244ZM47.3987 155.416H48.5467V156.088C48.5467 156.914 48.5467 158.174 48.2107 159.84L47.0767 159.714C47.3987 158.048 47.3987 156.9 47.3987 156.088V155.416ZM50.2687 154.436H51.4307V163.97H50.2687V154.436ZM50.8987 158.552H53.2367V159.518H50.8987V158.552ZM43.4367 165.86H51.8367V166.812H43.4367V165.86ZM43.4367 163.088H44.5847V166.154H43.4367V163.088ZM41.6167 161.954L41.4907 161.002C43.7447 161.002 46.8527 160.946 49.4147 160.596L49.4987 161.436C46.8667 161.898 43.8427 161.954 41.6167 161.954ZM63.6796 154.422H64.8416V167.106H63.6796V154.422ZM55.1956 163.088H56.2456C58.3596 163.088 60.2496 163.004 62.4896 162.64L62.6156 163.592C60.3196 163.97 58.4156 164.054 56.2456 164.054H55.1956V163.088ZM55.1676 155.612H61.0196V160.134H56.3576V163.452H55.1956V159.182H59.8436V156.564H55.1676V155.612Z" fill="black"/>
<path d="M22.912 198.422H24.074V211.106H22.912V198.422ZM14.428 207.088H15.478C17.592 207.088 19.482 207.004 21.722 206.64L21.848 207.592C19.552 207.97 17.648 208.054 15.478 208.054H14.428V207.088ZM14.4 199.612H20.252V204.134H15.59V207.452H14.428V203.182H19.076V200.564H14.4V199.612ZM29.4489 205.982H30.6109V211.092H29.4489V205.982ZM33.9709 205.982H35.1469V211.092H33.9709V205.982ZM26.5649 205.828H38.0449V206.78H26.5649V205.828ZM28.0069 198.926H29.1689V200.62H35.4269V198.926H36.5749V204.344H28.0069V198.926ZM29.1689 201.572V203.378H35.4269V201.572H29.1689ZM45.6967 199.738H46.6487V200.76C46.6487 203.084 45.2487 205.016 43.1347 205.772L42.5187 204.862C44.4367 204.19 45.6967 202.566 45.6967 200.76V199.738ZM45.9067 199.738H46.8587V200.746C46.8587 202.426 48.0767 203.98 49.9387 204.61L49.3367 205.52C47.2507 204.792 45.9067 202.93 45.9067 200.746V199.738ZM42.8827 199.318H49.6447V200.27H42.8827V199.318ZM51.2407 198.436H52.4027V206.052H51.2407V198.436ZM52.0807 201.768H54.2787V202.734H52.0807V201.768ZM44.1847 206.724H52.4027V211.092H51.2407V207.69H44.1847V206.724ZM58.6456 199.15H59.6116V200.452C59.6116 202.902 58.2256 204.904 56.0556 205.716L55.4536 204.764C57.3856 204.078 58.6456 202.384 58.6456 200.452V199.15ZM58.8556 199.15H59.8076V200.41C59.8076 202.202 61.0396 203.784 62.8876 204.428L62.2576 205.338C60.2136 204.568 58.8556 202.706 58.8556 200.41V199.15ZM64.7076 198.436H65.8696V205.926H64.7076V198.436ZM61.7116 206.29C64.3156 206.29 65.9256 207.172 65.9256 208.684C65.9256 210.196 64.3156 211.064 61.7116 211.064C59.0936 211.064 57.4836 210.196 57.4836 208.684C57.4836 207.172 59.0936 206.29 61.7116 206.29ZM61.7116 207.214C59.8076 207.214 58.6456 207.76 58.6456 208.684C58.6456 209.608 59.8076 210.154 61.7116 210.154C63.6156 210.154 64.7776 209.608 64.7776 208.684C64.7776 207.76 63.6156 207.214 61.7116 207.214ZM61.9636 201.11H64.9596V202.076H61.9636V201.11Z" fill="black"/>
<path d="M18.376 319.192H24.952V328.6H18.376V319.192ZM23.64 320.264H19.672V327.528H23.64V320.264ZM28.392 317.768H29.704V332.264H28.392V317.768ZM24.696 323.048H28.888V324.152H24.696V323.048ZM43.0308 317.784H44.3588V332.248H43.0308V317.784ZM33.4308 319.192H34.7428V328.152H33.4308V319.192ZM33.4308 327.368H34.6148C36.8068 327.368 39.0948 327.208 41.5428 326.696L41.7028 327.832C39.1908 328.344 36.9028 328.52 34.6148 328.52H33.4308V327.368ZM48.6455 324.76C48.0695 324.76 47.6055 324.312 47.6055 323.656C47.6055 322.984 48.0695 322.536 48.6455 322.536C49.2375 322.536 49.7175 322.984 49.7175 323.656C49.7175 324.312 49.2375 324.76 48.6455 324.76ZM48.6455 331.224C48.0695 331.224 47.6055 330.76 47.6055 330.104C47.6055 329.432 48.0695 328.984 48.6455 328.984C49.2375 328.984 49.7175 329.432 49.7175 330.104C49.7175 330.76 49.2375 331.224 48.6455 331.224ZM62.4949 331.224C60.2549 331.224 58.8309 329.192 58.8309 325.096C58.8309 321.032 60.2549 319.064 62.4949 319.064C64.7029 319.064 66.1269 321.032 66.1269 325.096C66.1269 329.192 64.7029 331.224 62.4949 331.224ZM62.4949 330.04C63.8229 330.04 64.7189 328.552 64.7189 325.096C64.7189 321.688 63.8229 320.232 62.4949 320.232C61.1509 320.232 60.2389 321.688 60.2389 325.096C60.2389 328.552 61.1509 330.04 62.4949 330.04ZM75.396 325.064H76.724V328.28H75.396V325.064ZM81.812 317.784H83.14V328.792H81.812V317.784ZM73.268 330.84H83.492V331.928H73.268V330.84ZM73.268 327.72H74.596V331.144H73.268V327.72ZM71.396 325.56L71.22 324.472C73.892 324.472 77.476 324.44 80.548 324.04L80.644 325.016C77.524 325.512 74.02 325.56 71.396 325.56ZM78.868 326.328H82.148V327.304H78.868V326.328ZM75.924 318.376C78.036 318.376 79.476 319.368 79.476 320.888C79.476 322.424 78.036 323.416 75.924 323.416C73.796 323.416 72.356 322.424 72.356 320.888C72.356 319.368 73.796 318.376 75.924 318.376ZM75.924 319.368C74.564 319.368 73.62 319.96 73.62 320.888C73.62 321.816 74.564 322.408 75.924 322.408C77.268 322.408 78.212 321.816 78.212 320.888C78.212 319.96 77.268 319.368 75.924 319.368Z" fill="black"/>
<rect x="278" y="313" width="76" height="28" rx="10" fill="#FF916F"/>
<path d="M293.992 329.035H295.537V331.06H293.992V329.035ZM288.577 328.225H300.967V329.47H288.577V328.225ZM293.992 321.535H295.552V323.41H293.992V321.535ZM293.902 323.56H295.282V323.8C295.282 325.96 293.002 327.34 289.687 327.625L289.207 326.425C292.147 326.215 293.902 325.135 293.902 323.8V323.56ZM294.262 323.56H295.642V323.8C295.642 325.135 297.397 326.215 300.322 326.425L299.857 327.625C296.527 327.34 294.262 325.96 294.262 323.8V323.56ZM289.807 322.825H299.737V324.055H289.807V322.825ZM294.757 330.64C297.727 330.64 299.482 331.45 299.482 332.935C299.482 334.42 297.727 335.23 294.757 335.23C291.787 335.23 290.032 334.42 290.032 332.935C290.032 331.45 291.787 330.64 294.757 330.64ZM294.757 331.81C292.732 331.81 291.622 332.185 291.622 332.935C291.622 333.67 292.732 334.06 294.757 334.06C296.782 334.06 297.892 333.67 297.892 332.935C297.892 332.185 296.782 331.81 294.757 331.81ZM309.681 325.21H313.026V326.485H309.681V325.21ZM312.171 321.55H313.746V331.57H312.171V321.55ZM304.866 333.7H314.091V334.975H304.866V333.7ZM304.866 330.7H306.426V334.405H304.866V330.7ZM305.736 323.29H307.011V324.28C307.011 326.815 305.616 329.065 303.171 329.935L302.376 328.675C304.506 327.94 305.736 326.14 305.736 324.28V323.29ZM306.051 323.29H307.311V324.28C307.311 325.975 308.481 327.685 310.536 328.405L309.756 329.635C307.386 328.81 306.051 326.65 306.051 324.28V323.29ZM302.826 322.57H310.176V323.83H302.826V322.57ZM325.25 321.535H326.81V335.245H325.25V321.535ZM326.45 327.04H328.94V328.345H326.45V327.04ZM316.115 323.65H324.155V324.91H316.115V323.65ZM320.18 325.9C322.13 325.9 323.57 327.22 323.57 329.095C323.57 330.985 322.13 332.305 320.18 332.305C318.215 332.305 316.775 330.985 316.775 329.095C316.775 327.22 318.215 325.9 320.18 325.9ZM320.18 327.19C319.07 327.19 318.275 327.94 318.275 329.095C318.275 330.25 319.07 331.015 320.18 331.015C321.275 331.015 322.07 330.25 322.07 329.095C322.07 327.94 321.275 327.19 320.18 327.19ZM319.37 321.73H320.945V324.175H319.37V321.73ZM339.724 321.535H341.299V335.245H339.724V321.535ZM335.704 322.99H337.249C337.249 327.055 335.629 330.505 330.919 332.8L330.094 331.54C334.039 329.635 335.704 326.92 335.704 323.26V322.99ZM330.769 322.99H336.409V324.25H330.769V322.99Z" fill="black"/>
<mask id="mask0_348_4" style="mask-type:alpha" maskUnits="userSpaceOnUse" x="330" y="266" width="24" height="24">
<rect x="330" y="266" width="24" height="24" fill="#D9D9D9"/>
</mask>
<g mask="url(#mask0_348_4)">
<path d="M341.1 285H342.85V283.75C343.683 283.6 344.4 283.275 345 282.775C345.6 282.275 345.9 281.533 345.9 280.55C345.9 279.85 345.7 279.208 345.3 278.625C344.9 278.042 344.1 277.533 342.9 277.1C341.9 276.767 341.208 276.475 340.825 276.225C340.442 275.975 340.25 275.633 340.25 275.2C340.25 274.767 340.404 274.425 340.713 274.175C341.021 273.925 341.467 273.8 342.05 273.8C342.583 273.8 343 273.929 343.3 274.188C343.6 274.446 343.817 274.767 343.95 275.15L345.55 274.5C345.367 273.917 345.029 273.408 344.538 272.975C344.046 272.542 343.5 272.3 342.9 272.25V271H341.15V272.25C340.317 272.433 339.667 272.8 339.2 273.35C338.733 273.9 338.5 274.517 338.5 275.2C338.5 275.983 338.729 276.617 339.188 277.1C339.646 277.583 340.367 278 341.35 278.35C342.4 278.733 343.129 279.075 343.538 279.375C343.946 279.675 344.15 280.067 344.15 280.55C344.15 281.1 343.954 281.504 343.562 281.762C343.171 282.021 342.7 282.15 342.15 282.15C341.6 282.15 341.113 281.979 340.688 281.637C340.262 281.296 339.95 280.783 339.75 280.1L338.1 280.75C338.333 281.55 338.696 282.196 339.188 282.688C339.679 283.179 340.317 283.517 341.1 283.7V285ZM342 288C340.617 288 339.317 287.737 338.1 287.212C336.883 286.688 335.825 285.975 334.925 285.075C334.025 284.175 333.312 283.117 332.788 281.9C332.262 280.683 332 279.383 332 278C332 276.617 332.262 275.317 332.788 274.1C333.312 272.883 334.025 271.825 334.925 270.925C335.825 270.025 336.883 269.312 338.1 268.788C339.317 268.262 340.617 268 342 268C343.383 268 344.683 268.262 345.9 268.788C347.117 269.312 348.175 270.025 349.075 270.925C349.975 271.825 350.688 272.883 351.212 274.1C351.737 275.317 352 276.617 352 278C352 279.383 351.737 280.683 351.212 281.9C350.688 283.117 349.975 284.175 349.075 285.075C348.175 285.975 347.117 286.688 345.9 287.212C344.683 287.737 343.383 288 342 288Z" fill="#FF916F"/>
</g>
<path opacity="0.5" d="M0 10C0 4.47715 4.47715 0 10 0H356C361.523 0 366 4.47715 366 10V349C366 354.523 361.523 359 356 359H10C4.47716 359 0 354.523 0 349V10Z" fill="#959595"/>
<path d="M92.5889 235.54C94.6289 235.54 96.0989 237.415 96.0989 240.37C96.0989 243.325 94.6289 245.215 92.5889 245.215C90.5489 245.215 89.0789 243.325 89.0789 240.37C89.0789 237.415 90.5489 235.54 92.5889 235.54ZM92.5889 236.965C91.4039 236.965 90.5789 238.24 90.5789 240.37C90.5789 242.515 91.4039 243.805 92.5889 243.805C93.7739 243.805 94.5989 242.515 94.5989 240.37C94.5989 238.24 93.7739 236.965 92.5889 236.965ZM97.9889 234.535H99.5639V248.245H97.9889V234.535ZM99.2039 239.875H101.694V241.18H99.2039V239.875ZM103.148 243.775H104.078C105.728 243.775 107.213 243.73 108.998 243.43L109.118 244.72C107.288 245.035 105.773 245.08 104.078 245.08H103.148V243.775ZM103.118 235.96H108.278V240.985H104.678V244.255H103.148V239.725H106.763V237.22H103.118V235.96ZM112.928 234.535H114.428V248.245H112.928V234.535ZM110.828 239.845H113.303V241.12H110.828V239.845ZM109.838 234.805H111.293V247.57H109.838V234.805ZM129.646 234.535H131.221V248.245H129.646V234.535ZM125.626 235.99H127.171C127.171 240.055 125.551 243.505 120.841 245.8L120.016 244.54C123.961 242.635 125.626 239.92 125.626 236.26V235.99ZM120.691 235.99H126.331V237.25H120.691V235.99ZM135.33 238.165H144.705V239.425H135.33V238.165ZM135.33 234.79H136.89V238.735H135.33V234.79ZM133.71 240.835H146.1V242.095H133.71V240.835ZM139.875 243.175C142.815 243.175 144.6 244.075 144.6 245.695C144.6 247.285 142.815 248.2 139.875 248.2C136.935 248.2 135.15 247.285 135.15 245.695C135.15 244.075 136.935 243.175 139.875 243.175ZM139.875 244.39C137.865 244.39 136.74 244.825 136.74 245.695C136.74 246.52 137.865 246.985 139.875 246.985C141.885 246.985 143.01 246.52 143.01 245.695C143.01 244.825 141.885 244.39 139.875 244.39ZM147.508 240.07H159.898V241.33H147.508V240.07ZM149.098 237.88H158.428V239.14H149.098V237.88ZM149.098 234.895H158.293V236.155H150.658V238.93H149.098V234.895ZM148.963 242.335H158.338V245.74H150.538V247.225H148.978V244.6H156.793V243.55H148.963V242.335ZM148.978 246.88H158.728V248.11H148.978V246.88ZM167.487 234.745C170.562 234.745 172.377 235.585 172.377 237.115C172.377 238.63 170.562 239.47 167.487 239.47C164.412 239.47 162.612 238.63 162.612 237.115C162.612 235.585 164.412 234.745 167.487 234.745ZM167.487 235.915C165.372 235.915 164.232 236.335 164.232 237.115C164.232 237.895 165.372 238.3 167.487 238.3C169.617 238.3 170.742 237.895 170.742 237.115C170.742 236.335 169.617 235.915 167.487 235.915ZM161.292 240.265H173.682V241.51H161.292V240.265ZM162.762 242.515H172.137V245.785H164.337V247.255H162.777V244.675H170.592V243.685H162.762V242.515ZM162.777 246.91H172.527V248.125H162.777V246.91ZM181.7 235.66H182.975V237.91C182.975 241.105 181.55 244.165 179.195 245.365L178.235 244.105C180.365 243.07 181.7 240.445 181.7 237.91V235.66ZM182 235.66H183.26V237.91C183.26 240.355 184.55 242.845 186.605 243.865L185.645 245.11C183.365 243.925 182 241 182 237.91V235.66ZM187.52 234.535H189.095V248.245H187.52V234.535ZM188.735 239.965H191.225V241.27H188.735V239.965ZM195.199 239.155H196.759V241.705H195.199V239.155ZM200.134 239.155H201.694V241.705H200.134V239.155ZM192.259 241.195H204.649V242.44H192.259V241.195ZM198.439 243.325C201.379 243.325 203.164 244.21 203.164 245.77C203.164 247.345 201.379 248.23 198.439 248.23C195.484 248.23 193.714 247.345 193.714 245.77C193.714 244.21 195.484 243.325 198.439 243.325ZM198.439 244.525C196.429 244.525 195.304 244.96 195.304 245.77C195.304 246.595 196.429 247.03 198.439 247.03C200.449 247.03 201.574 246.595 201.574 245.77C201.574 244.96 200.449 244.525 198.439 244.525ZM198.454 234.76C201.454 234.76 203.344 235.735 203.344 237.355C203.344 238.975 201.454 239.92 198.454 239.92C195.454 239.92 193.579 238.975 193.579 237.355C193.579 235.735 195.454 234.76 198.454 234.76ZM198.454 235.975C196.414 235.975 195.199 236.455 195.199 237.355C195.199 238.24 196.414 238.72 198.454 238.72C200.509 238.72 201.724 238.24 201.724 237.355C201.724 236.455 200.509 235.975 198.454 235.975ZM215.133 234.535H216.693V248.245H215.133V234.535ZM216.333 240.04H218.823V241.345H216.333V240.04ZM205.998 236.65H214.038V237.91H205.998V236.65ZM210.063 238.9C212.013 238.9 213.453 240.22 213.453 242.095C213.453 243.985 212.013 245.305 210.063 245.305C208.098 245.305 206.658 243.985 206.658 242.095C206.658 240.22 208.098 238.9 210.063 238.9ZM210.063 240.19C208.953 240.19 208.158 240.94 208.158 242.095C208.158 243.25 208.953 244.015 210.063 244.015C211.158 244.015 211.953 243.25 211.953 242.095C211.953 240.94 211.158 240.19 210.063 240.19ZM209.253 234.73H210.828V237.175H209.253V234.73ZM229.607 234.535H231.182V248.245H229.607V234.535ZM225.587 235.99H227.132C227.132 240.055 225.512 243.505 220.802 245.8L219.977 244.54C223.922 242.635 225.587 239.92 225.587 236.26V235.99ZM220.652 235.99H226.292V237.25H220.652V235.99ZM241.495 235.135C243.55 235.135 245.035 236.305 245.035 238C245.035 239.695 243.55 240.88 241.495 240.88C239.44 240.88 237.955 239.695 237.955 238C237.955 236.305 239.44 235.135 241.495 235.135ZM241.495 236.425C240.31 236.425 239.47 237.04 239.47 238C239.47 238.975 240.31 239.575 241.495 239.575C242.68 239.575 243.535 238.975 243.535 238C243.535 237.04 242.68 236.425 241.495 236.425ZM240.775 242.335H242.35V247.825H240.775V242.335ZM246.805 234.535H248.365V248.245H246.805V234.535ZM237.235 243.175L237.04 241.87C239.515 241.87 242.95 241.84 245.92 241.39L246.025 242.545C242.98 243.13 239.68 243.16 237.235 243.175ZM261.038 234.535H262.538V248.245H261.038V234.535ZM257.063 239.725H259.403V241.03H257.063V239.725ZM258.413 234.805H259.883V247.6H258.413V234.805ZM250.808 236.755H257.423V238.015H250.808V236.755ZM254.093 238.81C255.773 238.81 256.988 240.13 256.988 241.99C256.988 243.88 255.773 245.185 254.093 245.185C252.428 245.185 251.198 243.88 251.198 241.99C251.198 240.13 252.428 238.81 254.093 238.81ZM254.093 240.13C253.208 240.13 252.578 240.865 252.578 241.99C252.578 243.13 253.208 243.865 254.093 243.865C254.978 243.865 255.608 243.13 255.608 241.99C255.608 240.865 254.978 240.13 254.093 240.13ZM253.343 234.88H254.888V237.505H253.343V234.88ZM271.642 237.625H274.972V238.915H271.642V237.625ZM267.937 235.375H269.197V236.965C269.197 239.68 267.847 241.975 265.432 242.905L264.607 241.675C266.737 240.91 267.937 238.99 267.937 236.965V235.375ZM268.252 235.375H269.512V236.995C269.512 238.84 270.667 240.625 272.722 241.36L271.882 242.575C269.572 241.705 268.252 239.515 268.252 236.995V235.375ZM274.417 234.55H275.992V244.735H274.417V234.55ZM267.067 246.7H276.307V247.975H267.067V246.7ZM267.067 243.655H268.642V247.36H267.067V243.655ZM124.576 267.35H136.996V268.64H124.576V267.35ZM129.976 264.56H131.536V267.875H129.976V264.56ZM126.031 257.495H135.511V261.83H127.621V264.38H126.061V260.585H133.951V258.755H126.031V257.495ZM126.061 263.735H135.826V265.01H126.061V263.735ZM139.68 257.9H148.44V259.16H139.68V257.9ZM138.375 267.05H150.765V268.34H138.375V267.05ZM147.6 257.9H149.16V259.385C149.16 261.215 149.16 263.135 148.65 266.03L147.075 265.88C147.6 263.165 147.6 261.155 147.6 259.385V257.9ZM161.894 256.55H163.469V266.48H161.894V256.55ZM154.514 268.7H163.859V269.975H154.514V268.7ZM154.514 265.475H156.089V269.18H154.514V265.475ZM156.074 257.465C158.144 257.465 159.704 258.875 159.704 260.885C159.704 262.865 158.144 264.305 156.074 264.305C154.004 264.305 152.429 262.865 152.429 260.885C152.429 258.875 154.004 257.465 156.074 257.465ZM156.074 258.815C154.874 258.815 153.959 259.625 153.959 260.885C153.959 262.115 154.874 262.925 156.074 262.925C157.274 262.925 158.174 262.115 158.174 260.885C158.174 259.625 157.274 258.815 156.074 258.815ZM175.678 256.52H177.253V270.26H175.678V256.52ZM169.948 257.54C172.003 257.54 173.488 259.415 173.488 262.37C173.488 265.325 172.003 267.215 169.948 267.215C167.908 267.215 166.423 265.325 166.423 262.37C166.423 259.415 167.908 257.54 169.948 257.54ZM169.948 258.965C168.748 258.965 167.923 260.24 167.923 262.37C167.923 264.515 168.748 265.805 169.948 265.805C171.148 265.805 171.973 264.515 171.973 262.37C171.973 260.24 171.148 258.965 169.948 258.965ZM192.876 256.535H194.466V263.6H192.876V256.535ZM185.376 264.215H194.466V267.695H186.951V269.57H185.406V266.54H192.906V265.445H185.376V264.215ZM185.406 268.88H194.901V270.125H185.406V268.88ZM183.741 257.42H191.106V258.65H183.741V257.42ZM183.531 263.24L183.366 261.965C185.796 261.965 189.036 261.92 191.691 261.59L191.781 262.715C189.066 263.15 185.916 263.225 183.531 263.24ZM184.971 257.975H186.471V262.565H184.971V257.975ZM188.346 257.975H189.876V262.565H188.346V257.975ZM199.835 263.555H201.395V267.53H199.835V263.555ZM204.86 263.555H206.435V267.53H204.86V263.555ZM196.94 267.275H209.36V268.565H196.94V267.275ZM203.12 257.315C206.045 257.315 208.16 258.725 208.16 260.915C208.16 263.09 206.045 264.5 203.12 264.5C200.195 264.5 198.08 263.09 198.08 260.915C198.08 258.725 200.195 257.315 203.12 257.315ZM203.12 258.545C201.05 258.545 199.61 259.46 199.61 260.915C199.61 262.355 201.05 263.27 203.12 263.27C205.19 263.27 206.63 262.355 206.63 260.915C206.63 259.46 205.19 258.545 203.12 258.545ZM210.708 258.755H217.398V260.015H210.708V258.755ZM214.068 260.795C215.793 260.795 217.038 262.115 217.038 263.99C217.038 265.865 215.793 267.17 214.068 267.17C212.358 267.17 211.098 265.865 211.098 263.99C211.098 262.115 212.358 260.795 214.068 260.795ZM214.068 262.115C213.153 262.115 212.493 262.865 212.493 263.99C212.493 265.13 213.153 265.85 214.068 265.85C214.983 265.85 215.643 265.13 215.643 263.99C215.643 262.865 214.983 262.115 214.068 262.115ZM220.908 256.535H222.408V270.245H220.908V256.535ZM218.958 262.22H221.403V263.495H218.958V262.22ZM217.998 256.82H219.468V269.615H217.998V256.82ZM213.303 256.925H214.848V259.535H213.303V256.925ZM227.432 263.555H228.992V267.53H227.432V263.555ZM232.457 263.555H234.032V267.53H232.457V263.555ZM224.537 267.275H236.957V268.565H224.537V267.275ZM230.717 257.315C233.642 257.315 235.757 258.725 235.757 260.915C235.757 263.09 233.642 264.5 230.717 264.5C227.792 264.5 225.677 263.09 225.677 260.915C225.677 258.725 227.792 257.315 230.717 257.315ZM230.717 258.545C228.647 258.545 227.207 259.46 227.207 260.915C227.207 262.355 228.647 263.27 230.717 263.27C232.787 263.27 234.227 262.355 234.227 260.915C234.227 259.46 232.787 258.545 230.717 258.545ZM239.881 269.21C239.221 269.21 238.726 268.7 238.726 267.995C238.726 267.275 239.221 266.78 239.881 266.78C240.526 266.78 241.036 267.275 241.036 267.995C241.036 268.7 240.526 269.21 239.881 269.21Z" fill="black"/>
<mask id="mask1_348_4" style="mask-type:alpha" maskUnits="userSpaceOnUse" x="333" y="6" width="24" height="24">
<rect x="333" y="6" width="24" height="24" fill="#D9D9D9"/>
</mask>
<g mask="url(#mask1_348_4)">
<path d="M338 28C337.45 28 336.979 27.8042 336.588 27.4125C336.196 27.0208 336 26.55 336 26V14C336 13.45 336.196 12.9792 336.588 12.5875C336.979 12.1958 337.45 12 338 12H340C340 10.6167 340.488 9.4375 341.463 8.4625C342.438 7.4875 343.617 7 345 7C346.383 7 347.562 7.4875 348.538 8.4625C349.513 9.4375 350 10.6167 350 12H352C352.55 12 353.021 12.1958 353.413 12.5875C353.804 12.9792 354 13.45 354 14V26C354 26.55 353.804 27.0208 353.413 27.4125C353.021 27.8042 352.55 28 352 28H338ZM345 20C346.383 20 347.562 19.5125 348.538 18.5375C349.513 17.5625 350 16.3833 350 15H348C348 15.8333 347.708 16.5417 347.125 17.125C346.542 17.7083 345.833 18 345 18C344.167 18 343.458 17.7083 342.875 17.125C342.292 16.5417 342 15.8333 342 15H340C340 16.3833 340.488 17.5625 341.463 18.5375C342.438 19.5125 343.617 20 345 20ZM342 12H348C348 11.1667 347.708 10.4583 347.125 9.875C346.542 9.29167 345.833 9 345 9C344.167 9 343.458 9.29167 342.875 9.875C342.292 10.4583 342 11.1667 342 12Z" fill="#FF916F"/>
</g>
<mask id="mask2_348_4" style="mask-type:alpha" maskUnits="userSpaceOnUse" x="115" y="92" width="137" height="135">
<rect x="115" y="92" width="137" height="135" fill="#D9D9D9"/>
</mask>
<g mask="url(#mask2_348_4)">
<path d="M149.25 215.75C146.11 215.75 143.423 214.648 141.187 212.445C138.951 210.242 137.833 207.594 137.833 204.5V148.25C137.833 145.156 138.951 142.508 141.187 140.305C143.423 138.102 146.11 137 149.25 137H154.958V125.75C154.958 117.969 157.741 111.336 163.307 105.852C168.872 100.367 175.604 97.625 183.5 97.625C191.397 97.625 198.128 100.367 203.693 105.852C209.259 111.336 212.042 117.969 212.042 125.75V137H217.75C220.89 137 223.577 138.102 225.813 140.305C228.049 142.508 229.167 145.156 229.167 148.25V204.5C229.167 207.594 228.049 210.242 225.813 212.445C223.577 214.648 220.89 215.75 217.75 215.75H149.25ZM183.5 187.625C186.64 187.625 189.327 186.523 191.563 184.32C193.799 182.117 194.917 179.469 194.917 176.375C194.917 173.281 193.799 170.633 191.563 168.43C189.327 166.227 186.64 165.125 183.5 165.125C180.36 165.125 177.673 166.227 175.437 168.43C173.201 170.633 172.083 173.281 172.083 176.375C172.083 179.469 173.201 182.117 175.437 184.32C177.673 186.523 180.36 187.625 183.5 187.625ZM166.375 137H200.625V125.75C200.625 121.062 198.96 117.078 195.63 113.797C192.3 110.516 188.257 108.875 183.5 108.875C178.743 108.875 174.7 110.516 171.37 113.797C168.04 117.078 166.375 121.062 166.375 125.75V137Z" fill="#FF916F"/>
</g>
</svg>
