<svg width="82" height="81" viewBox="0 0 82 81" fill="none" xmlns="http://www.w3.org/2000/svg">
<circle cx="40.5" cy="40.5" r="40.5" fill="black"/>
<path d="M41 0C18.368 0 0 18.144 0 40.5C0 62.856 18.368 81 41 81C63.632 81 82 62.856 82 40.5C82 18.144 63.632 0 41 0ZM41 12.15C47.806 12.15 53.3 17.577 53.3 24.3C53.3 31.023 47.806 36.45 41 36.45C34.194 36.45 28.7 31.023 28.7 24.3C28.7 17.577 34.194 12.15 41 12.15ZM41 69.66C30.75 69.66 21.689 64.476 16.4 56.619C16.523 48.5595 32.8 44.145 41 44.145C49.159 44.145 65.477 48.5595 65.6 56.619C60.311 64.476 51.25 69.66 41 69.66Z" fill="#FF916F"/>
</svg>
