<svg xmlns="http://www.w3.org/2000/svg" width="65" height="65" viewBox="0 0 65 65" fill="none">
  <circle cx="32.5" cy="32.5" r="32.5" fill="#A9A9A9"/>
  <path d="M30.9129 31.1913C29.9682 31.0353 29.1362 30.7363 28.4169 30.2943C27.6976 29.8437 27.1429 29.2933 26.7529 28.6433C26.3802 29.2933 25.8342 29.8437 25.1149 30.2943C24.4042 30.7363 23.5766 31.0353 22.6319 31.1913L22.0989 30.1513C22.6882 30.0647 23.2256 29.9173 23.7109 29.7093C24.1962 29.4927 24.6122 29.237 24.9589 28.9423C25.3142 28.6477 25.5872 28.3227 25.7779 27.9673C25.9772 27.6033 26.0769 27.235 26.0769 26.8623V26.4203H27.4549V26.8623C27.4549 27.2437 27.5502 27.6163 27.7409 27.9803C27.9402 28.3357 28.2132 28.6607 28.5599 28.9553C28.9152 29.2413 29.3356 29.4927 29.8209 29.7093C30.3149 29.9173 30.8522 30.0647 31.4329 30.1513L30.9129 31.1913ZM32.1089 32.2963V33.3883H21.4619V32.2963H26.0899V30.4763H27.4289V32.2963H32.1089ZM24.1529 36.5213H30.8999V37.6133H22.8009V34.2333H24.1529V36.5213Z" fill="white"/>
  <path d="M43.1059 26.0953V32.7123H41.7539V26.0953H43.1059ZM40.7919 31.4383C39.8559 31.629 38.9329 31.7677 38.0229 31.8543C37.1129 31.9323 36.1422 31.9713 35.1109 31.9713H34.1359V26.7713H35.4749V30.8533C36.4022 30.8447 37.2776 30.8057 38.1009 30.7363C38.9329 30.6583 39.7779 30.5327 40.6359 30.3593L40.7919 31.4383ZM35.4099 33.2453H43.1059V37.6913H35.4099V33.2453ZM36.7359 36.6123H41.7929V34.3113H36.7359V36.6123Z" fill="white"/>
</svg>