<svg xmlns="http://www.w3.org/2000/svg" width="65" height="65" viewBox="0 0 65 65" fill="none">
  <circle cx="32.5" cy="32.5" r="32.5" fill="#FF7A51"/>
  <path d="M19.1878 32.0492H17.8488V26.0822H19.1878V32.0492ZM15.8988 29.1242C15.8988 29.5142 15.8208 29.8695 15.6648 30.1902C15.5088 30.5108 15.2922 30.7882 15.0148 31.0222C14.7462 31.2562 14.4212 31.4382 14.0398 31.5682C13.6585 31.6982 13.2468 31.7632 12.8048 31.7632C12.3628 31.7632 11.9555 31.6982 11.5828 31.5682C11.2101 31.4382 10.8851 31.2562 10.6078 31.0222C10.3391 30.7882 10.1268 30.5108 9.97082 30.1902C9.81482 29.8695 9.73682 29.5142 9.73682 29.1242C9.73682 28.7342 9.81482 28.3788 9.97082 28.0582C10.1268 27.7288 10.3391 27.4472 10.6078 27.2132C10.8851 26.9792 11.2101 26.7972 11.5828 26.6672C11.9555 26.5372 12.3628 26.4722 12.8048 26.4722C13.2468 26.4722 13.6585 26.5372 14.0398 26.6672C14.4212 26.7972 14.7462 26.9792 15.0148 27.2132C15.2922 27.4472 15.5088 27.7288 15.6648 28.0582C15.8208 28.3788 15.8988 28.7342 15.8988 29.1242ZM11.0368 29.1242C11.0368 29.3582 11.0801 29.5705 11.1668 29.7612C11.2621 29.9518 11.3878 30.1165 11.5438 30.2552C11.6998 30.3852 11.8861 30.4892 12.1028 30.5672C12.3195 30.6365 12.5535 30.6712 12.8048 30.6712C13.0648 30.6712 13.3032 30.6365 13.5198 30.5672C13.7365 30.4892 13.9228 30.3852 14.0788 30.2552C14.2435 30.1165 14.3692 29.9518 14.4558 29.7612C14.5512 29.5705 14.5988 29.3582 14.5988 29.1242C14.5988 28.8902 14.5512 28.6778 14.4558 28.4872C14.3692 28.2965 14.2435 28.1362 14.0788 28.0062C13.9228 27.8675 13.7365 27.7635 13.5198 27.6942C13.3032 27.6162 13.0648 27.5772 12.8048 27.5772C12.5535 27.5772 12.3195 27.6162 12.1028 27.6942C11.8861 27.7635 11.6998 27.8675 11.5438 28.0062C11.3878 28.1362 11.2621 28.2965 11.1668 28.4872C11.0801 28.6778 11.0368 28.8902 11.0368 29.1242ZM19.5388 36.6382V37.6912H11.5178V34.6102H17.8618V33.6352H11.4918V32.5822H19.1878V35.5982H12.8308V36.6382H19.5388Z" fill="white"/>
  <path d="M32.3038 29.5532V30.6582H30.6398V34.7272H29.3008V26.1082H30.6398V29.5532H32.3038ZM27.4158 32.8292H21.8778V26.9402H23.2168V28.7732H26.0898V26.9402H27.4158V32.8292ZM26.0898 29.8132H23.2168V31.7502H26.0898V29.8132ZM24.5558 36.5212H31.1078V37.6132H23.2038V33.8952H24.5558V36.5212Z" fill="white"/>
  <path d="M43.0928 26.0822V37.8342H41.7408V26.0822H43.0928ZM40.8308 28.5392H33.7328V27.4602H36.6188V26.1082H37.9578V27.4602H40.8308V28.5392ZM37.9578 34.5452C38.4865 34.5105 39.0108 34.4758 39.5308 34.4412C40.0595 34.3978 40.5751 34.3415 41.0778 34.2722L41.1688 35.2472C40.5188 35.3598 39.8645 35.4465 39.2058 35.5072C38.5471 35.5678 37.8928 35.6155 37.2428 35.6502C36.6015 35.6848 35.9775 35.7065 35.3708 35.7152C34.7728 35.7238 34.2051 35.7282 33.6678 35.7282L33.4988 34.6232C33.9668 34.6232 34.4651 34.6232 34.9938 34.6232C35.5225 34.6145 36.0641 34.6015 36.6188 34.5842V33.4402C35.9428 33.3362 35.4055 33.0978 35.0068 32.7252C34.6168 32.3438 34.4218 31.8672 34.4218 31.2952C34.4218 30.9658 34.4911 30.6668 34.6298 30.3982C34.7685 30.1295 34.9635 29.8998 35.2148 29.7092C35.4748 29.5185 35.7781 29.3712 36.1248 29.2672C36.4801 29.1632 36.8701 29.1112 37.2948 29.1112C37.7195 29.1112 38.1051 29.1632 38.4518 29.2672C38.8071 29.3712 39.1105 29.5185 39.3618 29.7092C39.6131 29.8998 39.8081 30.1295 39.9468 30.3982C40.0855 30.6668 40.1548 30.9658 40.1548 31.2952C40.1548 31.8672 39.9555 32.3438 39.5568 32.7252C39.1668 33.0978 38.6338 33.3362 37.9578 33.4402V34.5452ZM35.6958 31.2952C35.6958 31.6592 35.8431 31.9452 36.1378 32.1532C36.4325 32.3612 36.8181 32.4652 37.2948 32.4652C37.7628 32.4652 38.1441 32.3612 38.4388 32.1532C38.7335 31.9452 38.8808 31.6592 38.8808 31.2952C38.8808 30.9312 38.7335 30.6495 38.4388 30.4502C38.1441 30.2422 37.7628 30.1382 37.2948 30.1382C36.8181 30.1382 36.4325 30.2422 36.1378 30.4502C35.8431 30.6495 35.6958 30.9312 35.6958 31.2952Z" fill="white"/>
  <path d="M53.7778 32.9852V26.0822H55.1168V35.0132H53.7778V33.9212H51.4768V32.9852H53.7778ZM49.1368 30.6712C48.7121 30.6712 48.3178 30.6235 47.9538 30.5282C47.5984 30.4242 47.2908 30.2855 47.0308 30.1122C46.7794 29.9302 46.5801 29.7135 46.4328 29.4622C46.2941 29.2022 46.2248 28.9162 46.2248 28.6042C46.2248 28.2922 46.2941 28.0105 46.4328 27.7592C46.5801 27.4992 46.7794 27.2825 47.0308 27.1092C47.2908 26.9272 47.5984 26.7885 47.9538 26.6932C48.3178 26.5892 48.7121 26.5372 49.1368 26.5372C49.5701 26.5372 49.9644 26.5892 50.3198 26.6932C50.6751 26.7885 50.9784 26.9272 51.2298 27.1092C51.4811 27.2825 51.6761 27.4992 51.8148 27.7592C51.9621 28.0105 52.0358 28.2922 52.0358 28.6042C52.0358 28.9162 51.9621 29.2022 51.8148 29.4622C51.6761 29.7135 51.4811 29.9302 51.2298 30.1122C50.9784 30.2855 50.6751 30.4242 50.3198 30.5282C49.9644 30.6235 49.5701 30.6712 49.1368 30.6712ZM49.1368 27.5252C48.6428 27.5252 48.2441 27.6248 47.9408 27.8242C47.6461 28.0148 47.4988 28.2748 47.4988 28.6042C47.4988 28.9335 47.6461 29.1978 47.9408 29.3972C48.2441 29.5878 48.6428 29.6832 49.1368 29.6832C49.6308 29.6832 50.0251 29.5878 50.3198 29.3972C50.6144 29.1978 50.7618 28.9335 50.7618 28.6042C50.7618 28.2748 50.6144 28.0148 50.3198 27.8242C50.0251 27.6248 49.6308 27.5252 49.1368 27.5252ZM48.6038 32.4522C48.0318 32.4782 47.4858 32.4955 46.9658 32.5042C46.4544 32.5128 45.9648 32.5172 45.4968 32.5172L45.3278 31.4252C45.8651 31.4252 46.4414 31.4208 47.0568 31.4122C47.6808 31.4035 48.3178 31.3905 48.9678 31.3732C49.6178 31.3472 50.2721 31.3125 50.9308 31.2692C51.5894 31.2172 52.2308 31.1522 52.8548 31.0742L52.9588 32.0362C52.4648 32.1228 51.9621 32.1965 51.4508 32.2572C50.9481 32.3092 50.4454 32.3482 49.9428 32.3742V34.6362H48.6038V32.4522ZM55.3898 36.5212V37.6132H46.9138V34.1422H48.2528V36.5212H55.3898Z" fill="white"/>
</svg>