<svg width="24" height="24" viewBox="0 0 24 24" fill="none" xmlns="http://www.w3.org/2000/svg">
<g opacity="0.6">
<mask id="mask0_346_226" style="mask-type:alpha" maskUnits="userSpaceOnUse" x="0" y="0" width="24" height="24">
<rect width="23.8679" height="24" fill="#D9D9D9"/>
</mask>
<g mask="url(#mask0_346_226)">
<path d="M12.0334 21C11.7517 21 11.5155 20.9042 11.3249 20.7125C11.1342 20.5208 11.0389 20.2833 11.0389 20C11.0389 19.8833 11.0638 19.7625 11.1135 19.6375C11.1633 19.5125 11.2378 19.4 11.3373 19.3L15.9368 14.675L15.2158 13.95L10.6411 18.575C10.5417 18.675 10.434 18.75 10.3179 18.8C10.2019 18.85 10.0776 18.875 9.94499 18.875C9.66322 18.875 9.42703 18.7792 9.23641 18.5875C9.0458 18.3958 8.9505 18.1583 8.9505 17.875C8.9505 17.7083 8.97536 17.5708 9.02508 17.4625C9.07481 17.3542 9.14111 17.2583 9.22398 17.175L13.8235 12.55L13.1274 11.85L8.52783 16.45C8.42838 16.55 8.32065 16.625 8.20462 16.675C8.0886 16.725 7.956 16.75 7.80682 16.75C7.54162 16.75 7.30957 16.65 7.11068 16.45C6.91178 16.25 6.81233 16.0167 6.81233 15.75C6.81233 15.6167 6.83719 15.4917 6.88691 15.375C6.93664 15.2583 7.01123 15.15 7.11068 15.05L11.7102 10.425L10.9892 9.725L6.41453 14.35C6.33165 14.4333 6.2322 14.5 6.11618 14.55C6.00015 14.6 5.85927 14.625 5.69352 14.625C5.41174 14.625 5.17555 14.5292 4.98494 14.3375C4.79433 14.1458 4.69902 13.9083 4.69902 13.625C4.69902 13.4917 4.72388 13.3667 4.77361 13.25C4.82333 13.1333 4.89792 13.025 4.99737 12.925L10.5417 7.35L14.2711 11.125C14.4534 11.3083 14.6689 11.4542 14.9175 11.5625C15.1661 11.6708 15.4147 11.725 15.6634 11.725C16.1938 11.725 16.6579 11.5375 17.0557 11.1625C17.4534 10.7875 17.6523 10.3083 17.6523 9.725C17.6523 9.49167 17.6109 9.25 17.528 9C17.4452 8.75 17.296 8.51667 17.0805 8.3L12.6301 3.825C12.9119 3.55833 13.2268 3.35417 13.5749 3.2125C13.923 3.07083 14.2711 3 14.6191 3C15.0501 3 15.4479 3.07083 15.8125 3.2125C16.1772 3.35417 16.5087 3.575 16.807 3.875L21.0088 8.125C21.3071 8.425 21.5267 8.75833 21.6676 9.125C21.8085 9.49167 21.879 9.91667 21.879 10.4C21.879 10.7333 21.8044 11.0708 21.6552 11.4125C21.506 11.7542 21.2906 12.0667 21.0088 12.35L12.7296 20.7C12.597 20.8333 12.481 20.9167 12.3815 20.95C12.2821 20.9833 12.166 21 12.0334 21ZM3.50562 13L2.8592 12.35C2.57742 12.0833 2.36195 11.7667 2.21278 11.4C2.0636 11.0333 1.98901 10.65 1.98901 10.25C1.98901 9.81667 2.07189 9.41667 2.23764 9.05C2.40339 8.68333 2.61057 8.375 2.8592 8.125L7.06095 3.875C7.32615 3.60833 7.64107 3.39583 8.00572 3.2375C8.37037 3.07917 8.72673 3 9.07481 3C9.52233 3 9.92013 3.0625 10.2682 3.1875C10.6163 3.3125 10.9561 3.54167 11.2876 3.875L16.3844 9C16.4838 9.1 16.5584 9.20833 16.6081 9.325C16.6579 9.44167 16.6827 9.56667 16.6827 9.7C16.6827 9.96667 16.5833 10.2 16.3844 10.4C16.1855 10.6 15.9534 10.7 15.6882 10.7C15.539 10.7 15.4147 10.6792 15.3153 10.6375C15.2158 10.5958 15.1081 10.5167 14.9921 10.4L10.5168 5.95L3.50562 13Z" fill="#FF0000"/>
</g>
</g>
</svg>
