<svg width="26" height="24" viewBox="0 0 26 24" fill="none" xmlns="http://www.w3.org/2000/svg">
<mask id="mask0_255_5" style="mask-type:alpha" maskUnits="userSpaceOnUse" x="2" y="0" width="24" height="24">
<rect x="2" width="24" height="24" fill="#D9D9D9"/>
</mask>
<g mask="url(#mask0_255_5)">
<path d="M13.25 22C12.7 22 12.1458 21.9375 11.5875 21.8125C11.0292 21.6875 10.4583 21.5083 9.875 21.275C10.075 19.2583 10.6583 17.375 11.625 15.625C12.5917 13.875 13.8333 12.3333 15.35 11C13.5167 11.9333 11.9292 13.1667 10.5875 14.7C9.24583 16.2333 8.30833 17.9833 7.775 19.95C7.70833 19.9 7.64583 19.8458 7.5875 19.7875L7.4 19.6C6.61667 18.8167 6.02083 17.9417 5.6125 16.975C5.20417 16.0083 5 15 5 13.95C5 12.8167 5.225 11.7333 5.675 10.7C6.125 9.66667 6.75 8.75 7.55 7.95C8.9 6.6 10.65 5.72083 12.8 5.3125C14.95 4.90417 17.9667 4.86667 21.85 5.2C22.15 9.18333 22.1 12.2208 21.7 14.3125C21.3 16.4042 20.4333 18.1167 19.1 19.45C18.2833 20.2667 17.3708 20.8958 16.3625 21.3375C15.3542 21.7792 14.3167 22 13.25 22Z" fill="#1C1B1F"/>
</g>
<mask id="mask1_255_5" style="mask-type:alpha" maskUnits="userSpaceOnUse" x="0" y="0" width="24" height="24">
<rect width="24" height="24" fill="#D9D9D9"/>
</mask>
<g mask="url(#mask1_255_5)">
<path d="M11.25 22C10.7 22 10.1458 21.9375 9.5875 21.8125C9.02917 21.6875 8.45833 21.5083 7.875 21.275C8.075 19.2583 8.65833 17.375 9.625 15.625C10.5917 13.875 11.8333 12.3333 13.35 11C11.5167 11.9333 9.92917 13.1667 8.5875 14.7C7.24583 16.2333 6.30833 17.9833 5.775 19.95C5.70833 19.9 5.64583 19.8458 5.5875 19.7875L5.4 19.6C4.61667 18.8167 4.02083 17.9417 3.6125 16.975C3.20417 16.0083 3 15 3 13.95C3 12.8167 3.225 11.7333 3.675 10.7C4.125 9.66667 4.75 8.75 5.55 7.95C6.9 6.6 8.65 5.72083 10.8 5.3125C12.95 4.90417 15.9667 4.86667 19.85 5.2C20.15 9.18333 20.1 12.2208 19.7 14.3125C19.3 16.4042 18.4333 18.1167 17.1 19.45C16.2833 20.2667 15.3708 20.8958 14.3625 21.3375C13.3542 21.7792 12.3167 22 11.25 22Z" fill="#FF916F"/>
</g>
</svg>
