<svg width="35" height="32" viewBox="0 0 35 32" fill="none" xmlns="http://www.w3.org/2000/svg">
<mask id="mask0_255_4" style="mask-type:alpha" maskUnits="userSpaceOnUse" x="3" y="0" width="32" height="32">
<rect x="3" width="32" height="32" fill="#D9D9D9"/>
</mask>
<g mask="url(#mask0_255_4)">
<path d="M19.0001 28C16.4001 28 14.1945 27.0944 12.3834 25.2833C10.5723 23.4722 9.66675 21.2667 9.66675 18.6667C9.66675 16.5778 10.2834 14.7055 11.5167 13.05C12.7501 11.3944 14.3667 10.2778 16.3667 9.69999C15.9223 9.58888 15.489 9.42777 15.0667 9.21665C14.6445 9.00554 14.2667 8.73332 13.9334 8.39999C13.2001 7.66665 12.7279 6.79443 12.5167 5.78332C12.3056 4.77221 12.2556 3.74443 12.3667 2.69999C13.4112 2.58888 14.439 2.63888 15.4501 2.84999C16.4612 3.0611 17.3334 3.53332 18.0667 4.26665C18.5779 4.77777 18.9501 5.35554 19.1834 5.99999C19.4167 6.64443 19.5667 7.32221 19.6334 8.03332C19.9223 7.34443 20.2723 6.69443 20.6834 6.08332C21.0945 5.47221 21.5556 4.9111 22.0667 4.39999C22.3112 4.15554 22.6223 4.03332 23.0001 4.03332C23.3779 4.03332 23.689 4.15554 23.9334 4.39999C24.1779 4.64443 24.3001 4.95554 24.3001 5.33332C24.3001 5.7111 24.1779 6.02221 23.9334 6.26665C23.4445 6.75554 23.0112 7.29443 22.6334 7.88332C22.2556 8.47221 21.9779 9.09999 21.8001 9.76665C23.7556 10.3889 25.3334 11.5167 26.5334 13.15C27.7334 14.7833 28.3334 16.6222 28.3334 18.6667C28.3334 21.2667 27.4279 23.4722 25.6167 25.2833C23.8056 27.0944 21.6001 28 19.0001 28Z" fill="black"/>
</g>
<mask id="mask1_255_4" style="mask-type:alpha" maskUnits="userSpaceOnUse" x="0" y="0" width="32" height="32">
<rect width="32" height="32" fill="#D9D9D9"/>
</mask>
<g mask="url(#mask1_255_4)">
<path d="M16.0001 28C13.4001 28 11.1945 27.0944 9.38341 25.2833C7.5723 23.4722 6.66675 21.2667 6.66675 18.6667C6.66675 16.5778 7.28341 14.7055 8.51675 13.05C9.75008 11.3944 11.3667 10.2778 13.3667 9.69999C12.9223 9.58888 12.489 9.42777 12.0667 9.21665C11.6445 9.00554 11.2667 8.73332 10.9334 8.39999C10.2001 7.66665 9.72786 6.79443 9.51675 5.78332C9.30564 4.77221 9.25564 3.74443 9.36675 2.69999C10.4112 2.58888 11.439 2.63888 12.4501 2.84999C13.4612 3.0611 14.3334 3.53332 15.0667 4.26665C15.5779 4.77777 15.9501 5.35554 16.1834 5.99999C16.4167 6.64443 16.5667 7.32221 16.6334 8.03332C16.9223 7.34443 17.2723 6.69443 17.6834 6.08332C18.0945 5.47221 18.5556 4.9111 19.0667 4.39999C19.3112 4.15554 19.6223 4.03332 20.0001 4.03332C20.3779 4.03332 20.689 4.15554 20.9334 4.39999C21.1779 4.64443 21.3001 4.95554 21.3001 5.33332C21.3001 5.7111 21.1779 6.02221 20.9334 6.26665C20.4445 6.75554 20.0112 7.29443 19.6334 7.88332C19.2556 8.47221 18.9779 9.09999 18.8001 9.76665C20.7556 10.3889 22.3334 11.5167 23.5334 13.15C24.7334 14.7833 25.3334 16.6222 25.3334 18.6667C25.3334 21.2667 24.4279 23.4722 22.6167 25.2833C20.8056 27.0944 18.6001 28 16.0001 28Z" fill="#FF916F"/>
</g>
</svg>
