<svg width="26" height="24" viewBox="0 0 26 24" fill="none" xmlns="http://www.w3.org/2000/svg">
<mask id="mask0_482_3" style="mask-type:alpha" maskUnits="userSpaceOnUse" x="2" y="0" width="24" height="24">
<rect x="2" width="24" height="24" fill="#D9D9D9"/>
</mask>
<g mask="url(#mask0_482_3)">
<path d="M18 11C18.2833 11 18.5208 10.9042 18.7125 10.7125C18.9042 10.5208 19 10.2833 19 10C19 9.71667 18.9042 9.47917 18.7125 9.2875C18.5208 9.09583 18.2833 9 18 9C17.7167 9 17.4792 9.09583 17.2875 9.2875C17.0958 9.47917 17 9.71667 17 10C17 10.2833 17.0958 10.5208 17.2875 10.7125C17.4792 10.9042 17.7167 11 18 11ZM10 9H15V7H10V9ZM6.5 21C5.93333 19.1 5.375 17.2042 4.825 15.3125C4.275 13.4208 4 11.4833 4 9.5C4 7.96667 4.53333 6.66667 5.6 5.6C6.66667 4.53333 7.96667 4 9.5 4H14.5C14.9833 3.36667 15.5708 2.875 16.2625 2.525C16.9542 2.175 17.7 2 18.5 2C18.9167 2 19.2708 2.14583 19.5625 2.4375C19.8542 2.72917 20 3.08333 20 3.5C20 3.58333 19.9583 3.775 19.875 4.075C19.8083 4.25833 19.7458 4.44583 19.6875 4.6375C19.6292 4.82917 19.5833 5.025 19.55 5.225L21.825 7.5H24V14.475L21.175 15.4L19.5 21H14V19H12V21H6.5Z" fill="#1C1B1F"/>
</g>
<mask id="mask1_482_3" style="mask-type:alpha" maskUnits="userSpaceOnUse" x="0" y="0" width="24" height="24">
<rect width="24" height="24" fill="#D9D9D9"/>
</mask>
<g mask="url(#mask1_482_3)">
<path d="M16 11C16.2833 11 16.5208 10.9042 16.7125 10.7125C16.9042 10.5208 17 10.2833 17 10C17 9.71667 16.9042 9.47917 16.7125 9.2875C16.5208 9.09583 16.2833 9 16 9C15.7167 9 15.4792 9.09583 15.2875 9.2875C15.0958 9.47917 15 9.71667 15 10C15 10.2833 15.0958 10.5208 15.2875 10.7125C15.4792 10.9042 15.7167 11 16 11ZM8 9H13V7H8V9ZM4.5 21C3.93333 19.1 3.375 17.2042 2.825 15.3125C2.275 13.4208 2 11.4833 2 9.5C2 7.96667 2.53333 6.66667 3.6 5.6C4.66667 4.53333 5.96667 4 7.5 4H12.5C12.9833 3.36667 13.5708 2.875 14.2625 2.525C14.9542 2.175 15.7 2 16.5 2C16.9167 2 17.2708 2.14583 17.5625 2.4375C17.8542 2.72917 18 3.08333 18 3.5C18 3.58333 17.9583 3.775 17.875 4.075C17.8083 4.25833 17.7458 4.44583 17.6875 4.6375C17.6292 4.82917 17.5833 5.025 17.55 5.225L19.825 7.5H22V14.475L19.175 15.4L17.5 21H12V19H10V21H4.5Z" fill="#FF916F"/>
</g>
</svg>
