<svg width="52" height="70" viewBox="0 0 52 70" fill="none" xmlns="http://www.w3.org/2000/svg">
<path d="M9.716 54.38H11.186V63.732H9.716V54.38ZM2.828 65.72H11.55V66.91H2.828V65.72ZM2.828 62.85H4.298V66.308H2.828V62.85ZM3.822 55.08H5.04V56.354C5.04 58.846 3.738 61.086 1.442 61.954L0.686 60.778C2.716 60.036 3.822 58.202 3.822 56.354V55.08ZM4.102 55.08H5.306V56.354C5.306 58.16 6.412 59.868 8.4 60.554L7.644 61.716C5.39 60.904 4.102 58.804 4.102 56.354V55.08ZM16.2529 58.678H17.7089V61.058H16.2529V58.678ZM20.8589 58.678H22.3149V61.058H20.8589V58.678ZM13.5089 60.582H25.0729V61.744H13.5089V60.582ZM19.2769 62.57C22.0209 62.57 23.6869 63.396 23.6869 64.852C23.6869 66.322 22.0209 67.148 19.2769 67.148C16.5189 67.148 14.8669 66.322 14.8669 64.852C14.8669 63.396 16.5189 62.57 19.2769 62.57ZM19.2769 63.69C17.4009 63.69 16.3509 64.096 16.3509 64.852C16.3509 65.622 17.4009 66.028 19.2769 66.028C21.1529 66.028 22.2029 65.622 22.2029 64.852C22.2029 64.096 21.1529 63.69 19.2769 63.69ZM19.2909 54.576C22.0909 54.576 23.8549 55.486 23.8549 56.998C23.8549 58.51 22.0909 59.392 19.2909 59.392C16.4909 59.392 14.7409 58.51 14.7409 56.998C14.7409 55.486 16.4909 54.576 19.2909 54.576ZM19.2909 55.71C17.3869 55.71 16.2529 56.158 16.2529 56.998C16.2529 57.824 17.3869 58.272 19.2909 58.272C21.2089 58.272 22.3429 57.824 22.3429 56.998C22.3429 56.158 21.2089 55.71 19.2909 55.71ZM31.5678 55.654H32.9958C32.9958 59.462 31.8898 62.808 27.2278 65.146L26.4298 64.026C30.4478 62.024 31.5678 59.35 31.5678 55.822V55.654ZM27.1718 55.654H32.4358V56.83H27.1718V55.654ZM31.4838 58.804V59.938L26.7238 60.4L26.5138 59.126L31.4838 58.804ZM34.8438 54.352H36.3138V67.148H34.8438V54.352ZM35.9218 59.42H38.2318V60.624H35.9218V59.42ZM40.6947 60.4H49.5707V61.576H40.6947V60.4ZM39.2807 64.306H50.8727V65.51H39.2807V64.306ZM40.6947 55.486H49.4587V56.69H42.1507V60.904H40.6947V55.486Z" fill="black"/>
<mask id="mask0_482_6" style="mask-type:alpha" maskUnits="userSpaceOnUse" x="0" y="0" width="52" height="46">
<rect width="52" height="46" fill="#D9D9D9"/>
</mask>
<g mask="url(#mask0_482_6)">
<path d="M47.3333 14.8333V37.8333C47.3333 38.8875 46.909 39.7899 46.0604 40.5406C45.2118 41.2913 44.1917 41.6667 43 41.6667H8.33333C7.14167 41.6667 6.12153 41.2913 5.27292 40.5406C4.42431 39.7899 4 38.8875 4 37.8333V14.8333C4 13.7792 4.42431 12.8767 5.27292 12.126C6.12153 11.3753 7.14167 11 8.33333 11H43C44.1917 11 45.2118 11.3753 46.0604 12.126C46.909 12.8767 47.3333 13.7792 47.3333 14.8333ZM8.33333 18.6667H43V14.8333H8.33333V18.6667ZM8.33333 26.3333V37.8333H43V26.3333H8.33333Z" fill="#1C1B1F"/>
</g>
</svg>
