<svg xmlns="http://www.w3.org/2000/svg" width="20" height="20" viewBox="0 0 20 20" fill="none">
  <path d="M20 10C20 15.5228 15.5228 20 10 20C4.47715 20 0 15.5228 0 10C0 4.47715 4.47715 0 10 0C15.5228 0 20 4.47715 20 10Z" fill="#FF7A51"/>
  <path fill-rule="evenodd" clip-rule="evenodd" d="M15.3799 6.64907C15.5497 6.81887 15.5497 7.09416 15.3799 7.26395L9.00308 13.6408C8.83328 13.8106 8.55799 13.8106 8.3882 13.6408L5.48965 10.7422C5.31986 10.5724 5.31986 10.2971 5.48965 10.1273C5.65944 9.95754 5.93473 9.95754 6.10453 10.1273L8.69564 12.7184L14.765 6.64907C14.9348 6.47928 15.2101 6.47928 15.3799 6.64907Z" fill="white"/>
</svg>