<svg width="55" height="55" viewBox="0 0 55 55" fill="none" xmlns="http://www.w3.org/2000/svg">
<mask id="mask0_255_3" style="mask-type:alpha" maskUnits="userSpaceOnUse" x="0" y="0" width="55" height="55">
<rect width="55" height="55" fill="#D9D9D9"/>
</mask>
<g mask="url(#mask0_255_3)">
<path d="M27.5004 48.125C23.0317 48.125 19.2409 46.5686 16.128 43.4558C13.0152 40.3429 11.4587 36.5521 11.4587 32.0834C11.4587 28.4931 12.5186 25.2752 14.6384 22.4297C16.7582 19.5842 19.5369 17.665 22.9744 16.6719C22.2105 16.4809 21.4657 16.204 20.74 15.8412C20.0143 15.4783 19.365 15.0104 18.7921 14.4375C17.5317 13.1771 16.72 11.678 16.3572 9.94013C15.9943 8.20228 15.9084 6.43579 16.0994 4.64065C17.8945 4.44968 19.661 4.53561 21.3988 4.89846C23.1367 5.26131 24.6358 6.07294 25.8962 7.33336C26.7747 8.21183 27.4145 9.20488 27.8155 10.3125C28.2166 11.4202 28.4744 12.5851 28.5889 13.8073C29.0855 12.6233 29.687 11.5061 30.3936 10.4558C31.1002 9.40541 31.8928 8.441 32.7712 7.56252C33.1914 7.14238 33.7261 6.93232 34.3754 6.93232C35.0247 6.93232 35.5594 7.14238 35.9796 7.56252C36.3997 7.98266 36.6098 8.51738 36.6098 9.16669C36.6098 9.816 36.3997 10.3507 35.9796 10.7709C35.1393 11.6111 34.3945 12.5373 33.7452 13.5495C33.0959 14.5617 32.6185 15.6406 32.3129 16.7865C35.674 17.8559 38.3858 19.7943 40.4483 22.6016C42.5108 25.4089 43.5421 28.5695 43.5421 32.0834C43.5421 36.5521 41.9856 40.3429 38.8728 43.4558C35.76 46.5686 31.9692 48.125 27.5004 48.125Z" fill="#FF916F"/>
</g>
<mask id="mask1_255_3" style="mask-type:alpha" maskUnits="userSpaceOnUse" x="12" y="18" width="31" height="31">
<rect x="12.2222" y="18.189" width="30.1481" height="30.315" fill="#D9D9D9"/>
</mask>
<g mask="url(#mask1_255_3)">
<path d="M27.4217 44.7146C27.0658 44.7146 26.7675 44.5935 26.5267 44.3514C26.2859 44.1093 26.1655 43.8093 26.1655 43.4514C26.1655 43.3041 26.197 43.1514 26.2598 42.9935C26.3226 42.8357 26.4168 42.6936 26.5424 42.5672L32.3522 36.7253L31.4415 35.8095L25.6631 41.6515C25.5375 41.7778 25.4014 41.8725 25.2548 41.9357C25.1083 41.9988 24.9512 42.0304 24.7838 42.0304C24.4278 42.0304 24.1295 41.9094 23.8887 41.6673C23.648 41.4252 23.5276 41.1252 23.5276 40.7673C23.5276 40.5568 23.559 40.3831 23.6218 40.2463C23.6846 40.1094 23.7684 39.9884 23.873 39.8831L29.6828 34.0412L28.8035 33.157L22.9937 38.9673C22.8681 39.0937 22.732 39.1884 22.5855 39.2515C22.4389 39.3147 22.2714 39.3463 22.083 39.3463C21.748 39.3463 21.4549 39.22 21.2037 38.9673C20.9524 38.7147 20.8268 38.42 20.8268 38.0832C20.8268 37.9147 20.8582 37.7568 20.921 37.6095C20.9838 37.4621 21.078 37.3253 21.2037 37.199L27.0135 31.357L26.1027 30.4728L20.3243 36.3148C20.2197 36.42 20.094 36.5043 19.9475 36.5674C19.8009 36.6306 19.623 36.6621 19.4136 36.6621C19.0577 36.6621 18.7594 36.5411 18.5186 36.299C18.2778 36.0569 18.1574 35.7569 18.1574 35.399C18.1574 35.2306 18.1889 35.0727 18.2517 34.9253C18.3145 34.778 18.4087 34.6411 18.5343 34.5148L25.5375 27.4729L30.2481 32.2412C30.4784 32.4728 30.7506 32.657 31.0646 32.7938C31.3787 32.9307 31.6927 32.9991 32.0068 32.9991C32.6767 32.9991 33.2629 32.7622 33.7654 32.2886C34.2679 31.8149 34.5191 31.2097 34.5191 30.4728C34.5191 30.1781 34.4668 29.8729 34.3621 29.5571C34.2574 29.2413 34.069 28.9466 33.7968 28.6729L28.1754 23.0204C28.5313 22.6836 28.9291 22.4257 29.3688 22.2467C29.8085 22.0678 30.2481 21.9783 30.6878 21.9783C31.2321 21.9783 31.7346 22.0678 32.1952 22.2467C32.6558 22.4257 33.0745 22.7046 33.4514 23.0836L38.7587 28.4518C39.1355 28.8308 39.4129 29.2518 39.5909 29.715C39.7689 30.1781 39.8578 30.7149 39.8578 31.3254C39.8578 31.7465 39.7636 32.1728 39.5752 32.6044C39.3868 33.0359 39.1146 33.4307 38.7587 33.7885L28.301 44.3356C28.1336 44.504 27.987 44.6093 27.8614 44.6514C27.7358 44.6935 27.5892 44.7146 27.4217 44.7146ZM16.65 34.6096L15.8335 33.7885C15.4776 33.4517 15.2054 33.0517 15.017 32.5886C14.8286 32.1254 14.7344 31.6412 14.7344 31.136C14.7344 30.5886 14.8391 30.0834 15.0484 29.6202C15.2578 29.1571 15.5195 28.7676 15.8335 28.4518L21.1409 23.0836C21.4758 22.7467 21.8736 22.4783 22.3342 22.2783C22.7948 22.0783 23.2449 21.9783 23.6846 21.9783C24.2499 21.9783 24.7524 22.0573 25.192 22.2152C25.6317 22.3731 26.0609 22.6625 26.4796 23.0836L32.9175 29.5571C33.0431 29.6834 33.1373 29.8202 33.2001 29.9676C33.2629 30.115 33.2943 30.2728 33.2943 30.4413C33.2943 30.7781 33.1687 31.0728 32.9175 31.3254C32.6662 31.5781 32.3731 31.7044 32.0382 31.7044C31.8497 31.7044 31.6927 31.6781 31.5671 31.6254C31.4415 31.5728 31.3054 31.4728 31.1588 31.3254L25.5061 25.7045L16.65 34.6096Z" fill="#FF0000"/>
</g>
<rect x="5" y="41" width="2" height="11" fill="black"/>
<rect width="2.34559" height="10.0038" transform="matrix(0.0092528 0.999957 -0.999961 0.00880837 15.0034 50)" fill="black"/>
<rect width="2.30539" height="11.3437" transform="matrix(-0.999978 -0.00657301 0.00603355 -0.999982 50.1353 21.8981)" fill="black"/>
<rect width="2.3456" height="10.0038" transform="matrix(-0.00321932 -0.999995 0.999997 -0.00223544 40.1873 12.6804)" fill="black"/>
</svg>
