<svg width="74" height="60" viewBox="0 0 74 60" fill="none" xmlns="http://www.w3.org/2000/svg">
<path d="M30.1333 10.248H34.3893V32.392H30.1333V10.248ZM33.1733 19.272H38.3253V22.76H33.1733V19.272ZM11.0613 13.32H28.5013V16.648H11.0613V13.32ZM19.7973 17.704C24.0533 17.704 27.0613 20.04 27.0613 23.432C27.0613 26.824 24.0533 29.128 19.7973 29.128C15.5093 29.128 12.5013 26.824 12.5013 23.432C12.5013 20.04 15.5093 17.704 19.7973 17.704ZM19.7973 20.936C17.9093 20.936 16.5973 21.832 16.5973 23.432C16.5973 25.032 17.9093 25.896 19.7973 25.896C21.6853 25.896 22.9973 25.032 22.9973 23.432C22.9973 21.832 21.6853 20.936 19.7973 20.936ZM17.6533 10.184H21.9093V14.952H17.6533V10.184ZM15.2853 35.944H35.4453V39.336H15.2853V35.944ZM15.2853 30.728H19.5413V37.416H15.2853V30.728Z" fill="black"/>
<path d="M41.2453 32.408H44.4453V33.176C44.4453 39.32 42.6533 45.496 37.9173 48.216L35.5173 45.016C39.7413 42.552 41.2453 37.72 41.2453 33.176V32.408ZM42.0773 32.408H45.2773V33.176C45.2773 37.624 46.8133 42.136 51.0053 44.376L48.7013 47.512C43.9013 45.016 42.0773 39.224 42.0773 33.176V32.408ZM36.5093 29.208H49.9813V32.632H36.5093V29.208ZM41.2453 25.208H45.2773V31.96H41.2453V25.208ZM57.6933 24.216H61.7253V53.848H57.6933V24.216ZM54.1413 35.576H59.0693V39.032H54.1413V35.576ZM51.3253 24.664H55.2933V52.504H51.3253V24.664Z" fill="#1DD100"/>
<mask id="mask0_348_2" style="mask-type:alpha" maskUnits="userSpaceOnUse" x="57" y="12" width="14" height="16">
<rect x="57" y="12" width="14" height="16" fill="#D9D9D9"/>
</mask>
<g mask="url(#mask0_348_2)">
<path d="M63.5625 26.6667C63.2417 26.6667 62.9184 26.625 62.5927 26.5417C62.267 26.4583 61.934 26.3389 61.5938 26.1833C61.7104 24.8389 62.0507 23.5833 62.6146 22.4167C63.1785 21.25 63.9028 20.2222 64.7875 19.3333C63.7181 19.9556 62.792 20.7778 62.0094 21.8C61.2267 22.8222 60.6799 23.9889 60.3688 25.3C60.3299 25.2667 60.2934 25.2306 60.2594 25.1917L60.15 25.0667C59.6931 24.5445 59.3455 23.9611 59.1073 23.3167C58.8691 22.6722 58.75 22 58.75 21.3C58.75 20.5445 58.8813 19.8222 59.1438 19.1333C59.4063 18.4445 59.7708 17.8333 60.2375 17.3C61.025 16.4 62.0458 15.8139 63.3 15.5417C64.5542 15.2695 66.3139 15.2445 68.5792 15.4667C68.7542 18.1222 68.725 20.1472 68.4917 21.5417C68.2583 22.9361 67.7528 24.0778 66.975 24.9667C66.4986 25.5111 65.9663 25.9306 65.3781 26.225C64.7899 26.5195 64.1847 26.6667 63.5625 26.6667Z" fill="#1DD100"/>
</g>
<mask id="mask1_348_2" style="mask-type:alpha" maskUnits="userSpaceOnUse" x="14" y="19" width="11" height="10">
<rect x="14" y="19" width="11" height="9.63257" fill="#D9D9D9"/>
</mask>
<g mask="url(#mask1_348_2)">
<path d="M19.5 27.4286L18.8354 26.9068C18.0638 26.2981 17.426 25.773 16.9218 25.3315C16.4177 24.89 16.0166 24.4936 15.7187 24.1425C15.4208 23.7913 15.2126 23.4685 15.0942 23.1742C14.9758 22.8798 14.9166 22.5788 14.9166 22.2711C14.9166 21.6423 15.1573 21.1172 15.6385 20.6958C16.1198 20.2744 16.7194 20.0637 17.4375 20.0637C17.8347 20.0637 18.2128 20.1372 18.5718 20.2844C18.9309 20.4316 19.2402 20.6389 19.5 20.9065C19.7597 20.6389 20.0691 20.4316 20.4281 20.2844C20.7871 20.1372 21.1652 20.0637 21.5625 20.0637C22.2805 20.0637 22.8802 20.2744 23.3614 20.6958C23.8427 21.1172 24.0833 21.6423 24.0833 22.2711C24.0833 22.5788 24.0241 22.8798 23.9057 23.1742C23.7873 23.4685 23.5791 23.7913 23.2812 24.1425C22.9833 24.4936 22.5823 24.89 22.0781 25.3315C21.5739 25.773 20.9361 26.2981 20.1645 26.9068L19.5 27.4286Z" fill="#FF3D00"/>
</g>
<path d="M19.5 25C19.0821 25 18.7277 24.8572 18.4366 24.5715C18.1455 24.2858 18 23.9379 18 23.5277C18 23.1982 18.0991 22.9029 18.2973 22.6417C18.4955 22.3806 18.7554 22.2044 19.0768 22.1133C19.0054 22.0957 18.9357 22.0703 18.8679 22.037C18.8 22.0037 18.7393 21.9608 18.6857 21.9082C18.5679 21.7925 18.492 21.6549 18.458 21.4954C18.4241 21.3359 18.4161 21.1738 18.4339 21.0091C18.6018 20.9915 18.767 20.9994 18.9295 21.0327C19.092 21.066 19.2321 21.1405 19.35 21.2562C19.4321 21.3368 19.492 21.428 19.5295 21.5296C19.567 21.6313 19.5911 21.7382 19.6018 21.8504C19.6482 21.7417 19.7045 21.6392 19.7705 21.5428C19.8366 21.4464 19.9107 21.3579 19.9929 21.2772C20.0321 21.2387 20.0821 21.2194 20.1429 21.2194C20.2036 21.2194 20.2536 21.2387 20.2929 21.2772C20.3321 21.3158 20.3518 21.3649 20.3518 21.4245C20.3518 21.4841 20.3321 21.5331 20.2929 21.5717C20.2143 21.6488 20.1446 21.7338 20.0839 21.8267C20.0232 21.9196 19.9786 22.0186 19.95 22.1238C20.2643 22.2219 20.5179 22.3998 20.7107 22.6575C20.9036 22.9151 21 23.2052 21 23.5277C21 23.9379 20.8545 24.2858 20.5634 24.5715C20.2723 24.8572 19.9179 25 19.5 25Z" fill="white"/>
</svg>
