<svg xmlns="http://www.w3.org/2000/svg" width="14" height="23" viewBox="0 0 14 23" fill="none">
  <path d="M5.82898 19.2382L4.93853 19.1506C5.08237 18.5978 5.10292 18.1798 5.10292 17.7685H1.63701V17.0674H6.00707V17.5798C6.00707 18.0719 6.00707 18.5978 5.82898 19.2382ZM3.80149 22.3326C4.6577 22.3326 5.14402 22.164 5.14402 21.8337C5.14402 21.4966 4.6577 21.3281 3.80149 21.3281C2.95214 21.3281 2.46582 21.4966 2.46582 21.8337C2.46582 22.164 2.95214 22.3326 3.80149 22.3326ZM3.80149 20.6607C5.16457 20.6607 6.04132 21.1056 6.04132 21.8337C6.04132 22.5551 5.16457 23 3.80149 23C2.44527 23 1.56852 22.5551 1.56852 21.8337C1.56852 21.1056 2.44527 20.6607 3.80149 20.6607ZM4.00698 19.5685H6.67834V20.2697H1V19.5685H3.10283V18.4831H4.00698V19.5685Z" fill="#505050"/>
  <path d="M10.13 17.7079C9.3012 17.7079 8.77378 17.9506 8.77378 18.3888C8.77378 18.8337 9.3012 19.0697 10.13 19.0697C10.952 19.0697 11.4794 18.8337 11.4794 18.3888C11.4794 17.9506 10.952 17.7079 10.13 17.7079ZM10.13 19.7775C8.78063 19.7775 7.84909 19.2382 7.84909 18.3888C7.84909 17.5461 8.78063 17 10.13 17C11.4725 17 12.4109 17.5461 12.4109 18.3888C12.4109 19.2382 11.4725 19.7775 10.13 19.7775ZM13 20.2427V20.964H11.678V22.9933H10.7602V20.964H9.49299V22.9933H8.58199V20.964H7.28742V20.2427H13Z" fill="#505050"/>
  <path d="M1 8V12.8C1 13.1183 1.15804 13.4235 1.43934 13.6485C1.72064 13.8736 2.10218 14 2.5 14H11.5C11.8978 14 12.2794 13.8736 12.5607 13.6485C12.842 13.4235 13 13.1183 13 12.8V8" stroke="#414141" stroke-width="1.5" stroke-linecap="round" stroke-linejoin="round"/>
  <path d="M11 5L7 1L3 5" stroke="#414141" stroke-width="1.5" stroke-linecap="round" stroke-linejoin="round"/>
  <path d="M7 2V10" stroke="#414141" stroke-width="1.5" stroke-linecap="round" stroke-linejoin="round"/>
</svg>