<svg width="104" height="98" viewBox="0 0 104 98" fill="none" xmlns="http://www.w3.org/2000/svg">
<path d="M37.9499 15.872H44.3339V49.088H37.9499V15.872ZM42.5099 29.408H50.2379V34.64H42.5099V29.408ZM9.34188 20.48H35.5019V25.472H9.34188V20.48ZM22.4459 27.056C28.8299 27.056 33.3419 30.56 33.3419 35.648C33.3419 40.736 28.8299 44.192 22.4459 44.192C16.0139 44.192 11.5019 40.736 11.5019 35.648C11.5019 30.56 16.0139 27.056 22.4459 27.056ZM22.4459 31.904C19.6139 31.904 17.6459 33.248 17.6459 35.648C17.6459 38.048 19.6139 39.344 22.4459 39.344C25.2779 39.344 27.2459 38.048 27.2459 35.648C27.2459 33.248 25.2779 31.904 22.4459 31.904ZM19.2299 15.776H25.6139V22.928H19.2299V15.776ZM15.6779 54.416H45.9179V59.504H15.6779V54.416ZM15.6779 46.592H22.0619V56.624H15.6779V46.592Z" fill="black"/>
<path d="M57.1179 49.112H61.9179V50.264C61.9179 59.48 59.2299 68.744 52.1259 72.824L48.5259 68.024C54.8619 64.328 57.1179 57.08 57.1179 50.264V49.112ZM58.3659 49.112H63.1659V50.264C63.1659 56.936 65.4699 63.704 71.7579 67.064L68.3019 71.768C61.1019 68.024 58.3659 59.336 58.3659 50.264V49.112ZM50.0139 44.312H70.2219V49.448H50.0139V44.312ZM57.1179 38.312H63.1659V48.44H57.1179V38.312ZM81.7899 36.824H87.8379V81.272H81.7899V36.824ZM76.4619 53.864H83.8539V59.048H76.4619V53.864ZM72.2379 37.496H78.1899V79.256H72.2379V37.496Z" fill="#1DD100"/>
<path d="M12.809 78.132H14.538V87.128H12.809V78.132ZM14.044 81.798H16.137V83.215H14.044V81.798ZM5.06102 79.38H12.146V80.732H5.06102V79.38ZM8.61002 81.161C10.339 81.161 11.561 82.11 11.561 83.488C11.561 84.866 10.339 85.802 8.61002 85.802C6.86802 85.802 5.64602 84.866 5.64602 83.488C5.64602 82.11 6.86802 81.161 8.61002 81.161ZM8.61002 82.474C7.84302 82.474 7.31002 82.838 7.31002 83.488C7.31002 84.138 7.84302 84.489 8.61002 84.489C9.37702 84.489 9.91002 84.138 9.91002 83.488C9.91002 82.838 9.37702 82.474 8.61002 82.474ZM7.73902 78.106H9.46802V80.043H7.73902V78.106ZM6.77702 88.571H14.967V89.949H6.77702V88.571ZM6.77702 86.452H8.50602V89.169H6.77702V86.452ZM18.359 78.626H25.99V80.004H18.359V78.626ZM17.033 82.786H27.927V84.164H17.033V82.786ZM21.596 83.761H23.325V86.283H21.596V83.761ZM24.95 78.626H26.653V79.588C26.653 80.628 26.653 81.837 26.276 83.423L24.573 83.254C24.95 81.707 24.95 80.602 24.95 79.588V78.626ZM18.125 85.854H26.666V90.157H24.937V87.219H18.125V85.854Z" fill="black"/>
<path d="M34.757 83.106H36.499V95.144H34.757V83.106ZM36.044 87.708H38.163V89.125H36.044V87.708ZM31.598 84.354H33.288C33.288 87.968 31.91 91.062 27.906 93.077L26.944 91.764C30.103 90.126 31.598 87.916 31.598 84.653V84.354ZM27.607 84.354H32.482V85.745H27.607V84.354ZM43.271 84.224H44.805V84.523C44.805 86.356 43.18 87.864 40.086 88.163L39.475 86.824C42.114 86.564 43.271 85.485 43.271 84.523V84.224ZM44.116 84.224H45.65V84.523C45.65 85.498 46.807 86.577 49.446 86.824L48.835 88.163C45.754 87.864 44.116 86.369 44.116 84.523V84.224ZM40.008 83.561H48.926V84.926H40.008V83.561ZM39.02 88.969H49.914V90.347H39.02V88.969ZM43.583 87.422H45.299V89.58H43.583V87.422ZM40.229 91.218H48.588V95.157H46.859V92.583H40.229V91.218Z" fill="#FF916F"/>
<path d="M58.044 81.669H60.163V83.086H58.044V81.669ZM56.757 77.106H58.499V89.144H56.757V77.106ZM49.425 78.263H51.154V85.738H49.425V78.263ZM49.425 84.776H50.465C52.181 84.776 54.04 84.659 55.977 84.269L56.159 85.686C54.17 86.102 52.233 86.206 50.465 86.206H49.425V84.776ZM65.57 83.047H67.286V85.426H65.57V83.047ZM62.398 80.057H70.705V81.435H62.398V80.057ZM62.398 77.288H64.114V80.707H62.398V77.288ZM61.033 82.332H71.927V83.71H61.033V82.332ZM62.372 84.776H70.588V89.027H62.372V84.776ZM68.911 86.128H64.062V87.662H68.911V86.128Z" fill="#FF916F"/>
<path d="M73.167 86.447H74.467V86.759C74.467 89.255 73.739 91.764 71.815 92.869L70.84 91.569C72.556 90.568 73.167 88.605 73.167 86.759V86.447ZM73.505 86.447H74.805V86.759C74.805 88.566 75.429 90.399 77.132 91.309L76.196 92.583C74.246 91.569 73.505 89.216 73.505 86.759V86.447ZM71.243 85.147H76.716V86.538H71.243V85.147ZM73.167 83.522H74.805V86.265H73.167V83.522ZM79.849 83.119H81.487V95.157H79.849V83.119ZM78.406 87.734H80.408V89.138H78.406V87.734ZM77.262 83.301H78.874V94.611H77.262V83.301ZM83.033 92.336H93.927V93.753H83.033V92.336ZM87.557 89.658H89.273V92.713H87.557V89.658ZM87.492 83.782H89V84.653C89 87.214 87.141 89.476 83.995 90.048L83.28 88.605C86.023 88.163 87.492 86.317 87.492 84.653V83.782ZM87.83 83.782H89.338V84.653C89.338 86.356 90.807 88.163 93.563 88.605L92.848 90.048C89.689 89.463 87.83 87.253 87.83 84.653V83.782Z" fill="#1DD100"/>
<mask id="mask0_219_5" style="mask-type:alpha" maskUnits="userSpaceOnUse" x="80" y="18" width="24" height="24">
<rect x="80" y="18" width="24" height="24" fill="#D9D9D9"/>
</mask>
<g mask="url(#mask0_219_5)">
<path d="M91.25 40.0001C90.7 40.0001 90.1458 39.9376 89.5875 39.8126C89.0292 39.6876 88.4583 39.5084 87.875 39.2751C88.075 37.2584 88.6583 35.3751 89.625 33.6251C90.5917 31.8751 91.8333 30.3334 93.35 29.0001C91.5167 29.9334 89.9292 31.1667 88.5875 32.7001C87.2458 34.2334 86.3083 35.9834 85.775 37.9501C85.7083 37.9001 85.6458 37.8459 85.5875 37.7876L85.4 37.6001C84.6167 36.8167 84.0208 35.9417 83.6125 34.9751C83.2042 34.0084 83 33.0001 83 31.9501C83 30.8167 83.225 29.7334 83.675 28.7001C84.125 27.6667 84.75 26.7501 85.55 25.9501C86.9 24.6001 88.65 23.7209 90.8 23.3126C92.95 22.9042 95.9667 22.8667 99.85 23.2001C100.15 27.1834 100.1 30.2209 99.7 32.3126C99.3 34.4042 98.4333 36.1167 97.1 37.4501C96.2833 38.2667 95.3708 38.8959 94.3625 39.3376C93.3542 39.7792 92.3167 40.0001 91.25 40.0001Z" fill="#1DD100"/>
</g>
<mask id="mask1_219_5" style="mask-type:alpha" maskUnits="userSpaceOnUse" x="15" y="29" width="15" height="15">
<rect x="15" y="29" width="15" height="14.6326" fill="#D9D9D9"/>
</mask>
<g mask="url(#mask1_219_5)">
<path d="M22.4998 41.8035L21.5935 41.0109C20.5414 40.0862 19.6716 39.2886 18.9841 38.6179C18.2966 37.9472 17.7498 37.3452 17.3435 36.8117C16.9373 36.2782 16.6534 35.7879 16.4919 35.3408C16.3305 34.8937 16.2498 34.4364 16.2498 33.969C16.2498 33.0138 16.5779 32.2162 17.2341 31.576C17.8904 30.9358 18.7081 30.6157 19.6873 30.6157C20.2289 30.6157 20.7445 30.7275 21.2341 30.9511C21.7237 31.1746 22.1456 31.4896 22.4998 31.8961C22.8539 31.4896 23.2758 31.1746 23.7654 30.9511C24.255 30.7275 24.7706 30.6157 25.3123 30.6157C26.2914 30.6157 27.1091 30.9358 27.7654 31.576C28.4216 32.2162 28.7498 33.0138 28.7498 33.969C28.7498 34.4364 28.669 34.8937 28.5076 35.3408C28.3461 35.7879 28.0623 36.2782 27.656 36.8117C27.2498 37.3452 26.7029 37.9472 26.0154 38.6179C25.3279 39.2886 24.4581 40.0862 23.406 41.0109L22.4998 41.8035Z" fill="#FF3D00"/>
</g>
<path d="M22.5 38C21.8036 38 21.2128 37.7857 20.7277 37.3572C20.2426 36.9287 20 36.4068 20 35.7916C20 35.2973 20.1652 34.8543 20.4955 34.4626C20.8259 34.0708 21.2589 33.8066 21.7946 33.6699C21.6756 33.6436 21.5595 33.6055 21.4464 33.5556C21.3333 33.5056 21.2321 33.4412 21.1429 33.3623C20.9464 33.1888 20.8199 32.9824 20.7634 32.7432C20.7068 32.5039 20.6935 32.2607 20.7232 32.0136C21.003 31.9873 21.2783 31.9991 21.5491 32.0491C21.8199 32.099 22.0536 32.2108 22.25 32.3843C22.3869 32.5052 22.4866 32.6419 22.5491 32.7944C22.6116 32.9469 22.6518 33.1073 22.6696 33.2756C22.747 33.1126 22.8408 32.9588 22.9509 32.8142C23.061 32.6696 23.1845 32.5368 23.3214 32.4158C23.3869 32.358 23.4702 32.3291 23.5714 32.3291C23.6726 32.3291 23.756 32.358 23.8214 32.4158C23.8869 32.4737 23.9196 32.5473 23.9196 32.6367C23.9196 32.7261 23.8869 32.7997 23.8214 32.8575C23.6905 32.9732 23.5744 33.1007 23.4732 33.2401C23.372 33.3794 23.2976 33.5279 23.25 33.6857C23.7738 33.8329 24.1964 34.0998 24.5179 34.4862C24.8393 34.8727 25 35.3078 25 35.7916C25 36.4068 24.7574 36.9287 24.2723 37.3572C23.7872 37.7857 23.1964 38 22.5 38Z" fill="white"/>
</svg>
