<svg width="300" height="148" viewBox="0 0 300 148" fill="none" xmlns="http://www.w3.org/2000/svg">
<path d="M140.795 88.668H143.735V94.744H140.795V88.668ZM142.251 77.328C146.171 77.328 149.083 79.848 149.083 83.46C149.083 87.072 146.171 89.592 142.251 89.592C138.275 89.592 135.391 87.072 135.391 83.46C135.391 79.848 138.275 77.328 142.251 77.328ZM142.251 79.82C139.927 79.82 138.247 81.248 138.247 83.46C138.247 85.672 139.927 87.1 142.251 87.1C144.547 87.1 146.227 85.672 146.227 83.46C146.227 81.248 144.547 79.82 142.251 79.82ZM151.603 75.732H154.543V101.324H151.603V75.732ZM153.675 86.036H158.295V88.472H153.675V86.036ZM134.747 95.976L134.355 93.596C138.891 93.568 144.967 93.568 150.119 92.868L150.343 95.024C144.995 95.976 139.143 96.004 134.747 95.976ZM183.734 75.732H186.674V91.132H183.734V75.732ZM185.862 82.312H190.286V84.748H185.862V82.312ZM170.35 92.448H186.674V101.016H170.35V92.448ZM183.79 94.772H173.234V98.664H183.79V94.772ZM166.738 78.252H181.802V80.604H166.738V78.252ZM174.27 81.64C177.938 81.64 180.458 83.488 180.458 86.232C180.458 89.004 177.938 90.796 174.27 90.796C170.574 90.796 168.054 89.004 168.054 86.232C168.054 83.488 170.574 81.64 174.27 81.64ZM174.27 83.852C172.254 83.852 170.882 84.748 170.882 86.232C170.882 87.716 172.254 88.612 174.27 88.612C176.286 88.612 177.658 87.716 177.658 86.232C177.658 84.748 176.286 83.852 174.27 83.852ZM172.814 75.536H175.726V79.484H172.814V75.536ZM196.22 78.728H198.712C198.712 84.664 198.012 90.544 194.568 95.556L192.3 94.296C195.576 89.676 196.22 84.748 196.22 78.952V78.728ZM192.972 78.728H197.732V81.108H192.972V78.728ZM201.876 78.728H204.368C204.368 84.692 204.032 91.524 200.252 97.04L197.984 95.752C201.624 90.656 201.876 84.664 201.876 78.98V78.728ZM199.496 78.728H203.5V81.108H199.496V78.728ZM211.648 75.732H214.448V101.324H211.648V75.732ZM203.164 85.588H207.336V87.94H203.164V85.588ZM206.804 76.348H209.576V100.092H206.804V76.348ZM32.6716 116.704H35.6116V142.352H32.6716V116.704ZM15.8996 118.832H18.8116V125.356H25.2796V118.832H28.1916V136.276H15.8996V118.832ZM18.8116 127.652V133.896H25.2796V127.652H18.8116ZM40.3134 136.668H63.4974V139.076H40.3134V136.668ZM50.3374 120.232H52.8294V122.052C52.8294 127.344 48.1814 131.46 42.4974 132.58L41.3214 130.228C46.3054 129.416 50.3374 125.888 50.3374 122.052V120.232ZM50.9254 120.232H53.3894V122.052C53.3894 125.888 57.4494 129.332 62.5174 130.116L61.3694 132.468C55.5734 131.376 50.9254 127.344 50.9254 122.052V120.232ZM42.2174 119.084H61.5094V121.464H42.2174V119.084ZM84.2712 116.732H87.1832V142.324H84.2712V116.732ZM67.5552 119.196H70.4672V135.072H67.5552V119.196ZM67.5552 133.336H69.7392C73.5472 133.336 77.6352 133.056 81.9192 132.188L82.2552 134.652C77.8312 135.576 73.7152 135.856 69.7392 135.856H67.5552V133.336ZM101.741 118.356H104.289V120.288C104.289 125.832 99.641 130.424 93.873 131.656L92.585 129.22C97.653 128.296 101.741 124.32 101.741 120.288V118.356ZM102.301 118.356H104.849V120.288C104.849 124.376 108.937 128.296 114.005 129.22L112.717 131.656C106.949 130.424 102.301 125.888 102.301 120.288V118.356ZM91.829 136.612H115.013V139.02H91.829V136.612ZM117.559 128.436H140.743V130.62H117.559V128.436ZM120.247 132.328H137.915V138.068H123.215V140.7H120.303V136.136H135.031V134.372H120.247V132.328ZM120.303 140H138.699V142.044H120.303V140ZM120.471 117.348H137.831V122.976H123.411V125.44H120.499V121.072H134.947V119.364H120.471V117.348ZM120.499 124.796H138.307V126.84H120.499V124.796ZM156.13 118.832H158.538V123.032C158.538 129.22 155.766 134.904 151.174 137.144L149.41 134.708C153.498 132.86 156.13 127.932 156.13 123.032V118.832ZM156.69 118.832H159.07V123.032C159.07 127.736 161.674 132.44 165.706 134.232L163.97 136.584C159.462 134.456 156.69 128.996 156.69 123.032V118.832ZM167.75 116.704H170.69V142.352H167.75V116.704ZM181.412 119.364H183.82V121.212C183.82 125.972 181.216 130.088 176.68 131.628L175.14 129.36C179.172 127.988 181.412 124.684 181.412 121.212V119.364ZM181.972 119.364H184.352V121.212C184.352 124.432 186.508 127.568 190.428 128.856L188.944 131.152C184.464 129.64 181.972 125.692 181.972 121.212V119.364ZM175.98 118.384H189.728V120.764H175.98V118.384ZM192.416 116.732H195.356V132.132H192.416V116.732ZM194.544 123.228H198.968V125.664H194.544V123.228ZM178.528 133.392H195.356V142.324H192.416V135.772H178.528V133.392ZM218.061 116.732H220.973V142.324H218.061V116.732ZM220.301 127.008H224.949V129.444H220.301V127.008ZM201.009 120.68H216.017V123.032H201.009V120.68ZM208.597 124.88C212.237 124.88 214.925 127.344 214.925 130.844C214.925 134.372 212.237 136.836 208.597 136.836C204.929 136.836 202.241 134.372 202.241 130.844C202.241 127.344 204.929 124.88 208.597 124.88ZM208.597 127.288C206.525 127.288 205.041 128.688 205.041 130.844C205.041 133 206.525 134.428 208.597 134.428C210.641 134.428 212.125 133 212.125 130.844C212.125 128.688 210.641 127.288 208.597 127.288ZM207.085 117.096H210.025V121.66H207.085V117.096ZM236.959 125.636H241.579V128.044H236.959V125.636ZM231.891 119.056H234.159V123.676C234.159 129.22 232.199 134.624 228.307 137.004L226.515 134.792C230.127 132.608 231.891 128.044 231.891 123.676V119.056ZM232.507 119.056H234.719V123.564C234.719 127.68 236.287 131.992 239.703 134.148L238.051 136.444C234.215 134.064 232.507 128.772 232.507 123.564V119.056ZM245.947 116.732H248.747V142.324H245.947V116.732ZM240.739 117.208H243.483V141.092H240.739V117.208ZM258.069 129.836H260.981V137.256H258.069V129.836ZM267.449 129.836H270.389V137.256H267.449V129.836ZM252.665 136.78H275.849V139.188H252.665V136.78ZM264.201 118.188C269.661 118.188 273.609 120.82 273.609 124.908C273.609 128.968 269.661 131.6 264.201 131.6C258.741 131.6 254.793 128.968 254.793 124.908C254.793 120.82 258.741 118.188 264.201 118.188ZM264.201 120.484C260.337 120.484 257.649 122.192 257.649 124.908C257.649 127.596 260.337 129.304 264.201 129.304C268.065 129.304 270.753 127.596 270.753 124.908C270.753 122.192 268.065 120.484 264.201 120.484ZM280.859 133.448L280.383 122.248L280.299 118.888H283.547L283.463 122.248L283.015 133.448H280.859ZM281.923 140.392C280.719 140.392 279.767 139.44 279.767 138.124C279.767 136.78 280.719 135.856 281.923 135.856C283.155 135.856 284.079 136.78 284.079 138.124C284.079 139.44 283.155 140.392 281.923 140.392Z" fill="black"/>
<mask id="mask0_569_2" style="mask-type:alpha" maskUnits="userSpaceOnUse" x="123" y="0" width="55" height="55">
<rect x="123" width="55" height="55" fill="#D9D9D9"/>
</mask>
<g mask="url(#mask0_569_2)">
<path d="M150.5 48.1251C146.032 48.1251 142.241 46.5687 139.128 43.4559C136.015 40.343 134.459 36.5522 134.459 32.0835C134.459 28.4932 135.519 25.2753 137.638 22.4298C139.758 19.5843 142.537 17.6651 145.974 16.672C145.21 16.481 144.466 16.2041 143.74 15.8413C143.014 15.4784 142.365 15.0106 141.792 14.4376C140.532 13.1772 139.72 11.6781 139.357 9.94025C138.994 8.2024 138.908 6.43591 139.099 4.64077C140.895 4.4498 142.661 4.53574 144.399 4.89858C146.137 5.26143 147.636 6.07306 148.896 7.33348C149.775 8.21195 150.414 9.20501 150.816 10.3126C151.217 11.4203 151.474 12.5852 151.589 13.8074C152.085 12.6234 152.687 11.5062 153.394 10.4559C154.1 9.40553 154.893 8.44112 155.771 7.56265C156.191 7.14251 156.726 6.93244 157.375 6.93244C158.025 6.93244 158.559 7.14251 158.98 7.56265C159.4 7.98278 159.61 8.51751 159.61 9.16681C159.61 9.81612 159.4 10.3508 158.98 10.771C158.139 11.6113 157.395 12.5375 156.745 13.5496C156.096 14.5618 155.618 15.6408 155.313 16.7866C158.674 17.856 161.386 19.7944 163.448 22.6017C165.511 25.409 166.542 28.5696 166.542 32.0835C166.542 36.5522 164.986 40.343 161.873 43.4559C158.76 46.5687 154.969 48.1251 150.5 48.1251Z" fill="#FF916F"/>
</g>
<mask id="mask1_569_2" style="mask-type:alpha" maskUnits="userSpaceOnUse" x="135" y="18" width="31" height="31">
<rect x="135.222" y="18.189" width="30.1481" height="30.315" fill="#D9D9D9"/>
</mask>
<g mask="url(#mask1_569_2)">
<path d="M150.422 44.7145C150.066 44.7145 149.767 44.5934 149.527 44.3513C149.286 44.1092 149.166 43.8093 149.166 43.4514C149.166 43.304 149.197 43.1514 149.26 42.9935C149.323 42.8356 149.417 42.6935 149.542 42.5672L155.352 36.7252L154.441 35.8095L148.663 41.6514C148.537 41.7777 148.401 41.8725 148.255 41.9356C148.108 41.9988 147.951 42.0304 147.784 42.0304C147.428 42.0304 147.13 41.9093 146.889 41.6672C146.648 41.4251 146.528 41.1251 146.528 40.7672C146.528 40.5567 146.559 40.383 146.622 40.2462C146.685 40.1094 146.768 39.9883 146.873 39.883L152.683 34.0411L151.804 33.1569L145.994 38.9673C145.868 39.0936 145.732 39.1883 145.585 39.2515C145.439 39.3146 145.271 39.3462 145.083 39.3462C144.748 39.3462 144.455 39.2199 144.204 38.9673C143.952 38.7147 143.827 38.4199 143.827 38.0831C143.827 37.9147 143.858 37.7568 143.921 37.6094C143.984 37.4621 144.078 37.3252 144.204 37.1989L150.013 31.357L149.103 30.4728L143.324 36.3147C143.22 36.42 143.094 36.5042 142.947 36.5673C142.801 36.6305 142.623 36.6621 142.414 36.6621C142.058 36.6621 141.759 36.541 141.519 36.2989C141.278 36.0568 141.157 35.7568 141.157 35.399C141.157 35.2305 141.189 35.0727 141.252 34.9253C141.314 34.7779 141.409 34.6411 141.534 34.5148L148.537 27.4729L153.248 32.2411C153.478 32.4727 153.751 32.6569 154.065 32.7938C154.379 32.9306 154.693 32.999 155.007 32.999C155.677 32.999 156.263 32.7622 156.765 32.2885C157.268 31.8148 157.519 31.2096 157.519 30.4728C157.519 30.178 157.467 29.8728 157.362 29.557C157.257 29.2412 157.069 28.9465 156.797 28.6728L151.175 23.0203C151.531 22.6835 151.929 22.4256 152.369 22.2467C152.808 22.0677 153.248 21.9783 153.688 21.9783C154.232 21.9783 154.735 22.0677 155.195 22.2467C155.656 22.4256 156.074 22.7046 156.451 23.0835L161.759 28.4518C162.136 28.8307 162.413 29.2518 162.591 29.7149C162.769 30.178 162.858 30.7149 162.858 31.3254C162.858 31.7464 162.764 32.1727 162.575 32.6043C162.387 33.0359 162.115 33.4306 161.759 33.7885L151.301 44.3356C151.134 44.504 150.987 44.6092 150.861 44.6513C150.736 44.6934 150.589 44.7145 150.422 44.7145ZM139.65 34.6095L138.834 33.7885C138.478 33.4516 138.205 33.0517 138.017 32.5885C137.829 32.1254 137.734 31.6412 137.734 31.1359C137.734 30.5886 137.839 30.0833 138.048 29.6202C138.258 29.157 138.519 28.7676 138.834 28.4518L144.141 23.0835C144.476 22.7467 144.874 22.4783 145.334 22.2783C145.795 22.0783 146.245 21.9783 146.685 21.9783C147.25 21.9783 147.752 22.0572 148.192 22.2151C148.632 22.373 149.061 22.6625 149.48 23.0835L155.917 29.557C156.043 29.6833 156.137 29.8202 156.2 29.9675C156.263 30.1149 156.294 30.2728 156.294 30.4412C156.294 30.778 156.169 31.0728 155.917 31.3254C155.666 31.578 155.373 31.7043 155.038 31.7043C154.85 31.7043 154.693 31.678 154.567 31.6254C154.441 31.5727 154.305 31.4727 154.159 31.3254L148.506 25.7045L139.65 34.6095Z" fill="#FF0000"/>
</g>
<rect x="128" y="41" width="2" height="11" fill="black"/>
<rect width="2.34559" height="10.0038" transform="matrix(0.0092528 0.999957 -0.999961 0.00880837 138.003 50)" fill="black"/>
<rect width="2.30539" height="11.3437" transform="matrix(-0.999978 -0.00657301 0.00603355 -0.999982 173.135 21.8979)" fill="black"/>
<rect width="2.3456" height="10.0038" transform="matrix(-0.00321932 -0.999995 0.999997 -0.00223544 163.187 12.6804)" fill="black"/>
<path d="M94.1333 65.248H98.3893V87.392H94.1333V65.248ZM97.1733 74.272H102.325V77.76H97.1733V74.272ZM75.0613 68.32H92.5013V71.648H75.0613V68.32ZM83.7973 72.704C88.0533 72.704 91.0613 75.04 91.0613 78.432C91.0613 81.824 88.0533 84.128 83.7973 84.128C79.5093 84.128 76.5013 81.824 76.5013 78.432C76.5013 75.04 79.5093 72.704 83.7973 72.704ZM83.7973 75.936C81.9093 75.936 80.5973 76.832 80.5973 78.432C80.5973 80.032 81.9093 80.896 83.7973 80.896C85.6853 80.896 86.9973 80.032 86.9973 78.432C86.9973 76.832 85.6853 75.936 83.7973 75.936ZM81.6533 65.184H85.9093V69.952H81.6533V65.184ZM79.2853 90.944H99.4453V94.336H79.2853V90.944ZM79.2853 85.728H83.5413V92.416H79.2853V85.728Z" fill="black"/>
<path d="M105.245 87.408H108.445V88.176C108.445 94.32 106.653 100.496 101.917 103.216L99.5173 100.016C103.741 97.552 105.245 92.72 105.245 88.176V87.408ZM106.077 87.408H109.277V88.176C109.277 92.624 110.813 97.136 115.005 99.376L112.701 102.512C107.901 100.016 106.077 94.224 106.077 88.176V87.408ZM100.509 84.208H113.981V87.632H100.509V84.208ZM105.245 80.208H109.277V86.96H105.245V80.208ZM121.693 79.216H125.725V108.848H121.693V79.216ZM118.141 90.576H123.069V94.032H118.141V90.576ZM115.325 79.664H119.293V107.504H115.325V79.664Z" fill="#1DD100"/>
<mask id="mask2_569_2" style="mask-type:alpha" maskUnits="userSpaceOnUse" x="121" y="67" width="14" height="16">
<rect x="121" y="67" width="14" height="16" fill="#D9D9D9"/>
</mask>
<g mask="url(#mask2_569_2)">
<path d="M127.563 81.6667C127.242 81.6667 126.918 81.625 126.593 81.5417C126.267 81.4584 125.934 81.3389 125.594 81.1834C125.71 79.8389 126.051 78.5834 126.615 77.4167C127.178 76.25 127.903 75.2223 128.788 74.3334C127.718 74.9556 126.792 75.7778 126.009 76.8C125.227 77.8223 124.68 78.9889 124.369 80.3C124.33 80.2667 124.293 80.2306 124.259 80.1917L124.15 80.0667C123.693 79.5445 123.345 78.9612 123.107 78.3167C122.869 77.6723 122.75 77 122.75 76.3C122.75 75.5445 122.881 74.8223 123.144 74.1334C123.406 73.4445 123.771 72.8334 124.238 72.3C125.025 71.4 126.046 70.8139 127.3 70.5417C128.554 70.2695 130.314 70.2445 132.579 70.4667C132.754 73.1223 132.725 75.1473 132.492 76.5417C132.258 77.9362 131.753 79.0778 130.975 79.9667C130.499 80.5112 129.966 80.9306 129.378 81.225C128.79 81.5195 128.185 81.6667 127.563 81.6667Z" fill="#1DD100"/>
</g>
<mask id="mask3_569_2" style="mask-type:alpha" maskUnits="userSpaceOnUse" x="78" y="74" width="11" height="10">
<rect x="78" y="74" width="11" height="9.63257" fill="#D9D9D9"/>
</mask>
<g mask="url(#mask3_569_2)">
<path d="M83.4998 82.4286L82.8353 81.9069C82.0637 81.2981 81.4259 80.773 80.9217 80.3315C80.4175 79.89 80.0165 79.4937 79.7186 79.1425C79.4207 78.7913 79.2125 78.4686 79.0941 78.1742C78.9757 77.8799 78.9165 77.5789 78.9165 77.2712C78.9165 76.6424 79.1571 76.1173 79.6384 75.6959C80.1196 75.2744 80.7193 75.0637 81.4373 75.0637C81.8346 75.0637 82.2127 75.1373 82.5717 75.2845C82.9307 75.4316 83.2401 75.639 83.4998 75.9066C83.7596 75.639 84.0689 75.4316 84.428 75.2845C84.787 75.1373 85.1651 75.0637 85.5623 75.0637C86.2804 75.0637 86.88 75.2744 87.3613 75.6959C87.8425 76.1173 88.0832 76.6424 88.0832 77.2712C88.0832 77.5789 88.024 77.8799 87.9056 78.1742C87.7872 78.4686 87.579 78.7913 87.2811 79.1425C86.9832 79.4937 86.5821 79.89 86.078 80.3315C85.5738 80.773 84.9359 81.2981 84.1644 81.9069L83.4998 82.4286Z" fill="#FF3D00"/>
</g>
<path d="M83.5 80C83.0821 80 82.7277 79.8572 82.4366 79.5715C82.1455 79.2858 82 78.9379 82 78.5277C82 78.1982 82.0991 77.9029 82.2973 77.6417C82.4955 77.3806 82.7554 77.2044 83.0768 77.1133C83.0054 77.0957 82.9357 77.0703 82.8679 77.037C82.8 77.0037 82.7393 76.9608 82.6857 76.9082C82.5679 76.7925 82.492 76.6549 82.458 76.4954C82.4241 76.3359 82.4161 76.1738 82.4339 76.0091C82.6018 75.9915 82.767 75.9994 82.9295 76.0327C83.092 76.066 83.2321 76.1405 83.35 76.2562C83.4321 76.3368 83.492 76.428 83.5295 76.5296C83.567 76.6313 83.5911 76.7382 83.6018 76.8504C83.6482 76.7417 83.7045 76.6392 83.7705 76.5428C83.8366 76.4464 83.9107 76.3579 83.9929 76.2772C84.0321 76.2387 84.0821 76.2194 84.1429 76.2194C84.2036 76.2194 84.2536 76.2387 84.2929 76.2772C84.3321 76.3158 84.3518 76.3649 84.3518 76.4245C84.3518 76.4841 84.3321 76.5331 84.2929 76.5717C84.2143 76.6488 84.1446 76.7338 84.0839 76.8267C84.0232 76.9196 83.9786 77.0186 83.95 77.1238C84.2643 77.2219 84.5179 77.3998 84.7107 77.6575C84.9036 77.9151 85 78.2052 85 78.5277C85 78.9379 84.8545 79.2858 84.5634 79.5715C84.2723 79.8572 83.9179 80 83.5 80Z" fill="white"/>
</svg>
