<svg width="152" height="145" viewBox="0 0 152 145" fill="none" xmlns="http://www.w3.org/2000/svg">
<path d="M57.8227 22.48H67.1327V70.92H57.8227V22.48ZM64.4727 42.22H75.7427V49.85H64.4727V42.22ZM16.1027 29.2H54.2527V36.48H16.1027V29.2ZM35.2127 38.79C44.5227 38.79 51.1027 43.9 51.1027 51.32C51.1027 58.74 44.5227 63.78 35.2127 63.78C25.8327 63.78 19.2527 58.74 19.2527 51.32C19.2527 43.9 25.8327 38.79 35.2127 38.79ZM35.2127 45.86C31.0827 45.86 28.2127 47.82 28.2127 51.32C28.2127 54.82 31.0827 56.71 35.2127 56.71C39.3427 56.71 42.2127 54.82 42.2127 51.32C42.2127 47.82 39.3427 45.86 35.2127 45.86ZM30.5227 22.34H39.8327V32.77H30.5227V22.34ZM25.3427 78.69H69.4427V86.11H25.3427V78.69ZM25.3427 67.28H34.6527V81.91H25.3427V67.28Z" fill="black"/>
<path d="M80.9427 70.33H87.9427V72.01C87.9427 85.45 84.0227 98.96 73.6627 104.91L68.4127 97.91C77.6527 92.52 80.9427 81.95 80.9427 72.01V70.33ZM82.7627 70.33H89.7627V72.01C89.7627 81.74 93.1227 91.61 102.293 96.51L97.2527 103.37C86.7527 97.91 82.7627 85.24 82.7627 72.01V70.33ZM70.5827 63.33H100.053V70.82H70.5827V63.33ZM80.9427 54.58H89.7627V69.35H80.9427V54.58ZM116.923 52.41H125.743V117.23H116.923V52.41ZM109.153 77.26H119.933V84.82H109.153V77.26ZM102.993 53.39H111.673V114.29H102.993V53.39Z" fill="#1DD100"/>
<path d="M16.3216 114.28H18.9816V128.12H16.3216V114.28ZM18.2216 119.92H21.4416V122.1H18.2216V119.92ZM4.40156 116.2H15.3016V118.28H4.40156V116.2ZM9.86156 118.94C12.5216 118.94 14.4016 120.4 14.4016 122.52C14.4016 124.64 12.5216 126.08 9.86156 126.08C7.18156 126.08 5.30156 124.64 5.30156 122.52C5.30156 120.4 7.18156 118.94 9.86156 118.94ZM9.86156 120.96C8.68156 120.96 7.86156 121.52 7.86156 122.52C7.86156 123.52 8.68156 124.06 9.86156 124.06C11.0416 124.06 11.8616 123.52 11.8616 122.52C11.8616 121.52 11.0416 120.96 9.86156 120.96ZM8.52156 114.24H11.1816V117.22H8.52156V114.24ZM7.04156 130.34H19.6416V132.46H7.04156V130.34ZM7.04156 127.08H9.70156V131.26H7.04156V127.08ZM24.86 115.04H36.6V117.16H24.86V115.04ZM22.82 121.44H39.58V123.56H22.82V121.44ZM29.84 122.94H32.5V126.82H29.84V122.94ZM35 115.04H37.62V116.52C37.62 118.12 37.62 119.98 37.04 122.42L34.42 122.16C35 119.78 35 118.08 35 116.52V115.04ZM24.5 126.16H37.64V132.78H34.98V128.26H24.5V126.16Z" fill="black"/>
<path d="M46.2416 121.24H48.9216V139.76H46.2416V121.24ZM48.2216 128.32H51.4816V130.5H48.2216V128.32ZM41.3816 123.16H43.9816C43.9816 128.72 41.8616 133.48 35.7016 136.58L34.2216 134.56C39.0816 132.04 41.3816 128.64 41.3816 123.62V123.16ZM35.2416 123.16H42.7416V125.3H35.2416V123.16ZM59.34 122.96H61.7V123.42C61.7 126.24 59.2 128.56 54.44 129.02L53.5 126.96C57.56 126.56 59.34 124.9 59.34 123.42V122.96ZM60.64 122.96H63V123.42C63 124.92 64.78 126.58 68.84 126.96L67.9 129.02C63.16 128.56 60.64 126.26 60.64 123.42V122.96ZM54.32 121.94H68.04V124.04H54.32V121.94ZM52.8 130.26H69.56V132.38H52.8V130.26ZM59.82 127.88H62.46V131.2H59.82V127.88ZM54.66 133.72H67.52V139.78H64.86V135.82H54.66V133.72Z" fill="#FF916F"/>
<path d="M81.2216 121.26H84.4816V123.44H81.2216V121.26ZM79.2416 114.24H81.9216V132.76H79.2416V114.24ZM67.9616 116.02H70.6216V127.52H67.9616V116.02ZM67.9616 126.04H69.5616C72.2016 126.04 75.0616 125.86 78.0416 125.26L78.3216 127.44C75.2616 128.08 72.2816 128.24 69.5616 128.24H67.9616V126.04ZM92.8 123.38H95.44V127.04H92.8V123.38ZM87.92 118.78H100.7V120.9H87.92V118.78ZM87.92 114.52H90.56V119.78H87.92V114.52ZM85.82 122.28H102.58V124.4H85.82V122.28ZM87.88 126.04H100.52V132.58H87.88V126.04ZM97.94 128.12H90.48V130.48H97.94V128.12Z" fill="#FF916F"/>
<path d="M103.642 126.38H105.642V126.86C105.642 130.7 104.522 134.56 101.562 136.26L100.062 134.26C102.702 132.72 103.642 129.7 103.642 126.86V126.38ZM104.162 126.38H106.162V126.86C106.162 129.64 107.122 132.46 109.742 133.86L108.302 135.82C105.302 134.26 104.162 130.64 104.162 126.86V126.38ZM100.682 124.38H109.102V126.52H100.682V124.38ZM103.642 121.88H106.162V126.1H103.642V121.88ZM113.922 121.26H116.442V139.78H113.922V121.26ZM111.702 128.36H114.782V130.52H111.702V128.36ZM109.942 121.54H112.422V138.94H109.942V121.54ZM118.82 135.44H135.58V137.62H118.82V135.44ZM125.78 131.32H128.42V136.02H125.78V131.32ZM125.68 122.28H128V123.62C128 127.56 125.14 131.04 120.3 131.92L119.2 129.7C123.42 129.02 125.68 126.18 125.68 123.62V122.28ZM126.2 122.28H128.52V123.62C128.52 126.24 130.78 129.02 135.02 129.7L133.92 131.92C129.06 131.02 126.2 127.62 126.2 123.62V122.28Z" fill="#1DD100"/>
<mask id="mask0_346_155" style="mask-type:alpha" maskUnits="userSpaceOnUse" x="115" y="32" width="37" height="36">
<rect x="115" y="32" width="37" height="36" fill="#D9D9D9"/>
</mask>
<g mask="url(#mask0_346_155)">
<path d="M130.3 58.3742C129.452 58.3742 128.598 58.2805 127.737 58.093C126.876 57.9055 125.996 57.6367 125.097 57.2867C125.405 54.2617 126.305 51.4367 127.795 48.8117C129.285 46.1867 131.199 43.8742 133.538 41.8742C130.711 43.2742 128.264 45.1242 126.195 47.4242C124.127 49.7242 122.682 52.3492 121.859 55.2992C121.757 55.2242 121.66 55.143 121.57 55.0555L121.281 54.7742C120.074 53.5992 119.155 52.2867 118.526 50.8367C117.896 49.3867 117.581 47.8742 117.581 46.2992C117.581 44.5992 117.928 42.9742 118.622 41.4242C119.316 39.8742 120.279 38.4992 121.513 37.2992C123.594 35.2742 126.292 33.9555 129.606 33.343C132.921 32.7305 137.572 32.6742 143.558 33.1742C144.021 39.1492 143.944 43.7055 143.327 46.843C142.71 49.9805 141.374 52.5492 139.319 54.5492C138.06 55.7742 136.653 56.718 135.098 57.3805C133.544 58.043 131.944 58.3742 130.3 58.3742Z" fill="#1DD100"/>
</g>
<mask id="mask1_346_155" style="mask-type:alpha" maskUnits="userSpaceOnUse" x="20" y="40" width="30" height="27">
<rect x="20" y="40" width="30" height="26.6326" fill="#D9D9D9"/>
</mask>
<g mask="url(#mask1_346_155)">
<path d="M35 61L33.405 59.7248C31.5533 58.2371 30.0225 56.9537 28.8125 55.8747C27.6025 54.7956 26.64 53.827 25.925 52.9687C25.21 52.1104 24.7104 51.3215 24.4263 50.6022C24.1421 49.8828 24 49.1471 24 48.3951C24 46.8583 24.5775 45.5749 25.7325 44.545C26.8875 43.515 28.3267 43 30.05 43C31.0033 43 31.9108 43.1798 32.7725 43.5395C33.6342 43.8992 34.3767 44.406 35 45.0599C35.6233 44.406 36.3658 43.8992 37.2275 43.5395C38.0892 43.1798 38.9967 43 39.95 43C41.6733 43 43.1125 43.515 44.2675 44.545C45.4225 45.5749 46 46.8583 46 48.3951C46 49.1471 45.8579 49.8828 45.5738 50.6022C45.2896 51.3215 44.79 52.1104 44.075 52.9687C43.36 53.827 42.3975 54.7956 41.1875 55.8747C39.9775 56.9537 38.4467 58.2371 36.595 59.7248L35 61Z" fill="#FF3D00"/>
</g>
<path d="M35 57C33.6071 57 32.4256 56.6072 31.4554 55.8215C30.4851 55.0359 30 54.0791 30 52.9512C30 52.0451 30.3304 51.2329 30.9911 50.5147C31.6518 49.7966 32.5179 49.3121 33.5893 49.0615C33.3512 49.0133 33.119 48.9434 32.8929 48.8518C32.6667 48.7603 32.4643 48.6422 32.2857 48.4976C31.8929 48.1795 31.6399 47.8011 31.5268 47.3625C31.4137 46.9239 31.3869 46.478 31.4464 46.0249C32.006 45.9767 32.5565 45.9984 33.0982 46.09C33.6399 46.1816 34.1071 46.3864 34.5 46.7045C34.7738 46.9263 34.9732 47.1769 35.0982 47.4565C35.2232 47.736 35.3036 48.03 35.3393 48.3385C35.494 48.0397 35.6815 47.7577 35.9018 47.4926C36.122 47.2275 36.369 46.9841 36.6429 46.7624C36.7738 46.6563 36.9405 46.6033 37.1429 46.6033C37.3452 46.6033 37.5119 46.6563 37.6429 46.7624C37.7738 46.8684 37.8393 47.0034 37.8393 47.1673C37.8393 47.3311 37.7738 47.4661 37.6429 47.5721C37.381 47.7842 37.1488 48.018 36.9464 48.2734C36.744 48.5289 36.5952 48.8012 36.5 49.0904C37.5476 49.3603 38.3929 49.8496 39.0357 50.5581C39.6786 51.2666 40 52.0644 40 52.9512C40 54.0791 39.5149 55.0359 38.5446 55.8215C37.5744 56.6072 36.3929 57 35 57Z" fill="white"/>
</svg>
