<svg width="9" height="9" viewBox="0 0 9 9" fill="none" xmlns="http://www.w3.org/2000/svg">
<mask id="mask0_197_175" style="mask-type:alpha" maskUnits="userSpaceOnUse" x="0" y="0" width="9" height="9">
<rect width="9" height="9" fill="#D9D9D9"/>
</mask>
<g mask="url(#mask0_197_175)">
<path d="M5.78485 6.75C5.91711 6.75 6.0289 6.70469 6.12023 6.61406C6.21155 6.52344 6.25721 6.4125 6.25721 6.28125C6.25721 6.15 6.21155 6.03906 6.12023 5.94844C6.0289 5.85781 5.91711 5.8125 5.78485 5.8125C5.65259 5.8125 5.5408 5.85781 5.44948 5.94844C5.35816 6.03906 5.3125 6.15 5.3125 6.28125C5.3125 6.4125 5.35816 6.52344 5.44948 6.61406C5.5408 6.70469 5.65259 6.75 5.78485 6.75ZM5.44476 5.30625H6.14385C6.14385 5.1 6.16746 4.9375 6.2147 4.81875C6.26193 4.7 6.39577 4.5375 6.6162 4.33125C6.77995 4.16875 6.90906 4.01406 7.00353 3.86719C7.098 3.72031 7.14524 3.54375 7.14524 3.3375C7.14524 2.9875 7.01613 2.71875 6.75791 2.53125C6.49969 2.34375 6.19423 2.25 5.84154 2.25C5.48255 2.25 5.19126 2.34375 4.96768 2.53125C4.7441 2.71875 4.58822 2.94375 4.50005 3.20625L5.12356 3.45C5.15505 3.3375 5.2259 3.21563 5.33612 3.08437C5.44633 2.95312 5.61481 2.8875 5.84154 2.8875C6.04308 2.8875 6.19423 2.94219 6.295 3.05156C6.39577 3.16094 6.44615 3.28125 6.44615 3.4125C6.44615 3.5375 6.40836 3.65469 6.33279 3.76406C6.25721 3.87344 6.16274 3.975 6.04937 4.06875C5.77226 4.3125 5.60221 4.49687 5.53923 4.62187C5.47625 4.74688 5.44476 4.975 5.44476 5.30625ZM5.80375 8.25C5.28101 8.25 4.78976 8.15156 4.33 7.95469C3.87024 7.75781 3.47031 7.49063 3.13021 7.15313C2.79012 6.81563 2.52088 6.41875 2.32249 5.9625C2.1241 5.50625 2.0249 5.01875 2.0249 4.5C2.0249 3.98125 2.1241 3.49375 2.32249 3.0375C2.52088 2.58125 2.79012 2.18438 3.13021 1.84687C3.47031 1.50937 3.87024 1.24219 4.33 1.04531C4.78976 0.848437 5.28101 0.75 5.80375 0.75C6.32649 0.75 6.81774 0.848437 7.2775 1.04531C7.73726 1.24219 8.13719 1.50937 8.47728 1.84687C8.81738 2.18438 9.08662 2.58125 9.28501 3.0375C9.4834 3.49375 9.58259 3.98125 9.58259 4.5C9.58259 5.01875 9.4834 5.50625 9.28501 5.9625C9.08662 6.41875 8.81738 6.81563 8.47728 7.15313C8.13719 7.49063 7.73726 7.75781 7.2775 7.95469C6.81774 8.15156 6.32649 8.25 5.80375 8.25Z" fill="#FF916F"/>
</g>
</svg>
