<svg width="26" height="21" viewBox="0 0 26 21" fill="none" xmlns="http://www.w3.org/2000/svg">
<mask id="mask0_380_2" style="mask-type:alpha" maskUnits="userSpaceOnUse" x="2" y="0" width="24" height="21">
<rect x="2" width="24" height="21" fill="#D9D9D9"/>
</mask>
<g mask="url(#mask0_380_2)">
<path d="M8 19.25C7.16667 19.25 6.45833 18.9948 5.875 18.4844C5.29167 17.974 5 17.3542 5 16.625V14H8V1.75H23V16.625C23 17.3542 22.7083 17.974 22.125 18.4844C21.5417 18.9948 20.8333 19.25 20 19.25H8ZM20 17.5C20.2833 17.5 20.5208 17.4161 20.7125 17.2484C20.9042 17.0807 21 16.8729 21 16.625V3.5H10V14H19V16.625C19 16.8729 19.0958 17.0807 19.2875 17.2484C19.4792 17.4161 19.7167 17.5 20 17.5ZM11 7.875V6.125H20V7.875H11ZM11 10.5V8.75H20V10.5H11Z" fill="#1C1B1F"/>
</g>
<mask id="mask1_380_2" style="mask-type:alpha" maskUnits="userSpaceOnUse" x="0" y="0" width="24" height="21">
<rect width="24" height="21" fill="#D9D9D9"/>
</mask>
<g mask="url(#mask1_380_2)">
<path d="M6 19.25C5.16667 19.25 4.45833 18.9948 3.875 18.4844C3.29167 17.974 3 17.3542 3 16.625V14H6V1.75H21V16.625C21 17.3542 20.7083 17.974 20.125 18.4844C19.5417 18.9948 18.8333 19.25 18 19.25H6ZM18 17.5C18.2833 17.5 18.5208 17.4161 18.7125 17.2484C18.9042 17.0807 19 16.8729 19 16.625V3.5H8V14H17V16.625C17 16.8729 17.0958 17.0807 17.2875 17.2484C17.4792 17.4161 17.7167 17.5 18 17.5ZM9 7.875V6.125H18V7.875H9ZM9 10.5V8.75H18V10.5H9Z" fill="#FF916F"/>
</g>
</svg>
