<svg width="35" height="33" viewBox="0 0 35 33" fill="none" xmlns="http://www.w3.org/2000/svg">
<mask id="mask0_197_229" style="mask-type:alpha" maskUnits="userSpaceOnUse" x="0" y="0" width="35" height="33">
<rect width="35" height="33" fill="#D9D9D9"/>
</mask>
<g mask="url(#mask0_197_229)">
<path d="M17.5003 28.875C14.6566 28.875 12.2442 27.9411 10.2633 26.0734C8.28244 24.2057 7.29199 21.9312 7.29199 19.25C7.29199 17.0958 7.96647 15.1651 9.31543 13.4578C10.6644 11.7505 12.4326 10.5989 14.6201 10.0031C14.134 9.88853 13.66 9.72239 13.1982 9.50468C12.7364 9.28697 12.3232 9.00624 11.9587 8.66249C11.1566 7.90624 10.6401 7.00676 10.4092 5.96405C10.1783 4.92134 10.1236 3.86145 10.2451 2.78436C11.3875 2.66978 12.5116 2.72134 13.6175 2.93905C14.7234 3.15676 15.6774 3.64374 16.4795 4.39999C17.0385 4.92707 17.4456 5.52291 17.7008 6.18749C17.9561 6.85207 18.1201 7.55103 18.193 8.28437C18.509 7.57395 18.8918 6.90364 19.3415 6.27343C19.7911 5.64322 20.2955 5.06457 20.8545 4.53749C21.1219 4.28541 21.4621 4.15936 21.8753 4.15936C22.2885 4.15936 22.6288 4.28541 22.8962 4.53749C23.1635 4.78957 23.2972 5.11041 23.2972 5.49999C23.2972 5.88957 23.1635 6.21041 22.8962 6.46249C22.3614 6.96666 21.8875 7.52239 21.4743 8.12968C21.0611 8.73697 20.7573 9.38437 20.5628 10.0719C22.7017 10.7135 24.4274 11.8766 25.7399 13.5609C27.0524 15.2453 27.7087 17.1417 27.7087 19.25C27.7087 21.9312 26.7182 24.2057 24.7373 26.0734C22.7564 27.9411 20.3441 28.875 17.5003 28.875Z" fill="#FF916F"/>
</g>
</svg>
