<svg width="26" height="24" viewBox="0 0 26 24" fill="none" xmlns="http://www.w3.org/2000/svg">
<mask id="mask0_395_5" style="mask-type:alpha" maskUnits="userSpaceOnUse" x="2" y="0" width="24" height="24">
<rect x="2" width="24" height="24" fill="#D9D9D9"/>
</mask>
<g mask="url(#mask0_395_5)">
<path d="M20 14V11H17V9H20V6H22V9H25V11H22V14H20ZM11 12C9.9 12 8.95833 11.6083 8.175 10.825C7.39167 10.0417 7 9.1 7 8C7 6.9 7.39167 5.95833 8.175 5.175C8.95833 4.39167 9.9 4 11 4C12.1 4 13.0417 4.39167 13.825 5.175C14.6083 5.95833 15 6.9 15 8C15 9.1 14.6083 10.0417 13.825 10.825C13.0417 11.6083 12.1 12 11 12ZM3 20V17.2C3 16.6333 3.14583 16.1125 3.4375 15.6375C3.72917 15.1625 4.11667 14.8 4.6 14.55C5.63333 14.0333 6.68333 13.6458 7.75 13.3875C8.81667 13.1292 9.9 13 11 13C12.1 13 13.1833 13.1292 14.25 13.3875C15.3167 13.6458 16.3667 14.0333 17.4 14.55C17.8833 14.8 18.2708 15.1625 18.5625 15.6375C18.8542 16.1125 19 16.6333 19 17.2V20H3Z" fill="#1C1B1F"/>
</g>
<mask id="mask1_395_5" style="mask-type:alpha" maskUnits="userSpaceOnUse" x="0" y="0" width="24" height="24">
<rect width="24" height="24" fill="#D9D9D9"/>
</mask>
<g mask="url(#mask1_395_5)">
<path d="M18 14V11H15V9H18V6H20V9H23V11H20V14H18ZM9 12C7.9 12 6.95833 11.6083 6.175 10.825C5.39167 10.0417 5 9.1 5 8C5 6.9 5.39167 5.95833 6.175 5.175C6.95833 4.39167 7.9 4 9 4C10.1 4 11.0417 4.39167 11.825 5.175C12.6083 5.95833 13 6.9 13 8C13 9.1 12.6083 10.0417 11.825 10.825C11.0417 11.6083 10.1 12 9 12ZM1 20V17.2C1 16.6333 1.14583 16.1125 1.4375 15.6375C1.72917 15.1625 2.11667 14.8 2.6 14.55C3.63333 14.0333 4.68333 13.6458 5.75 13.3875C6.81667 13.1292 7.9 13 9 13C10.1 13 11.1833 13.1292 12.25 13.3875C13.3167 13.6458 14.3667 14.0333 15.4 14.55C15.8833 14.8 16.2708 15.1625 16.5625 15.6375C16.8542 16.1125 17 16.6333 17 17.2V20H1Z" fill="#FF916F"/>
</g>
</svg>
