<svg width="26" height="24" viewBox="0 0 26 24" fill="none" xmlns="http://www.w3.org/2000/svg">
<mask id="mask0_395_3" style="mask-type:alpha" maskUnits="userSpaceOnUse" x="2" y="0" width="24" height="24">
<rect x="2" width="24" height="24" fill="#D9D9D9"/>
</mask>
<g mask="url(#mask0_395_3)">
<path d="M13 14H15V11H18V9H15V6H13V9H10V11H13V14ZM14 22C11.3167 19.7167 9.3125 17.5958 7.9875 15.6375C6.6625 13.6792 6 11.8667 6 10.2C6 7.7 6.80417 5.70833 8.4125 4.225C10.0208 2.74167 11.8833 2 14 2C16.1167 2 17.9792 2.74167 19.5875 4.225C21.1958 5.70833 22 7.7 22 10.2C22 11.8667 21.3375 13.6792 20.0125 15.6375C18.6875 17.5958 16.6833 19.7167 14 22Z" fill="black"/>
</g>
<mask id="mask1_395_3" style="mask-type:alpha" maskUnits="userSpaceOnUse" x="0" y="0" width="24" height="24">
<rect width="24" height="24" fill="#D9D9D9"/>
</mask>
<g mask="url(#mask1_395_3)">
<path d="M11 14H13V11H16V9H13V6H11V9H8V11H11V14ZM12 22C9.31667 19.7167 7.3125 17.5958 5.9875 15.6375C4.6625 13.6792 4 11.8667 4 10.2C4 7.7 4.80417 5.70833 6.4125 4.225C8.02083 2.74167 9.88333 2 12 2C14.1167 2 15.9792 2.74167 17.5875 4.225C19.1958 5.70833 20 7.7 20 10.2C20 11.8667 19.3375 13.6792 18.0125 15.6375C16.6875 17.5958 14.6833 19.7167 12 22Z" fill="#FF916F"/>
</g>
</svg>
