<svg width="390" height="230" viewBox="0 0 390 230" fill="none" xmlns="http://www.w3.org/2000/svg">
<rect width="390" height="230" fill="white"/>
<g clip-path="url(#clip0_45_2)">
<path d="M205.035 74.375H168.16V106.333H205.035V74.375Z" stroke="#C2C2C2" stroke-width="4" stroke-linecap="round" stroke-linejoin="round"/>
<path d="M205.035 86.6666H214.868L222.243 94.0416V106.333H205.035V86.6666Z" stroke="#C2C2C2" stroke-width="4" stroke-linecap="round" stroke-linejoin="round"/>
<path d="M179.222 118.625C182.616 118.625 185.368 115.873 185.368 112.479C185.368 109.085 182.616 106.333 179.222 106.333C175.828 106.333 173.076 109.085 173.076 112.479C173.076 115.873 175.828 118.625 179.222 118.625Z" stroke="#C2C2C2" stroke-width="4" stroke-linecap="round" stroke-linejoin="round"/>
<path d="M211.181 118.625C214.575 118.625 217.326 115.873 217.326 112.479C217.326 109.085 214.575 106.333 211.181 106.333C207.786 106.333 205.035 109.085 205.035 112.479C205.035 115.873 207.786 118.625 211.181 118.625Z" stroke="#C2C2C2" stroke-width="4" stroke-linecap="round" stroke-linejoin="round"/>
</g>
<path d="M147.369 144.156V141.684H145.953V144.156H147.369ZM147.369 140.448V137.952H148.821V145.416H144.465V137.952H145.953V140.448H147.369ZM152.133 136.968H153.633V148.02H152.133V142.464H151.209V147.54H149.733V137.148H151.209V141.192H152.133V136.968Z" fill="#8A8A8A"/>
<path d="M164.636 140.316L164.06 141.552C162.2 141.276 160.856 140.508 160.16 139.416C159.464 140.496 158.12 141.276 156.272 141.552L155.696 140.316C158.168 140.016 159.356 138.756 159.356 137.508V137.184H160.976V137.508C160.976 138.792 162.14 140.016 164.636 140.316ZM160.16 146.856C161.648 146.856 162.392 146.616 162.392 146.076C162.392 145.524 161.648 145.296 160.16 145.296C158.672 145.296 157.928 145.524 157.928 146.076C157.928 146.616 158.672 146.856 160.16 146.856ZM160.16 144.108C162.56 144.108 164 144.816 164 146.076C164 147.336 162.56 148.032 160.16 148.032C157.76 148.032 156.332 147.336 156.332 146.076C156.332 144.816 157.76 144.108 160.16 144.108ZM160.964 142.248H165.176V143.508H155.192V142.248H159.38V140.904H160.964V142.248Z" fill="#8A8A8A"/>
<path d="M170.503 139.344V139.956C170.503 141.756 171.391 143.664 173.239 144.432L172.375 145.68C171.091 145.128 170.215 144.048 169.723 142.716C169.231 144.156 168.343 145.368 167.047 145.956L166.147 144.696C167.995 143.868 168.895 141.84 168.895 139.956V139.344H166.591V138.036H172.783V139.344H170.503ZM173.803 136.98H175.387V148.032H173.803V136.98Z" fill="#8A8A8A"/>
<path d="M177.774 138.108H182.982C182.982 141.42 181.722 144.264 178.05 146.124L177.162 144.912C179.73 143.592 181.098 141.84 181.386 139.392H177.774V138.108ZM187.47 141.192V142.5H185.922V148.008H184.338V136.968H185.922V141.192H187.47Z" fill="#8A8A8A"/>
<path d="M198.658 136.968H200.242V148.056H198.658V136.968ZM191.626 137.856H193.198V140.532H195.502V137.856H197.074V145.476H191.626V137.856ZM193.198 141.768V144.216H195.502V141.768H193.198Z" fill="#8A8A8A"/>
<path d="M205.149 144.204C205.965 144.204 206.506 143.328 206.506 141.684C206.506 140.052 205.965 139.176 205.149 139.176C204.345 139.176 203.806 140.052 203.806 141.684C203.806 143.328 204.345 144.204 205.149 144.204ZM209.817 136.968H211.401V148.056H209.817V142.236H207.981C207.813 144.348 206.685 145.644 205.149 145.644C203.505 145.644 202.294 144.12 202.294 141.684C202.294 139.26 203.505 137.748 205.149 137.748C206.637 137.748 207.753 138.96 207.969 140.952H209.817V136.968Z" fill="#8A8A8A"/>
<path d="M222.345 136.98V143.232H220.749V136.98H222.345ZM216.321 138.864C215.481 138.864 214.869 139.368 214.869 140.196C214.869 141.024 215.481 141.528 216.321 141.528C217.161 141.528 217.785 141.024 217.785 140.196C217.785 139.368 217.161 138.864 216.321 138.864ZM216.321 142.848C214.617 142.848 213.321 141.744 213.321 140.196C213.321 138.648 214.617 137.544 216.321 137.544C218.049 137.544 219.333 138.648 219.333 140.196C219.333 141.744 218.049 142.848 216.321 142.848ZM221.229 143.688V144.06C221.229 145.2 221.829 146.268 223.293 146.712L222.525 147.864C221.481 147.516 220.797 146.856 220.425 146.016C220.065 146.856 219.429 147.588 218.421 147.984C217.413 147.612 216.777 146.892 216.417 146.052C216.033 146.856 215.361 147.504 214.365 147.864L213.585 146.712C215.049 146.22 215.649 145.128 215.649 144.06V143.688H217.185V144.06C217.185 144.936 217.533 145.848 218.409 146.46C219.297 145.8 219.669 144.876 219.669 144.06V143.688H221.229Z" fill="#8A8A8A"/>
<path d="M227.228 144.204C228.044 144.204 228.584 143.328 228.584 141.684C228.584 140.052 228.044 139.176 227.228 139.176C226.424 139.176 225.884 140.052 225.884 141.684C225.884 143.328 226.424 144.204 227.228 144.204ZM231.896 136.968H233.48V148.056H231.896V142.236H230.06C229.892 144.348 228.764 145.644 227.228 145.644C225.584 145.644 224.372 144.12 224.372 141.684C224.372 139.26 225.584 137.748 227.228 137.748C228.716 137.748 229.832 138.96 230.048 140.952H231.896V136.968Z" fill="#8A8A8A"/>
<path d="M239.023 143.352V145.464H241.459V143.352C241.075 143.424 240.667 143.46 240.235 143.46C239.803 143.46 239.407 143.424 239.023 143.352ZM240.235 138.768C238.699 138.768 237.679 139.392 237.679 140.496C237.679 141.588 238.699 142.224 240.235 142.224C241.771 142.224 242.803 141.588 242.803 140.496C242.803 139.392 241.771 138.768 240.235 138.768ZM243.031 145.464H245.251V146.748H235.243V145.464H237.451V142.764C236.611 142.248 236.107 141.456 236.119 140.496C236.119 138.684 237.859 137.52 240.235 137.52C242.623 137.52 244.363 138.684 244.363 140.496C244.363 141.456 243.859 142.248 243.031 142.764V145.464Z" fill="#8A8A8A"/>
<path d="M139.904 159.156V156.684H138.488V159.156H139.904ZM139.904 155.448V152.952H141.356V160.416H137V152.952H138.488V155.448H139.904ZM144.668 151.968H146.168V163.02H144.668V157.464H143.744V162.54H142.268V152.148H143.744V156.192H144.668V151.968Z" fill="#8A8A8A"/>
<path d="M157.171 155.316L156.595 156.552C154.735 156.276 153.391 155.508 152.695 154.416C151.999 155.496 150.655 156.276 148.807 156.552L148.231 155.316C150.703 155.016 151.891 153.756 151.891 152.508V152.184H153.511V152.508C153.511 153.792 154.675 155.016 157.171 155.316ZM152.695 161.856C154.183 161.856 154.927 161.616 154.927 161.076C154.927 160.524 154.183 160.296 152.695 160.296C151.207 160.296 150.463 160.524 150.463 161.076C150.463 161.616 151.207 161.856 152.695 161.856ZM152.695 159.108C155.095 159.108 156.535 159.816 156.535 161.076C156.535 162.336 155.095 163.032 152.695 163.032C150.295 163.032 148.867 162.336 148.867 161.076C148.867 159.816 150.295 159.108 152.695 159.108ZM153.499 157.248H157.711V158.508H147.727V157.248H151.915V155.904H153.499V157.248Z" fill="#8A8A8A"/>
<path d="M163.038 154.344V154.956C163.038 156.756 163.926 158.664 165.774 159.432L164.91 160.68C163.626 160.128 162.75 159.048 162.258 157.716C161.766 159.156 160.878 160.368 159.582 160.956L158.682 159.696C160.53 158.868 161.43 156.84 161.43 154.956V154.344H159.126V153.036H165.318V154.344H163.038ZM166.338 151.98H167.922V163.032H166.338V151.98Z" fill="#8A8A8A"/>
<path d="M177.029 153.78V153.24H171.029V152.172H178.589V154.776H172.613V155.352H178.781V156.42H171.053V153.78H177.029ZM172.517 161.268V161.868H178.925V162.936H170.945V160.272H177.053V159.708H170.933V158.64H178.625V161.268H172.517ZM169.805 156.948H179.813V158.088H169.805V156.948Z" fill="#8A8A8A"/>
<path d="M184.678 158.028L184.126 156.78C186.43 156.528 187.606 155.46 187.786 154.5H184.522V153.24H187.81V152.004H189.394V153.24H192.706V154.5H189.43C189.622 155.436 190.822 156.528 193.09 156.78L192.526 158.028C190.654 157.8 189.322 157.044 188.614 156.048C187.906 157.044 186.574 157.8 184.678 158.028ZM193.618 158.592V159.876H189.394V163.056H187.81V159.876H183.634V158.592H193.618Z" fill="#8A8A8A"/>
<path d="M195.165 153.108H200.373C200.373 156.42 199.113 159.264 195.441 161.124L194.553 159.912C197.121 158.592 198.489 156.84 198.777 154.392H195.165V153.108ZM204.861 156.192V157.5H203.313V163.008H201.729V151.968H203.313V156.192H204.861Z" fill="#8A8A8A"/>
<path d="M208.352 159.336C208.952 159.336 209.384 158.856 209.384 158.028C209.384 157.2 208.952 156.708 208.352 156.708C207.752 156.708 207.32 157.2 207.32 158.028C207.32 158.856 207.752 159.336 208.352 159.336ZM208.352 155.388C209.768 155.388 210.776 156.48 210.776 158.028C210.776 159.564 209.768 160.656 208.352 160.656C206.936 160.656 205.928 159.564 205.928 158.028C205.928 156.48 206.936 155.388 208.352 155.388ZM209.132 152.28V153.648H210.968V154.908H205.688V153.648H207.572V152.28H209.132ZM213.68 151.968H215.18V163.02H213.68V157.752H212.84V162.564H211.364V152.184H212.84V156.48H213.68V151.968Z" fill="#8A8A8A"/>
<path d="M217.795 157.452L217.219 156.216C219.475 155.94 220.651 154.86 220.807 153.804H217.627V152.544H225.823V153.804H222.691C222.847 154.86 224.011 155.94 226.255 156.216L225.691 157.452C223.759 157.188 222.403 156.36 221.743 155.232C221.083 156.36 219.727 157.188 217.795 157.452ZM226.735 158.088V159.348H222.499V163.056H220.915V159.348H216.751V158.088H226.735Z" fill="#8A8A8A"/>
<path d="M231.306 152.94V154.74C231.306 156.528 231.786 158.364 233.286 159.36L232.422 160.584C231.486 160.008 230.898 159.072 230.55 157.956C230.166 159.18 229.518 160.236 228.522 160.836L227.574 159.648C229.194 158.664 229.782 156.684 229.782 154.8V152.94H231.306ZM233.514 155.712V152.16H234.99V162.54H233.514V156.996H232.122V155.712H233.514ZM235.758 151.98H237.258V163.032H235.758V151.98Z" fill="#8A8A8A"/>
<path d="M242.597 158.352V160.464H245.033V158.352C244.649 158.424 244.241 158.46 243.809 158.46C243.377 158.46 242.981 158.424 242.597 158.352ZM243.809 153.768C242.273 153.768 241.253 154.392 241.253 155.496C241.253 156.588 242.273 157.224 243.809 157.224C245.345 157.224 246.377 156.588 246.377 155.496C246.377 154.392 245.345 153.768 243.809 153.768ZM246.605 160.464H248.825V161.748H238.817V160.464H241.025V157.764C240.185 157.248 239.681 156.456 239.693 155.496C239.693 153.684 241.433 152.52 243.809 152.52C246.197 152.52 247.937 153.684 247.937 155.496C247.937 156.456 247.433 157.248 246.605 157.764V160.464Z" fill="#8A8A8A"/>
<path d="M252.233 153.273L252.067 159.384H250.508L250.337 153.273H252.233ZM251.287 162.111C251.006 162.111 250.765 162.011 250.563 161.813C250.361 161.611 250.262 161.369 250.265 161.088C250.262 160.81 250.361 160.571 250.563 160.372C250.765 160.173 251.006 160.074 251.287 160.074C251.557 160.074 251.795 160.173 251.999 160.372C252.204 160.571 252.307 160.81 252.31 161.088C252.307 161.276 252.258 161.447 252.161 161.604C252.067 161.757 251.944 161.881 251.79 161.974C251.637 162.065 251.469 162.111 251.287 162.111Z" fill="#8A8A8A"/>
<defs>
<clipPath id="clip0_45_2">
<rect width="59" height="59" fill="white" transform="translate(165.701 67)"/>
</clipPath>
</defs>
</svg>
