<svg xmlns="http://www.w3.org/2000/svg" width="45" height="8" viewBox="0 0 45 8" fill="none">
  <path d="M40.1667 0L41.4542 2.60833L44.3333 3.02917L42.25 5.05833L42.7417 7.925L40.1667 6.57083L37.5917 7.925L38.0833 5.05833L36 3.02917L38.8792 2.60833L40.1667 0Z" fill="#D9D9D9"/>
  <path d="M13.1667 0L14.4542 2.60833L17.3333 3.02917L15.25 5.05833L15.7417 7.925L13.1667 6.57083L10.5917 7.925L11.0833 5.05833L9 3.02917L11.8792 2.60833L13.1667 0Z" fill="#FFE600"/>
  <path d="M4.16667 0L5.45417 2.60833L8.33333 3.02917L6.25 5.05833L6.74167 7.925L4.16667 6.57083L1.59167 7.925L2.08333 5.05833L0 3.02917L2.87917 2.60833L4.16667 0Z" fill="#FFE600"/>
  <path d="M22.1667 0L22.1665 2.66663L22.1667 3.66663L22.1665 5.66663V6.66663L22.1667 6.57083L19.5917 7.925L20.0833 5.05833L18 3.02917L20.8792 2.60833L22.1667 0Z" fill="#FFE600"/>
  <path d="M22.1666 0L23.4541 2.60833L26.3333 3.02917L24.25 5.05833L24.7416 7.925L22.1666 6.57083V5.05833L22.1665 4L22.1666 2.77184V0Z" fill="#D9D9D9"/>
  <path d="M31.1667 0L32.4542 2.60833L35.3333 3.02917L33.25 5.05833L33.7417 7.925L31.1667 6.57083L28.5917 7.925L29.0833 5.05833L27 3.02917L29.8792 2.60833L31.1667 0Z" fill="#D9D9D9"/>
</svg>