<svg xmlns="http://www.w3.org/2000/svg" width="92" height="102" viewBox="0 0 92 102" fill="none">
  <path fill-rule="evenodd" clip-rule="evenodd" d="M55.5479 36.5479C55.873 36.2225 56.259 35.9643 56.6839 35.7882C57.1088 35.612 57.5642 35.5214 58.0242 35.5214C58.4842 35.5214 58.9396 35.612 59.3645 35.7882C59.7894 35.9643 60.1754 36.2225 60.5005 36.5479L73.9757 50.0231C74.6325 50.6794 75.0016 51.5697 75.0019 52.4981C75.0023 53.4266 74.6337 54.3172 73.9775 54.9739C73.3212 55.6307 72.4309 55.9998 71.5024 56.0001C70.5739 56.0005 69.6834 55.632 69.0266 54.9757L55.5514 41.5005C55.226 41.1754 54.9678 40.7894 54.7917 40.3645C54.6156 39.9396 54.5249 39.4841 54.5249 39.0242C54.5249 38.5642 54.6156 38.1088 54.7917 37.6839C54.9678 37.259 55.2225 36.8729 55.5479 36.5479Z" fill="#BFBFBF"/>
  <path fill-rule="evenodd" clip-rule="evenodd" d="M41.7504 42.0007C44.2783 42.0007 46.7816 41.5027 49.1171 40.5353C51.4527 39.5679 53.5748 38.1499 55.3624 36.3624C57.1499 34.5748 58.5679 32.4527 59.5353 30.1171C60.5027 27.7816 61.0007 25.2783 61.0007 22.7504C61.0007 20.2224 60.5027 17.7191 59.5353 15.3836C58.5679 13.048 57.1499 10.9259 55.3624 9.13834C53.5748 7.35078 51.4527 5.93281 49.1171 4.9654C46.7816 3.99798 44.2783 3.50005 41.7504 3.50005C36.6449 3.50005 31.7485 5.52821 28.1383 9.13834C24.5282 12.7485 22.5001 17.6449 22.5001 22.7504C22.5001 27.8559 24.5282 32.7522 28.1383 36.3624C31.7485 39.9725 36.6449 42.0007 41.7504 42.0007ZM64.5007 22.7504C64.5007 28.7841 62.1038 34.5708 57.8373 38.8373C53.5708 43.1038 47.7841 45.5007 41.7504 45.5007C35.7166 45.5007 29.9299 43.1038 25.6634 38.8373C21.3969 34.5708 19 28.7841 19 22.7504C19 16.7166 21.3969 10.9299 25.6634 6.66342C29.9299 2.39691 35.7166 0 41.7504 0C47.7841 0 53.5708 2.39691 57.8373 6.66342C62.1038 10.9299 64.5007 16.7166 64.5007 22.7504Z" fill="#BFBFBF"/>
  <path d="M29.3464 66.7679V74.9599H27.6984V71.7279H24.8344V70.3679H27.6984V66.7679H29.3464ZM24.8024 67.6479C24.8024 68.5866 24.6477 69.4506 24.3384 70.2399C24.0397 71.0293 23.6024 71.7439 23.0264 72.3839C22.4611 73.0133 21.7677 73.5626 20.9464 74.0319C20.1251 74.4906 19.1917 74.8693 18.1464 75.1679L17.4744 73.8559C19.1811 73.4079 20.4931 72.7679 21.4104 71.9359C22.3384 71.1039 22.8771 70.1226 23.0264 68.9919H18.2424V67.6479H24.8024ZM19.9384 75.5519H29.3464V81.0559H19.9384V75.5519ZM21.5544 79.7279H27.7304V76.8639H21.5544V79.7279Z" fill="#7C7C7C"/>
  <path d="M44.3211 66.7839V75.5359H42.7531V71.7759H41.2331V75.4559H39.6811V67.0239H41.2331V70.4319H42.7531V66.7839H44.3211ZM38.4491 74.7039C37.8091 74.4373 37.2651 74.0746 36.8171 73.6159C36.3691 73.1466 36.0118 72.6186 35.7451 72.0319C35.4785 72.7039 35.1105 73.3066 34.6411 73.8399C34.1825 74.3626 33.6011 74.7786 32.8971 75.0879L32.0171 73.8239C32.4971 73.5999 32.9185 73.3279 33.2811 73.0079C33.6545 72.6773 33.9585 72.3199 34.1931 71.9359C34.4385 71.5413 34.6198 71.1359 34.7371 70.7199C34.8651 70.2933 34.9291 69.8719 34.9291 69.4559V67.6159H36.5291V69.4559C36.5291 69.8613 36.5878 70.2613 36.7051 70.6559C36.8225 71.0506 36.9931 71.4239 37.2171 71.7759C37.4518 72.1279 37.7451 72.4479 38.0971 72.7359C38.4491 73.0239 38.8598 73.2639 39.3291 73.4559L38.4491 74.7039ZM34.5291 76.2559H44.3211V81.2479H42.6731V77.5839H34.5291V76.2559Z" fill="#7C7C7C"/>
  <path d="M58.8159 66.7679V81.2639H57.1519V73.5039H54.3519C54.3092 74.2079 54.1866 74.8373 53.9839 75.3919C53.7812 75.9466 53.5199 76.4213 53.1999 76.8159C52.8799 77.2106 52.5066 77.5146 52.0799 77.7279C51.6532 77.9306 51.1946 78.0319 50.7039 78.0319C50.1706 78.0319 49.6799 77.9146 49.2319 77.6799C48.7839 77.4346 48.3999 77.0933 48.0799 76.6559C47.7599 76.2186 47.5092 75.6853 47.3279 75.0559C47.1466 74.4159 47.0559 73.7066 47.0559 72.9279C47.0559 72.1493 47.1466 71.4506 47.3279 70.8319C47.5092 70.2026 47.7599 69.6693 48.0799 69.2319C48.3999 68.7839 48.7839 68.4426 49.2319 68.2079C49.6799 67.9626 50.1706 67.8399 50.7039 67.8399C51.1839 67.8399 51.6319 67.9413 52.0479 68.1439C52.4746 68.3466 52.8479 68.6346 53.1679 69.0079C53.4879 69.3813 53.7492 69.8346 53.9519 70.3679C54.1546 70.9013 54.2826 71.4986 54.3359 72.1599H57.1519V66.7679H58.8159ZM50.7039 76.5599C51.3439 76.5599 51.8506 76.2453 52.2239 75.6159C52.6079 74.9866 52.7999 74.0906 52.7999 72.9279C52.7999 71.7973 52.6079 70.9173 52.2239 70.2879C51.8506 69.6479 51.3439 69.3279 50.7039 69.3279C50.0852 69.3279 49.5839 69.6479 49.1999 70.2879C48.8159 70.9173 48.6239 71.7973 48.6239 72.9279C48.6239 74.0906 48.8159 74.9866 49.1999 75.6159C49.5839 76.2453 50.0852 76.5599 50.7039 76.5599Z" fill="#7C7C7C"/>
  <path d="M71.3426 68.2719H63.1666V67.1359H72.9746V70.3199H64.8146V71.3439H73.2306V72.4959H63.1986V69.2479H71.3426V68.2719ZM74.6226 73.4079V74.6239H61.5186V73.4079H74.6226ZM64.7026 79.9359H73.4546V81.0719H63.0706V77.7599H71.3906V76.7359H63.0386V75.5999H73.0226V78.8319H64.7026V79.9359Z" fill="#7C7C7C"/>
  <path d="M11.8215 86.7839V94.5439H10.1735V86.7839H11.8215ZM4.02945 87.4399C4.58412 87.4399 5.09079 87.5253 5.54945 87.6959C6.01879 87.8559 6.42412 88.0853 6.76545 88.3839C7.10679 88.6719 7.37345 89.0239 7.56545 89.4399C7.75745 89.8453 7.85345 90.2986 7.85345 90.7999C7.85345 91.2906 7.75745 91.7439 7.56545 92.1599C7.37345 92.5759 7.10679 92.9333 6.76545 93.2319C6.42412 93.5199 6.01879 93.7493 5.54945 93.9199C5.09079 94.0799 4.58412 94.1599 4.02945 94.1599C3.47479 94.1599 2.96279 94.0799 2.49345 93.9199C2.02412 93.7493 1.61879 93.5199 1.27745 93.2319C0.93612 92.9333 0.669453 92.5759 0.477453 92.1599C0.285453 91.7439 0.189453 91.2906 0.189453 90.7999C0.189453 90.2986 0.285453 89.8453 0.477453 89.4399C0.669453 89.0239 0.93612 88.6719 1.27745 88.3839C1.61879 88.0853 2.02412 87.8559 2.49345 87.6959C2.96279 87.5253 3.47479 87.4399 4.02945 87.4399ZM4.02945 88.7999C3.35745 88.7999 2.81879 88.9813 2.41345 89.3439C2.00812 89.7066 1.80545 90.1919 1.80545 90.7999C1.80545 91.4079 2.00812 91.8933 2.41345 92.2559C2.81879 92.6186 3.35745 92.7999 4.02945 92.7999C4.68012 92.7999 5.21345 92.6186 5.62945 92.2559C6.04545 91.8933 6.25345 91.4079 6.25345 90.7999C6.25345 90.1919 6.04545 89.7066 5.62945 89.3439C5.21345 88.9813 4.68012 88.7999 4.02945 88.7999ZM4.01345 95.2159V96.8159H10.1895V95.2159H11.8215V101.056H2.38145V95.2159H4.01345ZM4.01345 99.7279H10.1895V98.0959H4.01345V99.7279Z" fill="#7C7C7C"/>
  <path d="M26.6042 86.7839V95.6799H24.9562V93.2159H22.3642V91.8879H24.9562V90.1919H22.3642V88.8639H24.9562V86.7839H26.6042ZM22.3162 94.7999C21.8895 94.8746 21.4629 94.9386 21.0362 94.9919C20.6202 95.0346 20.1722 95.0666 19.6922 95.0879C19.2229 95.1093 18.7109 95.1253 18.1562 95.1359C17.6015 95.1466 16.9722 95.1519 16.2682 95.1519H15.2122V90.6719H19.8202V88.9439H15.1802V87.6159H21.4522V91.9359H16.8282V93.8079C17.4362 93.8079 17.9802 93.8026 18.4602 93.7919C18.9402 93.7813 19.3882 93.7653 19.8042 93.7439C20.2202 93.7119 20.6149 93.6746 20.9882 93.6319C21.3615 93.5893 21.7455 93.5359 22.1402 93.4719L22.3162 94.7999ZM16.8282 96.3999H26.6042V101.264H24.9562V97.7439H16.8282V96.3999Z" fill="#7C7C7C"/>
  <path d="M41.659 86.7839V101.232H40.091V94.1279H38.555V100.56H37.019V87.0879H38.555V92.7679H40.091V86.7839H41.659ZM33.691 89.1359H36.395V90.4639H29.323V89.1359H32.059V87.1999H33.691V89.1359ZM32.875 91.2799C33.3336 91.2799 33.755 91.3599 34.139 91.5199C34.523 91.6799 34.8536 91.9093 35.131 92.2079C35.4083 92.5066 35.6216 92.8639 35.771 93.2799C35.931 93.6853 36.011 94.1386 36.011 94.6399C36.011 95.1306 35.931 95.5839 35.771 95.9999C35.6216 96.4159 35.4083 96.7733 35.131 97.0719C34.8536 97.3599 34.523 97.5893 34.139 97.7599C33.755 97.9199 33.3336 97.9999 32.875 97.9999C32.4163 97.9999 31.995 97.9199 31.611 97.7599C31.227 97.5893 30.8963 97.3599 30.619 97.0719C30.3416 96.7733 30.123 96.4159 29.963 95.9999C29.8136 95.5839 29.739 95.1306 29.739 94.6399C29.739 94.1386 29.8136 93.6853 29.963 93.2799C30.123 92.8639 30.3416 92.5066 30.619 92.2079C30.8963 91.9093 31.227 91.6799 31.611 91.5199C31.995 91.3599 32.4163 91.2799 32.875 91.2799ZM32.875 96.6239C33.3656 96.6239 33.7656 96.4479 34.075 96.0959C34.3843 95.7333 34.539 95.2479 34.539 94.6399C34.539 94.0319 34.3843 93.5466 34.075 93.1839C33.7656 92.8213 33.3656 92.6399 32.875 92.6399C32.3843 92.6399 31.9843 92.8213 31.675 93.1839C31.3656 93.5466 31.211 94.0319 31.211 94.6399C31.211 95.2479 31.3656 95.7333 31.675 96.0959C31.9843 96.4479 32.3843 96.6239 32.875 96.6239Z" fill="#7C7C7C"/>
  <path d="M44.7937 92.5599C45.4764 92.4639 46.111 92.3039 46.6977 92.0799C47.2844 91.8453 47.791 91.5679 48.2177 91.2479C48.655 90.9173 49.0017 90.5546 49.2577 90.1599C49.5137 89.7653 49.6524 89.3546 49.6737 88.9279H45.2737V87.5999H55.9137V88.9279H51.5457C51.567 89.3546 51.7057 89.7653 51.9617 90.1599C52.2177 90.5546 52.559 90.9173 52.9857 91.2479C53.423 91.5679 53.935 91.8453 54.5217 92.0799C55.1084 92.3039 55.743 92.4639 56.4257 92.5599L55.8337 93.8559C54.639 93.6639 53.583 93.2959 52.6657 92.7519C51.7484 92.2079 51.0604 91.5306 50.6017 90.7199C50.1537 91.5199 49.471 92.1973 48.5537 92.7519C47.6364 93.3066 46.5804 93.6746 45.3857 93.8559L44.7937 92.5599ZM57.1297 96.2399H51.3857V101.248H49.7377V96.2399H44.0737V94.9119H57.1457L57.1297 96.2399Z" fill="#7C7C7C"/>
  <path d="M71.1285 86.7839V101.232H69.5605V86.7839H71.1285ZM66.6165 87.0559H68.1685V100.56H66.6165V93.1839H64.4885V91.8399H66.6165V87.0559ZM63.2245 90.6399C63.2245 91.2266 63.2778 91.8133 63.3845 92.3999C63.5018 92.9759 63.6725 93.5306 63.8965 94.0639C64.1311 94.5866 64.4245 95.0719 64.7765 95.5199C65.1391 95.9573 65.5605 96.3306 66.0405 96.6399L65.1124 97.9199C64.4404 97.5146 63.8858 96.9813 63.4485 96.3199C63.0218 95.6479 62.6858 94.9066 62.4405 94.0959C62.1845 95.0026 61.8218 95.8133 61.3525 96.5279C60.8831 97.2426 60.2965 97.8133 59.5925 98.2399L58.5845 96.9919C59.0965 96.6826 59.5391 96.2986 59.9125 95.8399C60.2965 95.3813 60.6165 94.8746 60.8725 94.3199C61.1285 93.7653 61.3151 93.1839 61.4325 92.5759C61.5605 91.9573 61.6245 91.3386 61.6245 90.7199V88.1119H63.2245V90.6399Z" fill="#7C7C7C"/>
  <path d="M86.5992 98.1119V99.4559H73.5112V98.1119H76.5672V94.3519C75.9912 94.0319 75.5379 93.6213 75.2072 93.1199C74.8872 92.6079 74.7272 92.0319 74.7272 91.3919C74.7272 90.8159 74.8552 90.2986 75.1112 89.8399C75.3779 89.3706 75.7459 88.9706 76.2152 88.6399C76.6952 88.3093 77.2605 88.0586 77.9112 87.8879C78.5619 87.7066 79.2712 87.6159 80.0392 87.6159C80.8072 87.6159 81.5165 87.7066 82.1672 87.8879C82.8179 88.0586 83.3779 88.3093 83.8472 88.6399C84.3165 88.9706 84.6845 89.3706 84.9512 89.8399C85.2179 90.2986 85.3512 90.8159 85.3512 91.3919C85.3512 92.0319 85.1859 92.6026 84.8552 93.1039C84.5352 93.6053 84.0872 94.0213 83.5112 94.3519V98.1119H86.5992ZM80.0392 88.9119C79.4952 88.9119 78.9939 88.9706 78.5352 89.0879C78.0765 89.2053 77.6819 89.3706 77.3512 89.5839C77.0312 89.7973 76.7805 90.0586 76.5992 90.3679C76.4179 90.6666 76.3272 91.0079 76.3272 91.3919C76.3272 91.7759 76.4179 92.1226 76.5992 92.4319C76.7805 92.7413 77.0312 93.0026 77.3512 93.2159C77.6819 93.4293 78.0765 93.5946 78.5352 93.7119C78.9939 93.8293 79.4952 93.8879 80.0392 93.8879C80.5832 93.8879 81.0792 93.8293 81.5272 93.7119C81.9859 93.5946 82.3752 93.4293 82.6952 93.2159C83.0259 93.0026 83.2819 92.7413 83.4632 92.4319C83.6445 92.1226 83.7352 91.7759 83.7352 91.3919C83.7352 91.0079 83.6445 90.6666 83.4632 90.3679C83.2819 90.0586 83.0259 89.7973 82.6952 89.5839C82.3752 89.3706 81.9859 89.2053 81.5272 89.0879C81.0792 88.9706 80.5832 88.9119 80.0392 88.9119ZM78.2152 98.1119H81.8632V94.9599C81.5859 95.0346 81.2925 95.0879 80.9832 95.1199C80.6739 95.1519 80.3592 95.1679 80.0392 95.1679C79.3885 95.1679 78.7805 95.1039 78.2152 94.9759V98.1119Z" fill="#7C7C7C"/>
  <path d="M90.774 96.7039H89.542L89.2859 89.8399L89.238 87.9519H91.094L90.774 96.7039ZM89.222 100.208V98.2239H91.11V100.208H89.222Z" fill="#7C7C7C"/>
</svg>