<svg width="41" height="40" viewBox="0 0 41 40" fill="none" xmlns="http://www.w3.org/2000/svg">
<path d="M28.8077 25.1572H26.987L26.3417 24.5397C28.6003 21.9325 29.96 18.5477 29.96 14.8656C29.96 6.65523 23.2536 0 14.98 0C6.70643 0 0 6.65523 0 14.8656C0 23.076 6.70643 29.7313 14.98 29.7313C18.6904 29.7313 22.1012 28.3819 24.7285 26.1407L25.3508 26.781V28.5878L36.8738 40L40.3077 36.5923L28.8077 25.1572ZM14.98 25.1572C9.2415 25.1572 4.60923 20.5603 4.60923 14.8656C4.60923 9.17095 9.2415 4.57404 14.98 4.57404C20.7185 4.57404 25.3508 9.17095 25.3508 14.8656C25.3508 20.5603 20.7185 25.1572 14.98 25.1572Z" fill="#FF6C3E"/>
</svg>
