<svg width="50" height="43" viewBox="0 0 50 43" fill="none" xmlns="http://www.w3.org/2000/svg">
<mask id="mask0_234_579" style="mask-type:alpha" maskUnits="userSpaceOnUse" x="0" y="0" width="50" height="43">
<rect width="50" height="43" fill="#D9D9D9"/>
</mask>
<g mask="url(#mask0_234_579)">
<path d="M12.5 35.8332C10.7639 35.8332 9.28819 35.3106 8.07292 34.2655C6.85764 33.2203 6.25 31.9512 6.25 30.4582H2.08333V10.7498C2.08333 9.76442 2.49132 8.92084 3.30729 8.21911C4.12326 7.51737 5.10417 7.1665 6.25 7.1665H35.4167V14.3332H41.6667L47.9167 21.4998V30.4582H43.75C43.75 31.9512 43.1424 33.2203 41.9271 34.2655C40.7118 35.3106 39.2361 35.8332 37.5 35.8332C35.7639 35.8332 34.2882 35.3106 33.0729 34.2655C31.8576 33.2203 31.25 31.9512 31.25 30.4582H18.75C18.75 31.9512 18.1424 33.2203 16.9271 34.2655C15.7118 35.3106 14.2361 35.8332 12.5 35.8332ZM12.5 32.2498C13.0903 32.2498 13.5851 32.0781 13.9844 31.7347C14.3837 31.3913 14.5833 30.9658 14.5833 30.4582C14.5833 29.9505 14.3837 29.525 13.9844 29.1816C13.5851 28.8382 13.0903 28.6665 12.5 28.6665C11.9097 28.6665 11.4149 28.8382 11.0156 29.1816C10.6163 29.525 10.4167 29.9505 10.4167 30.4582C10.4167 30.9658 10.6163 31.3913 11.0156 31.7347C11.4149 32.0781 11.9097 32.2498 12.5 32.2498ZM37.5 32.2498C38.0903 32.2498 38.5851 32.0781 38.9844 31.7347C39.3837 31.3913 39.5833 30.9658 39.5833 30.4582C39.5833 29.9505 39.3837 29.525 38.9844 29.1816C38.5851 28.8382 38.0903 28.6665 37.5 28.6665C36.9097 28.6665 36.4149 28.8382 36.0156 29.1816C35.6163 29.525 35.4167 29.9505 35.4167 30.4582C35.4167 30.9658 35.6163 31.3913 36.0156 31.7347C36.4149 32.0781 36.9097 32.2498 37.5 32.2498ZM35.4167 23.2915H44.2708L39.5833 17.9165H35.4167V23.2915Z" fill="#FF916F"/>
</g>
</svg>
