<svg width="52" height="48" viewBox="0 0 52 48" fill="none" xmlns="http://www.w3.org/2000/svg">
<mask id="mask0_234_569" style="mask-type:alpha" maskUnits="userSpaceOnUse" x="0" y="0" width="52" height="48">
<rect width="52" height="48" fill="#D9D9D9"/>
</mask>
<g mask="url(#mask0_234_569)">
<path d="M45.5543 22.1V38C45.5543 39.1 45.13 40.0417 44.2813 40.825C43.4327 41.6083 42.4126 42 41.2209 42H10.8876C9.69592 42 8.67578 41.6083 7.82717 40.825C6.97856 40.0417 6.55426 39.1 6.55426 38V22.1C5.7237 21.4 5.08273 20.5 4.63134 19.4C4.17995 18.3 4.17092 17.1 4.60426 15.8L6.87926 9C7.16814 8.13333 7.68273 7.41667 8.42301 6.85C9.16328 6.28333 10.0209 6 10.9959 6H41.1126C42.0876 6 42.9362 6.275 43.6584 6.825C44.3806 7.375 44.9043 8.1 45.2293 9L47.5043 15.8C47.9376 17.1 47.9286 18.2833 47.4772 19.35C47.0258 20.4167 46.3848 21.3333 45.5543 22.1ZM30.8209 20C31.7959 20 32.5362 19.6917 33.0418 19.075C33.5473 18.4583 33.7459 17.7667 33.6376 17L32.4459 10H28.2209V17.4C28.2209 18.1 28.4737 18.7083 28.9793 19.225C29.4848 19.7417 30.0987 20 30.8209 20ZM21.0709 20C21.9015 20 22.5786 19.7417 23.1022 19.225C23.6258 18.7083 23.8876 18.1 23.8876 17.4V10H19.6626L18.4709 17C18.3265 17.8 18.5161 18.5 19.0397 19.1C19.5633 19.7 20.2404 20 21.0709 20ZM11.4293 20C12.0793 20 12.648 19.7833 13.1355 19.35C13.623 18.9167 13.9209 18.3667 14.0293 17.7L15.2209 10H10.9959L8.82926 16.7C8.61259 17.3667 8.72995 18.0833 9.18134 18.85C9.63273 19.6167 10.382 20 11.4293 20ZM40.6793 20C41.7265 20 42.4848 19.6167 42.9543 18.85C43.4237 18.0833 43.532 17.3667 43.2793 16.7L41.0043 10H36.8876L38.0793 17.7C38.1876 18.3667 38.4855 18.9167 38.973 19.35C39.4605 19.7833 40.0293 20 40.6793 20Z" fill="#FF916F"/>
</g>
</svg>
