<svg width="52" height="48" viewBox="0 0 52 48" fill="none" xmlns="http://www.w3.org/2000/svg">
<mask id="mask0_234_585" style="mask-type:alpha" maskUnits="userSpaceOnUse" x="0" y="0" width="52" height="48">
<rect width="52" height="48" fill="#D9D9D9"/>
</mask>
<g mask="url(#mask0_234_585)">
<path d="M45.5541 22.1V38C45.5541 39.1 45.1298 40.0417 44.2812 40.825C43.4326 41.6083 42.4125 42 41.2208 42H10.8875C9.6958 42 8.67566 41.6083 7.82705 40.825C6.97844 40.0417 6.55413 39.1 6.55413 38V22.1C5.72358 21.4 5.08261 20.5 4.63122 19.4C4.17983 18.3 4.1708 17.1 4.60413 15.8L6.87913 9C7.16802 8.13333 7.68261 7.41667 8.42288 6.85C9.16316 6.28333 10.0208 6 10.9958 6H41.1125C42.0875 6 42.9361 6.275 43.6583 6.825C44.3805 7.375 44.9041 8.1 45.2291 9L47.5041 15.8C47.9375 17.1 47.9284 18.2833 47.477 19.35C47.0257 20.4167 46.3847 21.3333 45.5541 22.1ZM30.8208 20C31.7958 20 32.5361 19.6917 33.0416 19.075C33.5472 18.4583 33.7458 17.7667 33.6375 17L32.4458 10H28.2208V17.4C28.2208 18.1 28.4736 18.7083 28.9791 19.225C29.4847 19.7417 30.0986 20 30.8208 20ZM21.0708 20C21.9014 20 22.5784 19.7417 23.1021 19.225C23.6257 18.7083 23.8875 18.1 23.8875 17.4V10H19.6625L18.4708 17C18.3264 17.8 18.5159 18.5 19.0396 19.1C19.5632 19.7 20.2402 20 21.0708 20ZM11.4291 20C12.0791 20 12.6479 19.7833 13.1354 19.35C13.6229 18.9167 13.9208 18.3667 14.0291 17.7L15.2208 10H10.9958L8.82913 16.7C8.61247 17.3667 8.72983 18.0833 9.18122 18.85C9.63261 19.6167 10.3819 20 11.4291 20ZM40.6791 20C41.7264 20 42.4847 19.6167 42.9541 18.85C43.4236 18.0833 43.5319 17.3667 43.2791 16.7L41.0041 10H36.8875L38.0791 17.7C38.1875 18.3667 38.4854 18.9167 38.9729 19.35C39.4604 19.7833 40.0291 20 40.6791 20Z" fill="black"/>
</g>
</svg>
