<svg width="51" height="48" viewBox="0 0 51 48" fill="none" xmlns="http://www.w3.org/2000/svg">
<mask id="mask0_323_4" style="mask-type:alpha" maskUnits="userSpaceOnUse" x="0" y="0" width="51" height="48">
<rect width="51" height="48" fill="#D9D9D9"/>
</mask>
<g mask="url(#mask0_323_4)">
<path d="M14.875 44.0001C13.7063 44.0001 12.7057 43.6084 11.8734 42.8251C11.0411 42.0417 10.625 41.1001 10.625 40.0001C10.625 38.9001 11.0411 37.9584 11.8734 37.1751C12.7057 36.3917 13.7063 36.0001 14.875 36.0001C16.0437 36.0001 17.0443 36.3917 17.8766 37.1751C18.7089 37.9584 19.125 38.9001 19.125 40.0001C19.125 41.1001 18.7089 42.0417 17.8766 42.8251C17.0443 43.6084 16.0437 44.0001 14.875 44.0001ZM36.125 44.0001C34.9562 44.0001 33.9557 43.6084 33.1234 42.8251C32.2911 42.0417 31.875 41.1001 31.875 40.0001C31.875 38.9001 32.2911 37.9584 33.1234 37.1751C33.9557 36.3917 34.9562 36.0001 36.125 36.0001C37.2938 36.0001 38.2943 36.3917 39.1266 37.1751C39.9589 37.9584 40.375 38.9001 40.375 40.0001C40.375 41.1001 39.9589 42.0417 39.1266 42.8251C38.2943 43.6084 37.2938 44.0001 36.125 44.0001ZM11.05 8.00006H42.3938C43.2083 8.00006 43.8281 8.34173 44.2531 9.02506C44.6781 9.70839 44.6958 10.4001 44.3063 11.1001L36.7625 23.9001C36.3729 24.5667 35.8505 25.0834 35.1953 25.4501C34.5401 25.8167 33.8229 26.0001 33.0438 26.0001H17.2125L14.875 30.0001H40.375V34.0001H14.875C13.2812 34.0001 12.0771 33.3417 11.2625 32.0251C10.4479 30.7084 10.4125 29.4001 11.1562 28.1001L14.025 23.2001L6.375 8.00006H2.125V4.00006H9.03125L11.05 8.00006Z" fill="#FF6C3E"/>
</g>
</svg>
