<svg width="74" height="55" viewBox="0 0 74 55" fill="none" xmlns="http://www.w3.org/2000/svg">
<path d="M28.5333 13.384L28.5013 16.68H11.1573V13.384H17.6853V10.248H21.9413V13.384H28.5333ZM16.6293 23.4C16.6293 25.032 17.9413 25.896 19.8293 25.896C21.6853 25.896 23.0293 25.032 23.0293 23.4C23.0293 21.8 21.6853 20.936 19.8293 20.936C17.9413 20.936 16.6293 21.8 16.6293 23.4ZM27.0613 23.4C27.0613 26.792 24.0533 29.096 19.8293 29.096C15.6053 29.096 12.5973 26.792 12.5973 23.4C12.5973 20.072 15.6053 17.736 19.8293 17.736C24.0533 17.736 27.0613 20.072 27.0613 23.4ZM19.5733 30.696V35.88H35.4133V39.24H15.3493V30.696H19.5733ZM34.3573 19.272H38.2613V22.76H34.3573V32.328H30.1333V10.28H34.3573V19.272Z" fill="black"/>
<path d="M45.3093 27.664V28.144C45.3093 32.592 46.8133 37.104 50.9733 39.312L48.7333 42.448C46.1093 41.072 44.4133 38.736 43.3573 35.952C42.3653 39.024 40.6373 41.616 37.9813 43.12L35.6133 39.952C39.8053 37.52 41.3093 32.688 41.3093 28.144V27.664H36.6053V24.24H41.3093V20.24H45.3093V24.24H49.9813V27.664H45.3093ZM57.6613 19.248H61.6613V48.72H57.6613V34H55.2613V47.408H51.3253V19.728H55.2613V30.544H57.6613V19.248Z" fill="#1DD100"/>
<mask id="mask0_581_12" style="mask-type:alpha" maskUnits="userSpaceOnUse" x="57" y="7" width="14" height="14">
<rect x="57" y="7" width="14" height="14" fill="#D9D9D9"/>
</mask>
<g mask="url(#mask0_581_12)">
<path d="M63.5625 19.8334C63.2417 19.8334 62.9184 19.797 62.5927 19.7241C62.267 19.6511 61.934 19.5466 61.5938 19.4105C61.7104 18.2341 62.0507 17.1355 62.6146 16.1147C63.1785 15.0938 63.9028 14.1945 64.7875 13.4168C63.7181 13.9612 62.792 14.6807 62.0094 15.5751C61.2267 16.4695 60.6799 17.4904 60.3688 18.6376C60.3299 18.6084 60.2934 18.5768 60.2594 18.5428L60.15 18.4334C59.6931 17.9765 59.3455 17.4661 59.1073 16.9022C58.8691 16.3383 58.75 15.7501 58.75 15.1376C58.75 14.4765 58.8813 13.8445 59.1438 13.2418C59.4063 12.639 59.7708 12.1043 60.2375 11.6376C61.025 10.8501 62.0458 10.3372 63.3 10.0991C64.5542 9.86086 66.3139 9.83899 68.5792 10.0334C68.7542 12.357 68.725 14.1289 68.4917 15.3491C68.2583 16.5692 67.7528 17.5682 66.975 18.3459C66.4986 18.8223 65.9663 19.1893 65.3781 19.447C64.7899 19.7046 64.1847 19.8334 63.5625 19.8334Z" fill="#1DD100"/>
</g>
<mask id="mask1_581_12" style="mask-type:alpha" maskUnits="userSpaceOnUse" x="14" y="19" width="11" height="10">
<rect x="14" y="19" width="11" height="10" fill="#D9D9D9"/>
</mask>
<g mask="url(#mask1_581_12)">
<path d="M19.5003 27.7501L18.8357 27.2084C18.0642 26.5765 17.4264 26.0313 16.9222 25.573C16.418 25.1147 16.017 24.7032 15.7191 24.3386C15.4212 23.974 15.213 23.639 15.0946 23.3334C14.9762 23.0279 14.917 22.7154 14.917 22.3959C14.917 21.7431 15.1576 21.198 15.6389 20.7605C16.1201 20.323 16.7198 20.1042 17.4378 20.1042C17.835 20.1042 18.2132 20.1806 18.5722 20.3334C18.9312 20.4862 19.2406 20.7015 19.5003 20.9792C19.76 20.7015 20.0694 20.4862 20.4285 20.3334C20.7875 20.1806 21.1656 20.1042 21.5628 20.1042C22.2809 20.1042 22.8805 20.323 23.3618 20.7605C23.843 21.198 24.0837 21.7431 24.0837 22.3959C24.0837 22.7154 24.0245 23.0279 23.9061 23.3334C23.7877 23.639 23.5795 23.974 23.2816 24.3386C22.9837 24.7032 22.5826 25.1147 22.0785 25.573C21.5743 26.0313 20.9364 26.5765 20.1649 27.2084L19.5003 27.7501Z" fill="#FF3D00"/>
</g>
<path d="M19 26C18.4429 26 17.9702 25.8214 17.5821 25.4643C17.194 25.1072 17 24.6723 17 24.1596C17 23.7478 17.1321 23.3786 17.3964 23.0522C17.6607 22.7257 18.0071 22.5055 18.4357 22.3916C18.3405 22.3697 18.2476 22.3379 18.1571 22.2963C18.0667 22.2547 17.9857 22.201 17.9143 22.1353C17.7571 21.9907 17.656 21.8187 17.6107 21.6193C17.5655 21.4199 17.5548 21.2173 17.5786 21.0113C17.8024 20.9894 18.0226 20.9993 18.2393 21.0409C18.456 21.0825 18.6429 21.1756 18.8 21.3202C18.9095 21.421 18.9893 21.535 19.0393 21.662C19.0893 21.7891 19.1214 21.9227 19.1357 22.063C19.1976 21.9271 19.2726 21.799 19.3607 21.6785C19.4488 21.558 19.5476 21.4473 19.6571 21.3465C19.7095 21.2983 19.7762 21.2742 19.8571 21.2742C19.9381 21.2742 20.0048 21.2983 20.0571 21.3465C20.1095 21.3947 20.1357 21.4561 20.1357 21.5306C20.1357 21.6051 20.1095 21.6664 20.0571 21.7146C19.9524 21.811 19.8595 21.9173 19.7786 22.0334C19.6976 22.1495 19.6381 22.2733 19.6 22.4047C20.019 22.5274 20.3571 22.7498 20.6143 23.0719C20.8714 23.3939 21 23.7565 21 24.1596C21 24.6723 20.806 25.1072 20.4179 25.4643C20.0298 25.8214 19.5571 26 19 26Z" fill="white"/>
</svg>
